<svg width="82" height="82" viewBox="0 0 82 82" fill="none" xmlns="http://www.w3.org/2000/svg">
<circle cx="40.9439" cy="40.5924" r="40.5611" fill="white"/>
<path d="M36.1046 37.3443C34.6434 37.3443 33.2151 36.911 32.0001 36.0992C30.7852 35.2874 29.8383 34.1336 29.2791 32.7836C28.7199 31.4337 28.5736 29.9482 28.8587 28.5151C29.1437 27.082 29.8474 25.7656 30.8806 24.7324C31.9138 23.6991 33.2302 22.9955 34.6633 22.7104C36.0964 22.4254 37.5819 22.5717 38.9319 23.1309C40.2818 23.69 41.4357 24.637 42.2475 25.8519C43.0593 27.0668 43.4926 28.4952 43.4926 29.9564C43.4903 31.9151 42.7111 33.7929 41.3261 35.1779C39.9411 36.5629 38.0633 37.342 36.1046 37.3443ZM36.1046 25.176C35.1592 25.176 34.2349 25.4564 33.4488 25.9816C32.6626 26.5069 32.0499 27.2535 31.6881 28.127C31.3263 29.0005 31.2316 29.9617 31.4161 30.889C31.6005 31.8163 32.0558 32.6681 32.7244 33.3367C33.3929 34.0052 34.2447 34.4605 35.172 34.645C36.0993 34.8294 37.0605 34.7347 37.934 34.3729C38.8075 34.0111 39.5541 33.3984 40.0794 32.6123C40.6047 31.8261 40.8851 30.9019 40.8851 29.9564C40.8841 28.6888 40.3802 27.4735 39.4839 26.5772C38.5876 25.6809 37.3722 25.1769 36.1046 25.176ZM43.0423 56.466H29.1357C24.9289 56.466 22.6117 54.1627 22.6117 49.9803C22.6117 45.3528 25.2296 39.9518 32.6071 39.9518H39.5604C46.9379 39.9518 49.5559 45.3528 49.5559 49.9803C49.5611 54.1627 47.2439 56.466 43.0423 56.466ZM32.6123 42.5593C31.6197 42.4826 30.6223 42.6221 29.6888 42.9684C28.7554 43.3146 27.9083 43.8594 27.2059 44.5649C26.5034 45.2704 25.9625 46.12 25.6204 47.055C25.2783 47.9899 25.1432 48.988 25.2244 49.9803C25.2244 52.699 26.396 53.8585 29.1409 53.8585H43.0423C45.7872 53.8585 46.9588 52.699 46.9588 49.9803C47.0401 48.9875 46.9049 47.989 46.5625 47.0536C46.2201 46.1183 45.6787 45.2684 44.9757 44.5628C44.2727 43.8571 43.4249 43.3125 42.4908 42.9666C41.5567 42.6207 40.5587 42.4818 39.5657 42.5593H32.6123ZM49.2308 38.1092C47.6717 38.1145 46.1732 37.5064 45.0588 36.416C44.8475 36.1692 44.736 35.8524 44.7461 35.5276C44.7562 35.2029 44.8872 34.8936 45.1135 34.6604C45.3397 34.4272 45.6449 34.2869 45.9692 34.2669C46.2935 34.247 46.6135 34.3488 46.8667 34.5526C47.4968 35.1669 48.3438 35.5079 49.2238 35.5017C49.6749 35.5066 50.1224 35.4213 50.5401 35.251C50.9578 35.0806 51.3373 34.8285 51.6562 34.5096C51.9752 34.1906 52.2273 33.8111 52.3976 33.3934C52.568 32.9757 52.6532 32.5282 52.6484 32.0772C52.647 31.1694 52.2857 30.2991 51.6438 29.6572C51.0019 29.0153 50.1317 28.654 49.2238 28.6527C48.725 28.6447 48.2315 28.7562 47.7845 28.9777C47.4763 29.1347 47.1184 29.1628 46.7894 29.0559C46.4605 28.949 46.1875 28.7157 46.0305 28.4075C45.8735 28.0993 45.8454 27.7414 45.9523 27.4125C46.0593 27.0835 46.2925 26.8106 46.6007 26.6536C47.416 26.2432 48.318 26.0345 49.2308 26.0452C50.8306 26.0452 52.3648 26.6807 53.4961 27.8119C54.6273 28.9431 55.2628 30.4774 55.2628 32.0772C55.2628 33.677 54.6273 35.2112 53.4961 36.3424C52.3648 37.4737 50.8306 38.1092 49.2308 38.1092ZM54.6196 52.9893H53.4376C53.0918 52.9893 52.7602 52.852 52.5157 52.6075C52.2712 52.363 52.1338 52.0313 52.1338 51.6856C52.1338 51.3398 52.2712 51.0082 52.5157 50.7637C52.7602 50.5192 53.0918 50.3818 53.4376 50.3818H54.6196C56.61 50.3818 57.3836 49.617 57.3836 47.6526C57.4432 46.9199 57.343 46.183 57.09 45.4928C56.837 44.8026 56.4373 44.1755 55.9183 43.6549C55.3993 43.1343 54.7735 42.7325 54.0841 42.4773C53.3947 42.2221 52.6581 42.1196 51.9252 42.1769H49.3003C48.9545 42.1769 48.6229 42.0395 48.3784 41.795C48.1339 41.5505 47.9966 41.2189 47.9966 40.8731C47.9966 40.5274 48.1339 40.1957 48.3784 39.9512C48.6229 39.7067 48.9545 39.5694 49.3003 39.5694H51.9252C53.0043 39.4985 54.086 39.6592 55.0979 40.0406C56.1098 40.422 57.0285 41.0153 57.7923 41.7808C58.5562 42.5462 59.1475 43.4662 59.5267 44.4789C59.9059 45.4916 60.0643 46.5737 59.9911 47.6526C60.0654 48.3748 59.9772 49.1044 59.733 49.7881C59.4889 50.4717 59.0948 51.0921 58.5798 51.6038C58.0648 52.1154 57.4419 52.5054 56.7567 52.7452C56.0715 52.9849 55.3413 53.0683 54.6196 52.9893Z" fill="#9C12C0"/>
</svg>
