<svg width="82" height="82" viewBox="0 0 82 82" fill="none" xmlns="http://www.w3.org/2000/svg">
<circle cx="40.5762" cy="40.7125" r="40.5611" fill="white"/>
<path d="M46.0086 41.1809L41.0834 46.1061L37.9688 42.9916C36.6651 41.6879 34.5646 43.7159 35.9408 45.0197L40.0693 49.1482C40.6488 49.7277 41.5904 49.7277 42.0974 49.1482L48.0367 43.2089C49.4129 41.9052 47.3848 39.8771 46.0086 41.1809Z" fill="#9C12C0"/>
<path d="M54.7726 25.391V24.9565C54.7726 24.2322 54.1208 23.5079 53.324 23.5079C52.5273 23.5079 51.8754 24.1597 51.8754 24.9565V25.391H33.9851V24.884C33.9851 24.1597 33.3332 23.4354 32.5365 23.4354C31.7397 23.4354 31.0879 24.0873 31.0879 24.884V25.4635C27.756 25.4635 25.0037 28.2158 25.0037 31.5476V37.1248C24.9313 37.3421 24.8588 37.487 24.8588 37.7042C24.4242 40.8188 23.6999 43.9333 22.6859 46.9029C22.1789 48.2791 21.5995 49.7277 20.9476 51.0315C20.3681 52.2628 20.4406 53.639 21.1649 54.7254C21.8892 55.8119 23.0481 56.4638 24.3518 56.4638H25.1485C25.8004 59.1437 28.1906 61.0993 31.0879 61.0993H54.5554C57.8872 61.0993 60.6395 58.347 60.6395 55.0151V31.4752C60.6395 28.1434 58.032 25.5359 54.7726 25.391ZM31.0154 28.2883V28.578C31.0154 29.3023 31.6673 30.0266 32.464 30.0266C33.2608 30.0266 33.9126 29.3747 33.9126 28.578V28.2883H51.8754V28.7229C51.8754 29.4472 52.5273 30.1715 53.324 30.1715C54.1208 30.1715 54.7726 29.5196 54.7726 28.7229V28.2883C56.4385 28.4331 57.7423 29.8093 57.7423 31.4752V34.9519H27.8285V31.4752C27.8285 29.6645 29.2771 28.2883 31.0154 28.2883ZM23.5551 53.132C23.4102 52.8422 23.3378 52.5525 23.4826 52.2628C24.1345 50.8142 24.7864 49.3656 25.2934 47.8445C26.3799 44.6576 27.1766 41.3982 27.6112 38.0664C27.6112 37.994 27.6836 37.9215 27.756 37.9215H57.3801C57.3801 37.9215 57.4526 37.9215 57.525 37.994C57.525 37.994 57.5974 38.0664 57.5974 38.1388C57.2353 41.3982 56.511 44.5851 55.4969 47.6272C54.9899 49.1483 54.3381 50.6693 53.6138 52.1904C53.1792 53.0595 52.2376 53.639 51.2235 53.639H24.3518C23.9897 53.4941 23.6999 53.3492 23.5551 53.132ZM54.5554 58.1297H31.0154C29.7841 58.1297 28.7701 57.4054 28.1906 56.3913H51.1511C53.2516 56.3913 55.2072 55.16 56.1488 53.2768C56.7283 52.1179 57.2353 50.8866 57.6699 49.6553V54.9427C57.7423 56.681 56.2937 58.1297 54.5554 58.1297Z" fill="#9C12C0"/>
</svg>
