<svg width="82" height="82" viewBox="0 0 82 82" fill="none" xmlns="http://www.w3.org/2000/svg">
<circle cx="40.5762" cy="40.8367" r="40.5611" fill="white"/>
<g clip-path="url(#clip0_1_1006)">
<path d="M47.5875 42.0729C48.2637 42.0729 48.9122 41.8125 49.3903 41.3488C49.8684 40.8852 50.137 40.2563 50.137 39.6006V24.7669C50.137 24.1112 49.8684 23.4823 49.3903 23.0187C48.9122 22.555 48.2637 22.2946 47.5875 22.2946H33.5649C32.8888 22.2946 32.2403 22.555 31.7621 23.0187C31.284 23.4823 31.0154 24.1112 31.0154 24.7669V39.6006C31.0154 40.2563 31.284 40.8852 31.7621 41.3488C32.2403 41.8125 32.8888 42.0729 33.5649 42.0729H47.5875ZM43.1258 23.5307L43.1302 30.3295H43.1258L41.3729 28.9617C41.1475 28.7848 40.8662 28.6883 40.5762 28.6883C40.2862 28.6883 40.0049 28.7848 39.7795 28.9617L38.0267 30.3246V23.5307H43.1258ZM32.2902 39.6006V24.7669C32.2902 24.439 32.4245 24.1246 32.6635 23.8928C32.9026 23.6609 33.2268 23.5307 33.5649 23.5307H36.7519V30.3246C36.7512 30.5579 36.8187 30.7866 36.9465 30.9843C37.0742 31.182 37.2571 31.3406 37.4739 31.4418C37.6907 31.5429 37.9326 31.5825 38.1716 31.556C38.4106 31.5295 38.637 31.4379 38.8247 31.2919L40.5762 29.9241L42.329 31.2919C42.5167 31.4375 42.743 31.5288 42.9818 31.5551C43.2206 31.5815 43.4623 31.5418 43.6788 31.4406C43.8954 31.3395 44.0781 31.1811 44.2058 30.9836C44.3335 30.7861 44.401 30.5577 44.4005 30.3246V23.5307H47.5875C47.9256 23.5307 48.2498 23.6609 48.4889 23.8928C48.728 24.1246 48.8623 24.439 48.8623 24.7669V39.6006C48.8623 39.9285 48.728 40.2429 48.4889 40.4747C48.2498 40.7065 47.9256 40.8368 47.5875 40.8368H33.5649C33.2268 40.8368 32.9026 40.7065 32.6635 40.4747C32.4245 40.2429 32.2902 39.9285 32.2902 39.6006Z" fill="#9C12C0"/>
<path d="M29.573 41.2484C29.0994 40.7898 28.4891 40.4871 27.8285 40.3831V29.7114C27.8294 28.9171 27.5145 28.1531 26.9493 27.5782C26.3841 27.0033 25.6121 26.6618 24.7939 26.6248C24.3738 26.6075 23.9546 26.6735 23.5618 26.8188C23.169 26.964 22.8109 27.1855 22.5095 27.4697C22.1774 27.7773 21.9128 28.1468 21.7315 28.556C21.5503 28.9653 21.4561 29.4057 21.4546 29.8511V47.1022C21.4557 47.5989 21.5592 48.0903 21.759 48.5477C21.9587 49.005 22.2507 49.4191 22.6178 49.7654L27.6717 54.5135C27.9165 54.7443 28.1112 55.0202 28.2444 55.3251C28.3776 55.6299 28.4466 55.9575 28.4474 56.2886V57.5247C28.4474 58.0165 28.6488 58.4881 29.0074 58.8359C29.366 59.1836 29.8524 59.379 30.3595 59.379H34.8398C35.3469 59.379 35.8333 59.1836 36.1919 58.8359C36.5505 58.4881 36.7519 58.0165 36.7519 57.5247V49.5627C36.7508 49.066 36.6473 48.5745 36.4474 48.1171C36.2475 47.6597 35.9553 47.2457 35.588 46.8994L29.573 41.2484ZM35.4771 57.5247C35.4771 57.6887 35.41 57.8459 35.2905 57.9618C35.1709 58.0777 35.0088 58.1428 34.8398 58.1428H30.3595C30.1905 58.1428 30.0284 58.0777 29.9088 57.9618C29.7893 57.8459 29.7222 57.6887 29.7222 57.5247V56.2886C29.721 55.7919 29.6175 55.3005 29.4177 54.8431C29.218 54.3858 28.926 53.9717 28.5589 53.6253L23.5057 48.8785C23.2607 48.6476 23.0658 48.3715 22.9324 48.0664C22.7991 47.7613 22.7301 47.4335 22.7294 47.1022V29.8511C22.7303 29.573 22.7893 29.298 22.9026 29.0425C23.016 28.7871 23.1815 28.5565 23.3891 28.3646C23.726 28.0436 24.1781 27.8617 24.6505 27.8572H24.7333C25.2248 27.879 25.6885 28.0841 26.0277 28.4296C26.3669 28.7751 26.5554 29.2344 26.5537 29.7114V40.435C26.006 40.5668 25.5043 40.8372 25.0997 41.2186C24.6951 41.6 24.4021 42.0787 24.2508 42.6058C24.0995 43.133 24.0953 43.6896 24.2385 44.2189C24.3817 44.7481 24.6673 45.231 25.066 45.6182L27.3778 47.8605C27.4981 47.9731 27.6591 48.0354 27.8262 48.034C27.9933 48.0326 28.1532 47.9676 28.2713 47.853C28.3895 47.7384 28.4566 47.5834 28.458 47.4213C28.4595 47.2593 28.3952 47.1032 28.2791 46.9866L25.9673 44.7442C25.788 44.572 25.6456 44.3672 25.5483 44.1414C25.451 43.9156 25.4008 43.6734 25.4005 43.4287C25.4002 43.184 25.4499 42.9416 25.5466 42.7156C25.6434 42.4896 25.7853 42.2845 25.9642 42.1119C26.1432 41.9393 26.3555 41.8028 26.5891 41.7102C26.8227 41.6176 27.0729 41.5708 27.3252 41.5724C27.5775 41.574 27.8271 41.624 28.0594 41.7196C28.2917 41.8151 28.5022 41.9543 28.6788 42.1291L34.7008 47.7864C34.9458 48.0173 35.1408 48.2934 35.2741 48.5985C35.4074 48.9035 35.4765 49.2314 35.4771 49.5627V57.5247ZM56.3586 26.6248C55.5404 26.6618 54.7684 27.0033 54.2032 27.5782C53.638 28.1531 53.3231 28.9171 53.324 29.7114V40.3831C52.6666 40.4857 52.0591 40.786 51.5871 41.2416L45.5638 46.8994C45.1967 47.2458 44.9047 47.6599 44.705 48.1172C44.5052 48.5746 44.4017 49.066 44.4006 49.5627V57.5247C44.4006 58.0165 44.602 58.4881 44.9606 58.8359C45.3193 59.1836 45.8056 59.379 46.3128 59.379H50.793C51.3001 59.379 51.7865 59.1836 52.1451 58.8359C52.5037 58.4881 52.7051 58.0165 52.7051 57.5247V56.2886C52.7059 55.9574 52.775 55.6296 52.9083 55.3247C53.0416 55.0197 53.2365 54.7437 53.4815 54.5129L58.5347 49.7654C58.9018 49.4191 59.1938 49.005 59.3935 48.5477C59.5933 48.0903 59.6968 47.5989 59.6979 47.1022V29.8511C59.6964 29.4057 59.6022 28.9653 59.421 28.556C59.2397 28.1468 58.9751 27.7773 58.643 27.4697C58.342 27.1849 57.984 26.963 57.5911 26.8177C57.1982 26.6723 56.7787 26.6067 56.3586 26.6248ZM58.4231 47.1022C58.4224 47.4335 58.3534 47.7613 58.2201 48.0664C58.0868 48.3715 57.8918 48.6476 57.6468 48.8785L52.5942 53.6247C52.227 53.9712 51.9349 54.3853 51.735 54.8427C51.5351 55.3002 51.4316 55.7918 51.4303 56.2886V57.5247C51.4303 57.6887 51.3632 57.8459 51.2437 57.9618C51.1241 58.0777 50.962 58.1428 50.793 58.1428H46.3128C46.1437 58.1428 45.9816 58.0777 45.8621 57.9618C45.7425 57.8459 45.6754 57.6887 45.6754 57.5247V49.5627C45.6761 49.2314 45.7451 48.9037 45.8783 48.5986C46.0115 48.2936 46.2062 48.0174 46.4511 47.7864L52.4814 42.1223C52.6589 41.95 52.8698 41.8132 53.1019 41.7199C53.3339 41.6266 53.5827 41.5785 53.8339 41.5784H53.9296C54.299 41.5966 54.6551 41.7183 54.9546 41.9287C55.2542 42.1392 55.4844 42.4293 55.6173 42.7641C55.7502 43.0988 55.7801 43.4638 55.7034 43.8147C55.6267 44.1656 55.4467 44.4874 55.1852 44.7411L52.8734 46.9866C52.8125 47.0436 52.764 47.1118 52.7306 47.1872C52.6972 47.2626 52.6796 47.3437 52.6788 47.4258C52.6781 47.5079 52.6942 47.5892 52.7263 47.6652C52.7583 47.7412 52.8057 47.8102 52.8655 47.8682C52.9253 47.9262 52.9965 47.9721 53.0748 48.0032C53.1532 48.0343 53.2371 48.0499 53.3217 48.0492C53.4064 48.0485 53.49 48.0314 53.5678 47.9991C53.6455 47.9667 53.7159 47.9196 53.7747 47.8605L56.0865 45.6182C56.4852 45.231 56.7708 44.7481 56.914 44.2189C57.0572 43.6896 57.053 43.133 56.9017 42.6058C56.7504 42.0787 56.4575 41.6 56.0529 41.2186C55.6483 40.8372 55.1465 40.5668 54.5988 40.435V29.7114C54.5971 29.2344 54.7856 28.7751 55.1248 28.4296C55.464 28.0841 55.9277 27.879 56.4192 27.8572C56.6669 27.8484 56.9138 27.8887 57.1449 27.9755C57.376 28.0623 57.5865 28.1939 57.7634 28.3622C57.9714 28.5543 58.137 28.7853 58.2504 29.0412C58.3637 29.2971 58.4225 29.5726 58.4231 29.8511V47.1022Z" fill="#9C12C0"/>
<path fill-rule="evenodd" clip-rule="evenodd" d="M46.9501 39.6009C47.1192 39.6009 47.2813 39.5358 47.4008 39.4198C47.5203 39.3039 47.5875 39.1467 47.5875 38.9828V37.7466C47.5875 37.5827 47.5203 37.4255 47.4008 37.3096C47.2813 37.1937 47.1192 37.1286 46.9501 37.1286C46.7811 37.1286 46.6189 37.1937 46.4994 37.3096C46.3799 37.4255 46.3127 37.5827 46.3127 37.7466V38.9828C46.3127 39.1467 46.3799 39.3039 46.4994 39.4198C46.6189 39.5358 46.7811 39.6009 46.9501 39.6009ZM44.4006 39.6009C44.5696 39.6009 44.7317 39.5358 44.8513 39.4198C44.9708 39.3039 45.0379 39.1467 45.0379 38.9828V37.7466C45.0379 37.5827 44.9708 37.4255 44.8513 37.3096C44.7317 37.1937 44.5696 37.1286 44.4006 37.1286C44.2315 37.1286 44.0694 37.1937 43.9499 37.3096C43.8303 37.4255 43.7632 37.5827 43.7632 37.7466V38.9828C43.7632 39.1467 43.8303 39.3039 43.9499 39.4198C44.0694 39.5358 44.2315 39.6009 44.4006 39.6009ZM34.2023 39.6009H36.7519C36.9209 39.6009 37.0831 39.5358 37.2026 39.4198C37.3221 39.3039 37.3893 39.1467 37.3893 38.9828C37.3893 38.8189 37.3221 38.6617 37.2026 38.5457C37.0831 38.4298 36.9209 38.3647 36.7519 38.3647H34.2023C34.0333 38.3647 33.8712 38.4298 33.7516 38.5457C33.6321 38.6617 33.5649 38.8189 33.5649 38.9828C33.5649 39.1467 33.6321 39.3039 33.7516 39.4198C33.8712 39.5358 34.0333 39.6009 34.2023 39.6009ZM34.8397 35.2744V36.5105C34.8397 36.6744 34.9069 36.8316 35.0264 36.9475C35.1459 37.0635 35.3081 37.1286 35.4771 37.1286C35.6462 37.1286 35.8083 37.0635 35.9278 36.9475C36.0473 36.8316 36.1145 36.6744 36.1145 36.5105V35.2744C36.2405 35.2743 36.3637 35.2381 36.4685 35.1701C36.5733 35.1022 36.655 35.0057 36.7032 34.8928C36.7515 34.7799 36.7641 34.6556 36.7395 34.5357C36.7149 34.4159 36.6542 34.3057 36.5651 34.2193L35.9277 33.6012C35.922 33.5957 35.9144 33.5938 35.9086 33.5889C35.8543 33.5371 35.7908 33.4953 35.7212 33.4652C35.7161 33.4652 35.7104 33.4652 35.7047 33.4615C35.6401 33.4382 35.5721 33.4253 35.5032 33.4232H35.4395C35.3855 33.4267 35.3322 33.4369 35.2808 33.4535C35.1849 33.4812 35.0974 33.531 35.0258 33.5988L34.3884 34.2168C34.2984 34.3032 34.2369 34.4136 34.2119 34.5339C34.1868 34.6543 34.1993 34.7791 34.2477 34.8926C34.2961 35.0061 34.3783 35.103 34.4837 35.171C34.5892 35.2389 34.7131 35.2749 34.8397 35.2744Z" fill="#9C12C0"/>
</g>
<defs>
<clipPath id="clip0_1_1006">
<rect width="38.2433" height="37.0844" fill="white" transform="translate(21.4546 22.2947)"/>
</clipPath>
</defs>
</svg>
