<svg width="84" height="82" viewBox="0 0 84 82" fill="none" xmlns="http://www.w3.org/2000/svg">
<rect x="10.2913" y="0.89209" width="72.8325" height="72.8325" rx="5" fill="#F8F4FC"/>
<rect x="0.503662" y="19.8931" width="61" height="61" rx="9.5" stroke="url(#paint0_linear_8_3)"/>
<path d="M17.5037 57.0449V45.1281L29.5573 53.1643L29.5721 53.1742L29.5874 53.1829L29.745 53.2726L29.7587 53.2803L29.7728 53.2872C30.0268 53.4114 30.3059 53.4759 30.5887 53.4759C30.8714 53.4759 31.1505 53.4114 31.4045 53.2872L31.4187 53.2803L31.4323 53.2726L31.5899 53.1829L31.6053 53.1742L31.62 53.1643L43.6737 45.1281V57.052C43.6737 57.9641 43.3253 58.8416 42.6996 59.5052C42.0756 60.167 41.2229 60.566 40.3152 60.6212L40.0911 60.6275H21.0792C20.1671 60.6276 19.2896 60.2791 18.626 59.6535C17.9643 59.0295 17.5652 58.1768 17.51 57.2691L17.5037 57.0449Z" fill="url(#paint1_linear_8_3)" stroke="url(#paint2_linear_8_3)"/>
<path d="M40.0981 39.8931C41.2121 39.8931 42.2074 40.4015 42.8633 41.2012L30.5886 49.3844L18.3139 41.2012C18.5715 40.8872 18.8816 40.6184 19.2314 40.4074C19.7172 40.1143 20.2658 39.9411 20.8317 39.902L21.0878 39.8931H40.0981Z" fill="url(#paint3_linear_8_3)" stroke="url(#paint4_linear_8_3)"/>
<defs>
<linearGradient id="paint0_linear_8_3" x1="31.0037" y1="19.3931" x2="31.0037" y2="81.3931" gradientUnits="userSpaceOnUse">
<stop stop-color="#9C12C0"/>
<stop offset="1" stop-color="#7123C2"/>
</linearGradient>
<linearGradient id="paint1_linear_8_3" x1="30.5887" y1="44.1938" x2="30.5887" y2="61.1275" gradientUnits="userSpaceOnUse">
<stop stop-color="#9C12C0"/>
<stop offset="1" stop-color="#7123C2"/>
</linearGradient>
<linearGradient id="paint2_linear_8_3" x1="30.5887" y1="44.1938" x2="30.5887" y2="61.1275" gradientUnits="userSpaceOnUse">
<stop stop-color="#9C12C0"/>
<stop offset="1" stop-color="#7123C2"/>
</linearGradient>
<linearGradient id="paint3_linear_8_3" x1="30.5886" y1="39.3931" x2="30.5886" y2="49.9853" gradientUnits="userSpaceOnUse">
<stop stop-color="#9C12C0"/>
<stop offset="1" stop-color="#7123C2"/>
</linearGradient>
<linearGradient id="paint4_linear_8_3" x1="30.5886" y1="39.3931" x2="30.5886" y2="49.9853" gradientUnits="userSpaceOnUse">
<stop stop-color="#9C12C0"/>
<stop offset="1" stop-color="#7123C2"/>
</linearGradient>
</defs>
</svg>
