<svg width="83" height="80" viewBox="0 0 83 80" fill="none" xmlns="http://www.w3.org/2000/svg">
<rect x="10.1667" y="0.609863" width="72.8325" height="72.8325" rx="5" fill="#F8F4FC"/>
<rect x="0.503662" y="17.8862" width="61" height="61" rx="9.5" stroke="url(#paint0_linear_8_2)"/>
<path d="M32.824 37.2297V35.5618C38.9808 35.7988 43.5901 40.4039 43.8277 46.5509H42.1598C41.9308 41.2896 38.0916 37.458 32.824 37.2297Z" fill="url(#paint1_linear_8_2)" stroke="url(#paint2_linear_8_2)"/>
<path d="M24.1494 37.0692L29.076 42.4866L24.736 54.6546C18.6134 48.5292 18.9947 40.6332 19.0147 40.2999C19.0333 39.9738 19.1709 39.6659 19.4014 39.4346M24.1494 37.0692C23.9161 36.8124 23.5919 36.6566 23.2456 36.6349C22.8993 36.6133 22.5582 36.7275 22.2947 36.9532M24.1494 37.0692L24.1494 37.0693L24.1494 37.0692ZM22.2947 36.9532L19.4014 39.4346M22.2947 36.9532L22.6201 37.3329M22.2947 36.9532L25.0895 54.301M19.4014 39.4346L19.7556 39.7875C19.7515 39.7916 19.7475 39.7957 19.7435 39.7999M19.4014 39.4346L19.7269 39.8141L19.7435 39.7999M25.0895 54.301C30.2911 59.5012 36.8169 59.8852 38.6107 59.8852C38.8708 59.8852 39.026 59.8775 39.0591 59.8755L39.0614 59.8754C39.2588 59.8643 39.4453 59.7826 39.5872 59.6455L42.0537 56.7666L42.0539 56.7663C42.1952 56.6017 42.2667 56.3886 42.2533 56.1722C42.2399 55.9557 42.1427 55.753 41.9823 55.6071L36.5637 50.6793C36.5637 50.6792 36.5637 50.6792 36.5636 50.6792C36.4034 50.5336 36.1929 50.456 35.9766 50.4627C35.7601 50.4693 35.5548 50.5599 35.4039 50.7151L35.4038 50.7151L32.2132 53.9965L32.0254 54.1896L31.7609 54.139C30.9139 53.9773 29.2731 53.4572 27.6003 51.7886L27.5997 51.788C25.927 50.1139 25.4063 48.4685 25.2486 47.6252L25.1993 47.3619L25.3913 47.175L28.6699 43.983L28.6705 43.9824C28.8259 43.8317 28.9165 43.6264 28.9232 43.4101C28.9298 43.1937 28.8521 42.9833 28.7064 42.8232L28.7061 42.823L23.7795 37.4057L23.7792 37.4054C23.6334 37.2449 23.4308 37.1475 23.2144 37.134C22.998 37.1204 22.7848 37.1917 22.6202 37.3328C22.6202 37.3328 22.6201 37.3329 22.6201 37.3329M25.0895 54.301C19.1243 48.333 19.496 40.626 19.5138 40.3299L19.5139 40.3283C19.5252 40.1303 19.6067 39.943 19.7435 39.7999M25.0895 54.301L22.6201 37.3329M22.6201 37.3329L19.7435 39.7999M32.8374 40.8968C34.6464 40.9818 36.0044 41.5344 36.9297 42.4596C37.8549 43.3849 38.4075 44.7429 38.4925 46.5519H36.8244C36.7584 45.3263 36.4362 44.3406 35.7424 43.6469C35.0487 42.9531 34.063 42.6308 32.8374 42.5649V40.8968Z" fill="url(#paint3_linear_8_2)" stroke="url(#paint4_linear_8_2)"/>
<defs>
<linearGradient id="paint0_linear_8_2" x1="31.0037" y1="17.3862" x2="31.0037" y2="79.3862" gradientUnits="userSpaceOnUse">
<stop stop-color="#9C12C0"/>
<stop offset="1" stop-color="#7123C2"/>
</linearGradient>
<linearGradient id="paint1_linear_8_2" x1="38.3306" y1="35.0522" x2="38.3306" y2="47.0509" gradientUnits="userSpaceOnUse">
<stop stop-color="#9C12C0"/>
<stop offset="1" stop-color="#7123C2"/>
</linearGradient>
<linearGradient id="paint2_linear_8_2" x1="38.3306" y1="35.0522" x2="38.3306" y2="47.0509" gradientUnits="userSpaceOnUse">
<stop stop-color="#9C12C0"/>
<stop offset="1" stop-color="#7123C2"/>
</linearGradient>
<linearGradient id="paint3_linear_8_2" x1="30.8793" y1="36.6323" x2="30.8793" y2="60.3852" gradientUnits="userSpaceOnUse">
<stop stop-color="#9C12C0"/>
<stop offset="1" stop-color="#7123C2"/>
</linearGradient>
<linearGradient id="paint4_linear_8_2" x1="30.8793" y1="36.6323" x2="30.8793" y2="60.3852" gradientUnits="userSpaceOnUse">
<stop stop-color="#9C12C0"/>
<stop offset="1" stop-color="#7123C2"/>
</linearGradient>
</defs>
</svg>
