<svg width="84" height="83" viewBox="0 0 84 83" fill="none" xmlns="http://www.w3.org/2000/svg">
<rect x="11.1667" y="0.609863" width="72.8325" height="72.8325" rx="5" fill="#F8F4FC"/>
<rect x="0.964111" y="20.7778" width="61" height="61" rx="9.5" stroke="url(#paint0_linear_8_4)"/>
<path d="M31.4641 65.8493L31.258 66.0355L31.4641 66.2637L31.6703 66.0355L31.4641 65.8493ZM31.4641 65.8493C31.6703 66.0355 31.6703 66.0354 31.6704 66.0353L31.6708 66.0348L31.6723 66.0332L31.678 66.0268L31.6999 66.0023C31.7192 65.9808 31.7476 65.9489 31.7846 65.907C31.8586 65.8233 31.9667 65.6998 32.1042 65.5402C32.3792 65.221 32.7716 64.7571 33.2423 64.1772C34.1834 63.0177 35.4386 61.3927 36.6944 59.5314C37.9496 57.671 39.2089 55.5694 40.1551 53.4572C41.0997 51.3487 41.7419 49.209 41.7419 47.2778C41.7419 44.552 40.6591 41.9378 38.7316 40.0103C36.8041 38.0829 34.1899 37.0001 31.4641 37.0001C28.7383 37.0001 26.1241 38.0829 24.1966 40.0103C22.2692 41.9378 21.1863 44.552 21.1863 47.2778C21.1863 49.209 21.8285 51.3487 22.7731 53.4572C23.7194 55.5694 24.9786 57.671 26.2338 59.5314C27.4896 61.3927 28.7448 63.0177 29.6859 64.1772C30.1566 64.7571 30.549 65.221 30.824 65.5402C30.9615 65.6998 31.0697 65.8233 31.1436 65.907C31.1806 65.9489 31.209 65.9808 31.2283 66.0023L31.2502 66.0268L31.2559 66.0332L31.2574 66.0348L31.2578 66.0353C31.2579 66.0354 31.258 66.0355 31.4641 65.8493ZM31.4641 50.5715C30.5906 50.5715 29.7528 50.2245 29.1351 49.6068C28.5175 48.9891 28.1705 48.1514 28.1705 47.2778C28.1705 46.4043 28.5175 45.5665 29.1351 44.9489C29.7528 44.3312 30.5906 43.9842 31.4641 43.9842C32.3376 43.9842 33.1754 44.3312 33.7931 44.9489C34.4108 45.5665 34.7578 46.4043 34.7578 47.2778C34.7578 47.7104 34.6726 48.1387 34.507 48.5383C34.3415 48.9379 34.0989 49.301 33.7931 49.6068C33.4872 49.9126 33.1241 50.1552 32.7245 50.3208C32.3249 50.4863 31.8966 50.5715 31.4641 50.5715Z" fill="url(#paint1_linear_8_4)" stroke="url(#paint2_linear_8_4)" stroke-width="0.555556"/>
<defs>
<linearGradient id="paint0_linear_8_4" x1="31.4641" y1="20.2778" x2="31.4641" y2="82.2778" gradientUnits="userSpaceOnUse">
<stop stop-color="#9C12C0"/>
<stop offset="1" stop-color="#7123C2"/>
</linearGradient>
<linearGradient id="paint1_linear_8_4" x1="31.4641" y1="37.2778" x2="31.4641" y2="65.8493" gradientUnits="userSpaceOnUse">
<stop stop-color="#9C12C0"/>
<stop offset="1" stop-color="#7123C2"/>
</linearGradient>
<linearGradient id="paint2_linear_8_4" x1="31.4641" y1="37.2778" x2="31.4641" y2="65.8493" gradientUnits="userSpaceOnUse">
<stop stop-color="#9C12C0"/>
<stop offset="1" stop-color="#7123C2"/>
</linearGradient>
</defs>
</svg>
