<svg width="92" height="92" viewBox="0 0 92 92" fill="none" xmlns="http://www.w3.org/2000/svg">
<path fill-rule="evenodd" clip-rule="evenodd" d="M13.4847 17.8034L6.50913 24.7807H13.4847V17.8034ZM65.9452 51.1453C69.3102 51.1453 72.0417 48.4121 72.0417 45.0524C72.0417 41.6928 69.3084 38.9595 65.9452 38.9595C62.5874 38.9595 59.8559 41.6928 59.8559 45.0524C59.8559 48.4121 62.5891 51.1453 65.9452 51.1453ZM66.7015 70.7213C66.2869 70.3049 65.6107 70.3049 65.1907 70.7213L61.703 74.2126C61.2884 74.629 61.2884 75.3052 61.703 75.7234C62.1176 76.1398 62.7938 76.1398 63.2137 75.7234L64.8775 74.0542V79.5474H23.1934V73.3673C23.1934 72.7783 22.7219 72.2997 22.1329 72.2997C21.5439 72.2997 21.0652 72.7783 21.0652 73.3673V80.6133C21.0652 81.2023 21.5457 81.681 22.1329 81.681H65.9452C66.5342 81.681 67.0129 81.2023 67.0129 80.6133V74.0542L68.6838 75.7234C68.7831 75.8228 68.901 75.9016 69.0307 75.9554C69.1605 76.0091 69.2996 76.0367 69.4401 76.0365C69.7088 76.0365 69.9846 75.9333 70.1964 75.7234C70.611 75.307 70.611 74.6308 70.1964 74.2126L66.7015 70.7213ZM62.9379 24.5333C62.9379 24.5102 62.945 24.5031 62.9735 24.5031H68.9258C68.9472 24.5031 68.9543 24.5102 68.9614 24.5333L69.8049 28.4428C69.965 29.1884 70.4882 29.7846 71.2071 30.0372C71.7588 30.2312 72.3122 30.459 72.8425 30.7152C73.5329 31.048 74.3248 30.9982 74.9636 30.5835L78.3286 28.4126C78.3428 28.4001 78.357 28.4001 78.373 28.4179L82.5815 32.6282C82.6028 32.6442 82.6029 32.6566 82.5886 32.6762L80.4159 36.0358C80.0013 36.6782 79.9514 37.4719 80.2842 38.1587C80.5387 38.689 80.7718 39.2389 80.9604 39.7923C81.2149 40.513 81.811 41.0379 82.5584 41.1981L86.4679 42.038C86.4892 42.0433 86.4963 42.0504 86.4963 42.0754V48.0277C86.4963 48.0508 86.4892 48.0597 86.4679 48.0651L82.5584 48.905C81.8092 49.0651 81.2131 49.5901 80.9604 50.3107C80.7718 50.8642 80.5387 51.414 80.2842 51.9443C79.9497 52.633 80.0013 53.4266 80.4159 54.069L82.5886 57.4286C82.6029 57.4482 82.6028 57.4589 82.5815 57.4767L78.373 61.6851C78.3588 61.7029 78.3446 61.7029 78.3286 61.6905L74.9636 59.5195C74.3248 59.1049 73.5311 59.0551 72.8425 59.3878C72.3105 59.6443 71.7645 59.8707 71.2071 60.0658C70.4882 60.3185 69.965 60.9146 69.8049 61.6602L68.9614 65.5697C68.9543 65.5928 68.9472 65.6 68.9258 65.6H62.9735C62.945 65.6 62.9379 65.5928 62.9379 65.5697L62.0944 61.6602C61.9343 60.9146 61.4111 60.3185 60.6922 60.0658C60.1345 59.8716 59.5884 59.6452 59.0569 59.3878C58.7508 59.2419 58.4323 59.1689 58.112 59.1689C57.6974 59.1689 57.2917 59.2864 56.9269 59.5195L53.569 61.6905C53.5477 61.7029 53.5405 61.7029 53.5245 61.6851L49.309 57.4767C49.2947 57.4607 49.2947 57.4482 49.309 57.4286L51.4746 54.069C51.8892 53.4266 51.939 52.633 51.6134 51.9443C51.3518 51.414 51.1258 50.8642 50.9301 50.309C50.6756 49.5901 50.0795 49.0633 49.3392 48.905L45.4297 48.0651C45.4084 48.0597 45.4012 48.0508 45.4012 48.0277V42.0754C45.4012 42.0522 45.4084 42.0433 45.4297 42.038L49.3392 41.1981C50.0812 41.0379 50.6756 40.513 50.9301 39.7923C51.1258 39.2389 51.3518 38.689 51.6134 38.1587C51.9408 37.4701 51.8892 36.6764 51.4746 36.0358L49.309 32.6762C49.2947 32.6566 49.2947 32.6442 49.309 32.6282L53.5245 28.4179C53.5388 28.4019 53.5459 28.4001 53.569 28.4126L56.9269 30.5853C57.5728 30.9999 58.3665 31.0498 59.0569 30.717C59.5872 30.4608 60.1317 30.233 60.6922 30.039C61.4111 29.7863 61.9343 29.1902 62.0944 28.4446L62.9379 24.5333ZM53.3733 45.0524C53.3733 38.1196 59.0124 32.4805 65.9452 32.4805C72.878 32.4805 78.5172 38.1196 78.5172 45.0524C78.5172 51.9835 72.878 57.6226 65.9452 57.6226C59.0124 57.6226 53.3733 51.9835 53.3733 45.0524ZM43.6805 15.2249C43.6805 15.5079 43.789 15.7801 43.9937 15.9794L47.4814 19.4707C47.6914 19.6789 47.9619 19.7839 48.2377 19.7839C48.5135 19.7839 48.7822 19.6807 48.994 19.4707C49.4086 19.0544 49.4086 18.3782 48.994 17.96L47.3231 16.2908H64.8811V19.6861C64.8811 20.2751 65.3616 20.7537 65.9488 20.7537C66.5378 20.7537 67.0165 20.2751 67.0165 19.6861V15.2249C67.0165 14.6341 66.536 14.1572 65.9488 14.1572H47.3213L48.9922 12.4881C49.4068 12.0717 49.4068 11.3955 48.9922 10.9773C48.5776 10.5609 47.9014 10.5609 47.4814 10.9773L43.9937 14.4687C43.8937 14.5675 43.8145 14.6853 43.7607 14.8152C43.7069 14.945 43.6797 15.0844 43.6805 15.2249ZM15.6218 16.2926H36.9078V67.7496H4.99658V26.9161H14.5523C15.1413 26.9161 15.62 26.4374 15.62 25.8484V16.2926H15.6218ZM19.6772 23.4479H32.8524C33.4414 23.4479 33.9201 22.9692 33.9201 22.3802C33.9201 21.7912 33.4396 21.3125 32.8524 21.3125H19.6772C19.0882 21.3125 18.6095 21.7912 18.6095 22.3802C18.6078 22.9692 19.0882 23.4479 19.6772 23.4479ZM10.65 31.1868C10.061 31.1868 9.5894 31.6655 9.5894 32.2545C9.5894 32.8435 10.061 33.3221 10.65 33.3221H31.2456C31.8346 33.3221 32.3132 32.8435 32.3132 32.2545C32.3132 31.6655 31.8328 31.1868 31.2456 31.1868H10.65ZM10.65 36.8811C10.061 36.8811 9.5894 37.3598 9.5894 37.9488C9.5894 38.5378 10.061 39.0165 10.65 39.0165H31.2456C31.8346 39.0165 32.3132 38.5378 32.3132 37.9488C32.3132 37.3598 31.8328 36.8811 31.2456 36.8811H10.65ZM10.65 42.5772C10.061 42.5772 9.5894 43.0558 9.5894 43.6449C9.5894 44.2339 10.061 44.7125 10.65 44.7125H31.2456C31.8346 44.7125 32.3132 44.2339 32.3132 43.6449C32.3132 43.0558 31.8328 42.5772 31.2456 42.5772H10.65ZM10.65 48.2715C10.061 48.2715 9.5894 48.7484 9.5894 49.3392C9.5894 49.9299 10.061 50.4068 10.65 50.4068H31.2456C31.8346 50.4068 32.3132 49.9299 32.3132 49.3392C32.3132 48.7484 31.8328 48.2715 31.2456 48.2715H10.65ZM10.65 53.9658C10.061 53.9658 9.5894 54.4445 9.5894 55.0335C9.5894 55.6225 10.061 56.1011 10.65 56.1011H31.2456C31.8346 56.1011 32.3132 55.6225 32.3132 55.0335C32.3132 54.4445 31.8328 53.9658 31.2456 53.9658H10.65ZM31.2456 59.6601H10.65C10.061 59.6601 9.5894 60.1388 9.5894 60.7278C9.5894 61.3168 10.061 61.7954 10.65 61.7954H31.2456C31.8346 61.7954 32.3132 61.3168 32.3132 60.7278C32.3132 60.1388 31.8346 59.6601 31.2456 59.6601Z" fill="url(#paint0_linear_121_1747)"/>
<defs>
<linearGradient id="paint0_linear_121_1747" x1="45.7465" y1="10.665" x2="45.7465" y2="81.681" gradientUnits="userSpaceOnUse">
<stop stop-color="#9C12C0"/>
<stop offset="1" stop-color="#7123C2"/>
</linearGradient>
</defs>
</svg>
