<svg width="74" height="73" viewBox="0 0 74 73" fill="none" xmlns="http://www.w3.org/2000/svg">
<g clip-path="url(#clip0_121_1742)">
<path fill-rule="evenodd" clip-rule="evenodd" d="M44.684 28.9528C52.8468 28.9528 59.4641 35.4922 59.4641 43.559C59.4641 51.6257 52.8469 58.1651 44.684 58.1651C36.5213 58.1651 29.904 51.6257 29.904 43.559C29.904 35.4922 36.5213 28.9528 44.684 28.9528ZM55.9411 56.2463L58.8184 59.0335L58.6635 59.1912C58.149 59.7152 58.1618 60.5603 58.6922 61.0688L66.8088 68.852C67.3391 69.3605 68.194 69.3481 68.7087 68.824L71.6391 65.8395C72.1538 65.3154 72.1407 64.4705 71.6105 63.9619L63.494 56.1785C62.9638 55.6699 62.1086 55.6826 61.594 56.2066L61.4148 56.3891L58.4611 53.5281C57.7234 54.5218 56.8784 55.4332 55.9411 56.2463ZM14.7083 1.77056C6.95464 2.34996 0.845703 8.75075 0.845703 16.5616C0.845703 24.7541 7.56606 31.3955 15.8562 31.3955C18.1846 31.3955 20.3893 30.8717 22.3559 29.9365L14.9048 17.1968C14.7764 17.0094 14.7079 16.7881 14.7083 16.5618V1.77056ZM49.4628 59.763V70.6436C49.4628 71.4246 48.8183 72.0616 48.0279 72.0616H43.2613C42.471 72.0616 41.8264 71.4246 41.8264 70.6436V60.1972C42.7707 60.3546 43.7266 60.4338 44.6842 60.4338C46.3429 60.4338 47.9463 60.1991 49.4628 59.763ZM49.8098 8.35428C49.5053 8.35428 49.2134 8.23476 48.9981 8.02201C48.7828 7.80927 48.6619 7.52073 48.6619 7.21986C48.6619 6.919 48.7828 6.63045 48.9981 6.41771C49.2134 6.20497 49.5053 6.08545 49.8098 6.08545H60.9135C61.2179 6.08545 61.5099 6.20497 61.7252 6.41771C61.9404 6.63045 62.0614 6.919 62.0614 7.21986C62.0614 7.52073 61.9404 7.80927 61.7252 8.02201C61.5099 8.23476 61.2179 8.35428 60.9135 8.35428H49.8098ZM39.5904 24.7687H43.4618C44.3514 24.7687 45.0771 25.4858 45.0771 26.365V26.6888C44.9463 26.686 44.8155 26.6839 44.684 26.6839C42.3024 26.6839 40.0348 27.1664 37.9752 28.0371V26.365C37.9752 25.4858 38.7008 24.7687 39.5904 24.7687ZM54.1575 29.5183C55.155 30.1773 56.0797 30.9377 56.9167 31.7872H60.9135C61.2179 31.7872 61.5099 31.6677 61.7252 31.4549C61.9404 31.2422 62.0614 30.9536 62.0614 30.6528C62.0614 30.3519 61.9404 30.0633 61.7252 29.8506C61.5099 29.6379 61.2179 29.5183 60.9135 29.5183H54.1575ZM49.8098 27.0375C49.5053 27.0375 49.2134 26.918 48.9981 26.7053C48.7828 26.4925 48.6619 26.204 48.6619 25.9031C48.6619 25.6022 48.7828 25.3137 48.9981 25.101C49.2134 24.8882 49.5053 24.7687 49.8098 24.7687H72.017C72.3215 24.7687 72.6134 24.8882 72.8287 25.101C73.044 25.3137 73.1649 25.6022 73.1649 25.9031C73.1649 26.204 73.044 26.4925 72.8287 26.7053C72.6134 26.918 72.3215 27.0375 72.017 27.0375H49.8098ZM39.5904 13.0523H43.4618C44.3514 13.0523 45.0771 13.7694 45.0771 14.6486V18.4744C45.0771 19.3536 44.3514 20.0707 43.4618 20.0707H39.5904C38.7008 20.0707 37.9752 19.3536 37.9752 18.4744V14.6486C37.9752 13.7694 38.7008 13.0523 39.5904 13.0523ZM49.8098 20.0708C49.5053 20.0708 49.2134 19.9513 48.9981 19.7385C48.7828 19.5258 48.6619 19.2372 48.6619 18.9364C48.6619 18.6355 48.7828 18.347 48.9981 18.1342C49.2134 17.9215 49.5053 17.802 49.8098 17.802H60.9135C61.2179 17.802 61.5099 17.9215 61.7252 18.1342C61.9404 18.347 62.0614 18.6355 62.0614 18.9364C62.0614 19.2372 61.9404 19.5258 61.7252 19.7385C61.5099 19.9513 61.2179 20.0708 60.9135 20.0708H49.8098ZM49.8098 15.3211C49.5053 15.3211 49.2134 15.2016 48.9981 14.9889C48.7828 14.7761 48.6619 14.4876 48.6619 14.1867C48.6619 13.8859 48.7828 13.5973 48.9981 13.3846C49.2134 13.1718 49.5053 13.0523 49.8098 13.0523H72.017C72.3215 13.0523 72.6134 13.1718 72.8287 13.3846C73.044 13.5973 73.1649 13.8859 73.1649 14.1867C73.1649 14.4876 73.044 14.7761 72.8287 14.9889C72.6134 15.2016 72.3215 15.3211 72.017 15.3211H49.8098ZM39.5904 1.33594H43.4618C44.3514 1.33594 45.0771 2.05303 45.0771 2.9322V6.75801C45.0771 7.63718 44.3514 8.35428 43.4618 8.35428H39.5904C38.7008 8.35428 37.9752 7.63718 37.9752 6.75801V2.9322C37.9752 2.05303 38.7008 1.33594 39.5904 1.33594ZM49.8098 3.60477C49.5053 3.60477 49.2134 3.48525 48.9981 3.2725C48.7828 3.05976 48.6619 2.77122 48.6619 2.47035C48.6619 2.16949 48.7828 1.88094 48.9981 1.6682C49.2134 1.45546 49.5053 1.33594 49.8098 1.33594H72.017C72.3215 1.33594 72.6134 1.45546 72.8287 1.6682C73.044 1.88094 73.1649 2.16949 73.1649 2.47035C73.1649 2.77122 73.044 3.05976 72.8287 3.2725C72.6134 3.48525 72.3215 3.60477 72.017 3.60477H49.8098ZM35.6037 57.8509C32.6419 56.0093 30.2929 53.2937 28.9268 50.0704C28.3689 50.2649 27.9672 50.7916 27.9672 51.408V70.6436C27.9672 71.4246 28.6117 72.0616 29.4021 72.0616H34.1687C34.959 72.0616 35.6036 71.4246 35.6036 70.6436L35.6037 57.8509ZM15.5431 39.5388H20.3097C21.1 39.5388 21.7446 40.1757 21.7446 40.9568V70.6436C21.7446 71.4246 21.1 72.0616 20.3097 72.0616H15.5431C14.7528 72.0616 14.1082 71.4246 14.1082 70.6436V40.9568C14.1082 40.1757 14.7528 39.5388 15.5431 39.5388ZM2.28089 46.1615H7.04748C7.83783 46.1615 8.48238 46.7984 8.48238 47.5793V70.6436C8.48238 71.4246 7.83783 72.0616 7.04748 72.0616H2.28089C1.49055 72.0616 0.84599 71.4246 0.84599 70.6436V47.5793C0.84599 46.7984 1.49055 46.1615 2.28089 46.1615ZM24.3375 28.8012L17.8424 17.696H30.8231C30.4701 22.307 27.984 26.3288 24.3375 28.8012ZM30.8229 15.4272H17.0041V1.77056C24.3789 2.3216 30.2652 8.13916 30.8229 15.4272ZM44.684 34.0578C42.0292 34.0578 39.6256 35.1212 37.8859 36.8404C36.1462 38.5596 35.0702 40.9349 35.0702 43.5586C35.0702 45.9764 35.9841 48.1833 37.489 49.8602C38.4229 46.808 41.2912 44.5842 44.6842 44.5842C48.0779 44.5842 50.9459 46.8074 51.8791 49.8604C53.384 48.1834 54.298 45.9766 54.298 43.5587C54.298 40.9351 53.222 38.5598 51.4823 36.8406C49.7425 35.1212 47.3389 34.0578 44.684 34.0578ZM44.684 36.5129C42.5855 36.5129 40.8843 38.1941 40.8843 40.2679C40.8843 42.3418 42.5855 44.023 44.684 44.023C46.7826 44.023 48.4838 42.3418 48.4838 40.2679C48.4838 38.1941 46.7826 36.5129 44.684 36.5129ZM36.2628 35.2364C34.1074 37.3662 32.7744 40.3086 32.7744 43.5586C32.7744 46.8085 34.1074 49.7509 36.2628 51.8808C38.418 54.0106 41.3954 55.328 44.684 55.328C47.9727 55.328 50.9501 54.0105 53.1053 51.8808C55.2607 49.7509 56.5937 46.8085 56.5937 43.5586C56.5937 40.3086 55.2607 37.3662 53.1053 35.2364C50.9501 33.1065 47.9727 31.789 44.684 31.789C41.3954 31.789 38.4178 33.1065 36.2628 35.2364Z" fill="url(#paint0_linear_121_1742)"/>
</g>
<defs>
<linearGradient id="paint0_linear_121_1742" x1="37.0053" y1="1.33594" x2="37.0053" y2="72.0616" gradientUnits="userSpaceOnUse">
<stop stop-color="#9C12C0"/>
<stop offset="1" stop-color="#7123C2"/>
</linearGradient>
<clipPath id="clip0_121_1742">
<rect width="73.4669" height="72.6025" fill="white" transform="translate(0.271973 0.397461)"/>
</clipPath>
</defs>
</svg>
