<svg width="81" height="80" viewBox="0 0 81 80" fill="none" xmlns="http://www.w3.org/2000/svg">
<path d="M72.6531 43.679H60.3842V18.9166C60.3828 18.4975 60.221 18.0947 59.932 17.7911V17.7845L59.9254 17.7812L59.9221 17.7779L59.899 17.7548L46.8048 4.66066C46.5404 4.3521 46.1689 4.15514 45.7651 4.10943C45.6958 4.10283 45.6298 4.06982 45.5638 4.06982H8.4368C6.13947 4.06982 4.27124 5.93806 4.27124 8.23869V72.5177C4.27124 74.8183 6.13947 76.6866 8.4401 76.6866H72.6531C74.99 76.6866 76.888 74.7886 76.888 72.4517V47.9138C76.888 45.5769 74.99 43.679 72.6531 43.679ZM58.7338 46.9797H62.0346V53.5812H58.7338V46.9797ZM47.1811 9.70422L54.7498 17.2729H47.1811V9.70422ZM7.572 72.5177V8.23869C7.572 7.76008 7.96149 7.37059 8.4401 7.37059H43.8804V18.9233C43.8804 19.361 44.0543 19.7807 44.3638 20.0902C44.6733 20.3998 45.093 20.5736 45.5308 20.5736H57.0834V43.679H48.1152C45.7783 43.679 43.8804 45.5769 43.8804 47.9138V72.4517C43.8804 72.7818 43.9959 73.0788 44.0685 73.3858H8.4401C8.3261 73.3858 8.21322 73.3634 8.10789 73.3197C8.00257 73.2761 7.90687 73.2122 7.82626 73.1316C7.74565 73.0509 7.68171 72.9552 7.63808 72.8499C7.59446 72.7446 7.572 72.6317 7.572 72.5177ZM73.5872 72.4517C73.5872 72.5744 73.5631 72.6958 73.5161 72.8092C73.4692 72.9225 73.4004 73.0255 73.3136 73.1122C73.2269 73.199 73.1239 73.2678 73.0106 73.3147C72.8973 73.3616 72.7758 73.3858 72.6531 73.3858H48.1152C47.9926 73.3858 47.8711 73.3616 47.7578 73.3147C47.6445 73.2678 47.5415 73.199 47.4547 73.1122C47.368 73.0255 47.2992 72.9225 47.2522 72.8092C47.2053 72.6958 47.1811 72.5744 47.1811 72.4517V47.9138C47.1811 47.3989 47.6003 46.9797 48.1152 46.9797H55.433V55.2316C55.433 55.6693 55.6069 56.0891 55.9164 56.3986C56.2259 56.7081 56.6457 56.882 57.0834 56.882H63.6849C64.1227 56.882 64.5424 56.7081 64.8519 56.3986C65.1614 56.0891 65.3353 55.6693 65.3353 55.2316V46.9797H72.6531C73.168 46.9797 73.5872 47.3989 73.5872 47.9138V72.4517Z" fill="url(#paint0_linear_121_1751)"/>
<path d="M52.1321 63.4836H55.4328C55.8705 63.4836 56.2903 63.3097 56.5998 63.0002C56.9093 62.6907 57.0832 62.2709 57.0832 61.8332C57.0832 61.3955 56.9093 60.9757 56.5998 60.6662C56.2903 60.3567 55.8705 60.1828 55.4328 60.1828H52.1321C51.6944 60.1828 51.2746 60.3567 50.9651 60.6662C50.6556 60.9757 50.4817 61.3955 50.4817 61.8332C50.4817 62.2709 50.6556 62.6907 50.9651 63.0002C51.2746 63.3097 51.6944 63.4836 52.1321 63.4836ZM58.7336 66.7844H52.1321C51.6944 66.7844 51.2746 66.9582 50.9651 67.2677C50.6556 67.5773 50.4817 67.997 50.4817 68.4347C50.4817 68.8725 50.6556 69.2922 50.9651 69.6017C51.2746 69.9112 51.6944 70.0851 52.1321 70.0851H58.7336C59.1713 70.0851 59.5911 69.9112 59.9006 69.6017C60.2101 69.2922 60.384 68.8725 60.384 68.4347C60.384 67.997 60.2101 67.5773 59.9006 67.2677C59.5911 66.9582 59.1713 66.7844 58.7336 66.7844ZM19.1245 56.8821H12.5229C12.0852 56.8821 11.6655 57.056 11.3559 57.3655C11.0464 57.675 10.8726 58.0948 10.8726 58.5325V65.134C10.8726 65.5717 11.0464 65.9915 11.3559 66.301C11.6655 66.6105 12.0852 66.7844 12.5229 66.7844H19.1245C19.5622 66.7844 19.9819 66.6105 20.2915 66.301C20.601 65.9915 20.7748 65.5717 20.7748 65.134V58.5325C20.7748 58.0948 20.601 57.675 20.2915 57.3655C19.9819 57.056 19.5622 56.8821 19.1245 56.8821ZM17.4741 63.4836H14.1733V60.1828H17.4741V63.4836ZM19.1245 43.679H12.5229C12.0852 43.679 11.6655 43.8529 11.3559 44.1624C11.0464 44.4719 10.8726 44.8917 10.8726 45.3294V51.9309C10.8726 52.3686 11.0464 52.7884 11.3559 53.0979C11.6655 53.4074 12.0852 53.5813 12.5229 53.5813H19.1245C19.5622 53.5813 19.9819 53.4074 20.2915 53.0979C20.601 52.7884 20.7748 52.3686 20.7748 51.9309V45.3294C20.7748 44.8917 20.601 44.4719 20.2915 44.1624C19.9819 43.8529 19.5622 43.679 19.1245 43.679ZM17.4741 50.2806H14.1733V46.9798H17.4741V50.2806ZM19.1245 30.476H12.5229C12.0852 30.476 11.6655 30.6499 11.3559 30.9594C11.0464 31.2689 10.8726 31.6887 10.8726 32.1264V38.7279C10.8726 39.1656 11.0464 39.5854 11.3559 39.8949C11.6655 40.2044 12.0852 40.3783 12.5229 40.3783H19.1245C19.5622 40.3783 19.9819 40.2044 20.2915 39.8949C20.601 39.5854 20.7748 39.1656 20.7748 38.7279V32.1264C20.7748 31.6887 20.601 31.2689 20.2915 30.9594C19.9819 30.6499 19.5622 30.476 19.1245 30.476ZM17.4741 37.0775H14.1733V33.7768H17.4741V37.0775ZM19.1245 17.2729H12.5229C12.0852 17.2729 11.6655 17.4468 11.3559 17.7563C11.0464 18.0658 10.8726 18.4856 10.8726 18.9233V25.5249C10.8726 25.9626 11.0464 26.3823 11.3559 26.6918C11.6655 27.0014 12.0852 27.1752 12.5229 27.1752H19.1245C19.5622 27.1752 19.9819 27.0014 20.2915 26.6918C20.601 26.3823 20.7748 25.9626 20.7748 25.5249V18.9233C20.7748 18.4856 20.601 18.0658 20.2915 17.7563C19.9819 17.4468 19.5622 17.2729 19.1245 17.2729ZM17.4741 23.8745H14.1733V20.5737H17.4741V23.8745ZM25.726 33.7768H35.6283C36.066 33.7768 36.4858 33.6029 36.7953 33.2934C37.1048 32.9839 37.2786 32.5641 37.2786 32.1264C37.2786 31.6887 37.1048 31.2689 36.7953 30.9594C36.4858 30.6499 36.066 30.476 35.6283 30.476H25.726C25.2883 30.476 24.8685 30.6499 24.559 30.9594C24.2495 31.2689 24.0756 31.6887 24.0756 32.1264C24.0756 32.5641 24.2495 32.9839 24.559 33.2934C24.8685 33.6029 25.2883 33.7768 25.726 33.7768ZM25.726 40.3783H52.1321C52.5698 40.3783 52.9896 40.2044 53.2991 39.8949C53.6086 39.5854 53.7825 39.1656 53.7825 38.7279C53.7825 38.2902 53.6086 37.8704 53.2991 37.5609C52.9896 37.2514 52.5698 37.0775 52.1321 37.0775H25.726C25.2883 37.0775 24.8685 37.2514 24.559 37.5609C24.2495 37.8704 24.0756 38.2902 24.0756 38.7279C24.0756 39.1656 24.2495 39.5854 24.559 39.8949C24.8685 40.2044 25.2883 40.3783 25.726 40.3783ZM25.726 20.5737H35.6283C36.066 20.5737 36.4858 20.3998 36.7953 20.0903C37.1048 19.7808 37.2786 19.361 37.2786 18.9233C37.2786 18.4856 37.1048 18.0658 36.7953 17.7563C36.4858 17.4468 36.066 17.2729 35.6283 17.2729H25.726C25.2883 17.2729 24.8685 17.4468 24.559 17.7563C24.2495 18.0658 24.0756 18.4856 24.0756 18.9233C24.0756 19.361 24.2495 19.7808 24.559 20.0903C24.8685 20.3998 25.2883 20.5737 25.726 20.5737ZM25.726 27.1752H52.1321C52.5698 27.1752 52.9896 27.0014 53.2991 26.6918C53.6086 26.3823 53.7825 25.9626 53.7825 25.5249C53.7825 25.0871 53.6086 24.6674 53.2991 24.3579C52.9896 24.0484 52.5698 23.8745 52.1321 23.8745H25.726C25.2883 23.8745 24.8685 24.0484 24.559 24.3579C24.2495 24.6674 24.0756 25.0871 24.0756 25.5249C24.0756 25.9626 24.2495 26.3823 24.559 26.6918C24.8685 27.0014 25.2883 27.1752 25.726 27.1752ZM25.726 60.1828H35.6283C36.066 60.1828 36.4858 60.009 36.7953 59.6995C37.1048 59.3899 37.2786 58.9702 37.2786 58.5325C37.2786 58.0948 37.1048 57.675 36.7953 57.3655C36.4858 57.056 36.066 56.8821 35.6283 56.8821H25.726C25.2883 56.8821 24.8685 57.056 24.559 57.3655C24.2495 57.675 24.0756 58.0948 24.0756 58.5325C24.0756 58.9702 24.2495 59.3899 24.559 59.6995C24.8685 60.009 25.2883 60.1828 25.726 60.1828ZM38.929 63.4836H25.726C25.2883 63.4836 24.8685 63.6575 24.559 63.967C24.2495 64.2765 24.0756 64.6963 24.0756 65.134C24.0756 65.5717 24.2495 65.9915 24.559 66.301C24.8685 66.6105 25.2883 66.7844 25.726 66.7844H38.929C39.3667 66.7844 39.7865 66.6105 40.096 66.301C40.4055 65.9915 40.5794 65.5717 40.5794 65.134C40.5794 64.6963 40.4055 64.2765 40.096 63.967C39.7865 63.6575 39.3667 63.4836 38.929 63.4836ZM25.726 46.9798H35.6283C36.066 46.9798 36.4858 46.8059 36.7953 46.4964C37.1048 46.1869 37.2786 45.7671 37.2786 45.3294C37.2786 44.8917 37.1048 44.4719 36.7953 44.1624C36.4858 43.8529 36.066 43.679 35.6283 43.679H25.726C25.2883 43.679 24.8685 43.8529 24.559 44.1624C24.2495 44.4719 24.0756 44.8917 24.0756 45.3294C24.0756 45.7671 24.2495 46.1869 24.559 46.4964C24.8685 46.8059 25.2883 46.9798 25.726 46.9798ZM38.929 50.2806H25.726C25.2883 50.2806 24.8685 50.4544 24.559 50.7639C24.2495 51.0734 24.0756 51.4932 24.0756 51.9309C24.0756 52.3686 24.2495 52.7884 24.559 53.0979C24.8685 53.4074 25.2883 53.5813 25.726 53.5813H38.929C39.3667 53.5813 39.7865 53.4074 40.096 53.0979C40.4055 52.7884 40.5794 52.3686 40.5794 51.9309C40.5794 51.4932 40.4055 51.0734 40.096 50.7639C39.7865 50.4544 39.3667 50.2806 38.929 50.2806Z" fill="url(#paint1_linear_121_1751)"/>
<defs>
<linearGradient id="paint0_linear_121_1751" x1="40.5796" y1="4.06982" x2="40.5796" y2="76.6866" gradientUnits="userSpaceOnUse">
<stop stop-color="#9C12C0"/>
<stop offset="1" stop-color="#7123C2"/>
</linearGradient>
<linearGradient id="paint1_linear_121_1751" x1="35.6283" y1="17.2729" x2="35.6283" y2="70.0851" gradientUnits="userSpaceOnUse">
<stop stop-color="#9C12C0"/>
<stop offset="1" stop-color="#7123C2"/>
</linearGradient>
</defs>
</svg>
