<svg width="74" height="73" viewBox="0 0 74 73" fill="none" xmlns="http://www.w3.org/2000/svg">
<path d="M17.1596 42.9911C17.2264 43.0241 17.2932 43.0461 17.36 43.0461C17.4268 43.0461 17.5047 43.0241 17.5603 42.9911L21.3784 40.813C21.5008 40.736 21.5788 40.604 21.5788 40.461L21.5565 33.6188C21.5565 33.4758 21.4786 33.3438 21.3561 33.2778C21.2953 33.2427 21.2262 33.2242 21.1558 33.2242C21.0853 33.2242 21.0162 33.2427 20.9554 33.2778L17.1373 35.4558C17.0149 35.5329 16.937 35.6649 16.937 35.8079L16.9592 42.6501C16.9592 42.7821 17.0372 42.9141 17.1596 42.9911ZM25.0295 38.503C25.0963 38.536 25.163 38.558 25.2298 38.558C25.2966 38.558 25.3745 38.536 25.4302 38.503L29.2482 36.3249C29.3707 36.2479 29.4486 36.1159 29.4486 35.9729L29.4041 22.2444C29.4041 22.1014 29.3262 21.9694 29.2037 21.9034C29.1429 21.8683 29.0738 21.8498 29.0034 21.8498C28.9329 21.8498 28.8638 21.8683 28.803 21.9034L24.9849 24.0814C24.8625 24.1585 24.7846 24.2905 24.7846 24.4335L24.8291 38.1619C24.8291 38.2939 24.907 38.426 25.0295 38.503ZM32.8993 34.0148C32.9661 34.0478 33.0329 34.0698 33.0997 34.0698C33.1665 34.0698 33.2444 34.0478 33.3001 34.0148L37.1181 31.8367C37.2405 31.7597 37.3185 31.6277 37.3185 31.4847L37.2851 22.6734C37.2851 22.5304 37.2072 22.3984 37.0847 22.3324C36.9623 22.2664 36.8064 22.2664 36.684 22.3324L32.8659 24.5105C32.7435 24.5875 32.6656 24.7195 32.6656 24.8625L32.699 33.6738C32.699 33.8058 32.7769 33.9378 32.8993 34.0148ZM40.7692 29.5156C40.836 29.5486 40.9028 29.5706 40.9695 29.5706C41.0363 29.5706 41.1143 29.5486 41.1699 29.5156L44.988 27.3376C45.1104 27.2606 45.1883 27.1286 45.1883 26.9855L45.1438 10.65C45.1438 10.507 45.0659 10.375 44.9434 10.298C44.8818 10.2655 44.813 10.2485 44.7431 10.2485C44.6732 10.2485 44.6044 10.2655 44.5427 10.298L40.7247 12.476C40.6022 12.553 40.5243 12.685 40.5243 12.8281L40.58 29.1636C40.5688 29.3176 40.6467 29.4496 40.7692 29.5156ZM17.5381 48.2933L26.2762 43.3211C26.4654 43.2111 26.5322 42.9691 26.4209 42.7711C26.3655 42.68 26.2762 42.614 26.1721 42.5873C26.0681 42.5606 25.9576 42.5752 25.8643 42.6281L17.1262 47.6003C16.937 47.7103 16.8702 47.9523 16.9815 48.1503C17.0594 48.2823 17.193 48.3483 17.3377 48.3483C17.4045 48.3483 17.4824 48.3263 17.5381 48.2933ZM44.5872 31.9687L29.226 40.714C29.0367 40.824 28.97 41.066 29.0813 41.2641C29.1592 41.3961 29.2928 41.4621 29.4375 41.4621C29.5043 41.4621 29.5711 41.4401 29.6378 41.4071L44.9991 32.6617C45.1883 32.5517 45.2551 32.3097 45.1438 32.1117C45.1173 32.0656 45.0818 32.0253 45.0392 31.993C44.9967 31.9607 44.948 31.9372 44.8961 31.9239C44.8442 31.9106 44.7901 31.9077 44.7371 31.9154C44.684 31.9231 44.6331 31.9412 44.5872 31.9687ZM38.5095 41.3741C38.4542 41.283 38.3648 41.217 38.2608 41.1902C38.1567 41.1635 38.0462 41.1782 37.953 41.231L17.1373 53.0895C16.9481 53.1995 16.8813 53.4415 16.9926 53.6395C17.0706 53.7715 17.2041 53.8375 17.3488 53.8375C17.4156 53.8375 17.4824 53.8155 17.5492 53.7825L38.3648 41.9241C38.554 41.8031 38.6208 41.5611 38.5095 41.3741ZM44.5872 37.4469L41.4705 39.218C41.2812 39.328 41.2144 39.57 41.3258 39.768C41.4037 39.9 41.5372 39.966 41.682 39.966C41.7487 39.966 41.8155 39.944 41.8823 39.911L44.9991 38.1399C45.1883 38.0299 45.2551 37.7879 45.1438 37.5899C45.0884 37.4988 44.9991 37.4328 44.8951 37.4061C44.791 37.3794 44.6805 37.394 44.5872 37.4469ZM22.9924 55.2345L17.1373 58.5677C16.9481 58.6777 16.8813 58.9197 16.9926 59.1177C17.0706 59.2497 17.2041 59.3157 17.3488 59.3157C17.4156 59.3157 17.4824 59.2937 17.5492 59.2607L23.4043 55.9276C23.5935 55.8176 23.6603 55.5756 23.549 55.3775C23.4927 55.2875 23.4034 55.2225 23.2997 55.1958C23.1961 55.1692 23.086 55.1831 22.9924 55.2345ZM44.5872 42.9251L26.9107 52.9905C26.7214 53.1005 26.6546 53.3425 26.766 53.5405C26.8439 53.6725 26.9775 53.7385 27.1222 53.7385C27.1889 53.7385 27.2557 53.7165 27.3225 53.6835L44.9991 43.6181C45.1883 43.5081 45.2551 43.2661 45.1438 43.0681C45.0884 42.977 44.9991 42.911 44.8951 42.8843C44.791 42.8576 44.6805 42.8722 44.5872 42.9251ZM37.8862 52.6935C37.8308 52.6024 37.7415 52.5364 37.6374 52.5096C37.5334 52.4829 37.4228 52.4976 37.3296 52.5504L17.1373 64.0459C16.9481 64.1559 16.8813 64.3979 16.9926 64.5959C17.0706 64.7279 17.2041 64.7939 17.3488 64.7939C17.4156 64.7939 17.4824 64.7719 17.5492 64.7389L37.7526 53.2435C37.9418 53.1335 37.9975 52.8805 37.8862 52.6935ZM57.7222 51.8794C57.7 51.8024 57.6777 51.7254 57.6554 51.6594C57.5308 51.2547 57.3348 50.8748 57.0766 50.5374C57.0421 50.4815 57.001 50.4298 56.9542 50.3834C56.8985 50.3174 56.8428 50.2514 56.7872 50.1964L56.7315 50.1414C56.6536 50.0754 56.5868 50.0094 56.5089 49.9544C56.4199 49.8774 56.3308 49.8224 56.2084 49.7453C56.1972 49.7343 56.175 49.7234 56.1638 49.7123C55.4403 49.2943 54.5387 49.1953 53.5814 49.4153C53.548 49.4263 53.5146 49.4483 53.4812 49.4593C53.4478 49.4593 53.4144 49.4593 53.381 49.4703C52.9135 49.6023 52.4348 49.8004 51.9451 50.0864C48.8839 51.8354 46.4016 56.0926 46.4016 59.5687C46.4016 60.1737 46.4796 60.7347 46.6243 61.2298C46.8914 62.1318 47.4035 62.8358 48.0825 63.2538C48.1827 63.3198 48.2828 63.3638 48.383 63.4078C48.4943 63.4628 48.6168 63.5068 48.717 63.5398C48.8283 63.5728 48.9396 63.6058 49.0509 63.6278C49.1622 63.6498 49.2735 63.6718 49.4071 63.6828C49.5184 63.6938 49.6409 63.7048 49.7633 63.7048C50.5982 63.7048 51.4664 63.4408 52.368 62.9238C52.9246 62.6048 53.4812 62.1868 54.0377 61.6808L54.2826 61.4388C54.4496 61.2738 54.6166 61.1087 54.7724 60.9217C55.585 60.0087 56.3085 58.9197 56.8428 57.7646C56.9208 57.6106 56.9876 57.4456 57.0432 57.3026C57.1657 57.0386 57.2658 56.7746 57.3438 56.5326C57.3994 56.3676 57.4551 56.2026 57.5107 56.0046L57.533 55.9276C57.5441 55.8726 57.5664 55.8176 57.5775 55.7626C57.5998 55.7076 57.6109 55.6526 57.622 55.5976L57.6443 55.5206C57.6554 55.4876 57.6554 55.4876 57.6554 55.4436L57.6777 55.3775C57.7222 55.2015 57.7556 55.0255 57.7779 54.8605L57.789 54.7505C57.8224 54.5855 57.8447 54.4095 57.8558 54.2445C57.8781 54.1125 57.8781 53.9805 57.8892 53.8265C57.9003 53.6945 57.9003 53.5735 57.9003 53.4415C57.8892 53.0345 57.8558 52.6495 57.8001 52.2754C57.789 52.1544 57.7667 52.0444 57.7222 51.8794ZM52.3569 50.7684C52.702 50.5704 53.0359 50.4274 53.3699 50.3174C53.4367 50.6364 53.4812 50.9774 53.4812 51.3624C53.4812 54.5855 51.1881 58.5237 48.3496 60.1407C48.0288 60.3285 47.6894 60.4833 47.3367 60.6027C47.2699 60.2727 47.2254 59.9317 47.2254 59.5467C47.2142 56.3236 49.5184 52.3854 52.3569 50.7684Z" fill="url(#paint0_linear_121_1737)"/>
<path d="M63.6218 52.0331C64.0003 51.7141 64.2563 51.2081 64.2452 50.7571V48.92C64.2452 48.623 64.1339 48.37 63.9224 48.216C63.9112 48.205 63.9001 48.205 63.889 48.194C63.8778 48.194 63.8778 48.183 63.8667 48.172L63.8556 48.161L60.3937 46.1809L61.4289 43.7168C61.6738 43.1448 61.5625 42.6168 61.1729 42.3858L57.533 40.2957L56.3864 39.6467C56.3753 39.6357 56.3642 39.6357 56.3419 39.6357C56.1082 39.5147 55.8076 39.5367 55.5405 39.6907C55.3735 39.7897 55.2177 39.9217 55.0841 40.0977L53.4032 42.2758L49.9637 40.2957C49.7188 40.1527 49.4071 40.1637 49.1065 40.3397L48.55 40.6587L48.4609 6.38152C48.4609 5.38048 48.0936 4.62146 47.4368 4.23644H47.4257L44.0529 2.30037C43.385 1.90436 42.5279 1.97036 41.6374 2.48738L13.208 18.669C11.5271 19.626 10.1691 21.9471 10.1802 23.8501L10.3027 67.0156C10.3027 68.0167 10.67 68.7757 11.3268 69.1497L14.6996 71.0968C14.989 71.2618 15.3007 71.3388 15.6457 71.3388C16.1021 71.3388 16.6142 71.1958 17.1262 70.8988L36.4836 59.8764C36.4613 59.9644 36.4502 60.0524 36.4502 60.1404V61.9775C36.4502 62.3185 36.5949 62.5935 36.8287 62.7255L40.2905 64.7166L39.2553 67.1806C39.0216 67.7527 39.1329 68.2917 39.5225 68.5117L43.1068 70.5688C43.1179 70.5688 43.1179 70.5798 43.129 70.5798C43.1401 70.5908 43.1513 70.5908 43.1624 70.6018L44.3089 71.2508C44.4202 71.3168 44.5427 71.3498 44.6763 71.3498C44.8321 71.3498 44.9991 71.3058 45.1549 71.2178C45.3219 71.1298 45.4777 70.9868 45.6113 70.8108L47.2921 68.6327L50.7206 70.5908C50.754 70.6128 50.7762 70.6348 50.8096 70.6458C50.8987 70.6898 50.9989 70.7008 51.1102 70.7008C51.266 70.7008 51.433 70.6568 51.5888 70.5578L53.214 69.6337C53.6147 69.4027 53.9375 68.9297 54.0266 68.4567L54.4941 65.7616C55.5071 64.9256 56.4532 63.9355 57.3326 62.8135L59.0357 63.0775C59.2249 63.1105 59.4364 63.0665 59.6368 62.9455C59.8706 62.8135 60.0709 62.5935 60.2268 62.3405L61.3733 60.3824C61.6738 59.8764 61.6961 59.3154 61.4178 58.9964L60.3269 57.6763C60.8724 56.3673 61.262 55.0692 61.4846 53.7932L63.6218 52.0331ZM16.7255 70.2168C16.091 70.5798 15.5233 70.6458 15.1226 70.4148C14.9445 70.3158 14.8109 70.1508 14.6996 69.9417C14.6884 69.9088 14.6662 69.8978 14.655 69.8647V69.8537C14.5549 69.6117 14.4992 69.3147 14.4992 68.9627L14.3768 25.7862C14.3656 24.1471 15.5456 22.1341 17.0038 21.309L45.4109 5.12747H45.4221C46.0454 4.76446 46.6131 4.69846 47.025 4.92947C47.4257 5.16048 47.6483 5.67749 47.6483 6.38152L47.7485 41.0657C47.7485 41.0877 47.7597 41.0987 47.7597 41.1207L47.4925 41.2747C47.0918 41.4948 46.769 41.9788 46.6799 42.4628L46.2124 45.1579C45.2106 45.9939 44.2533 46.9839 43.385 48.106L41.6708 47.853C41.4612 47.8297 41.2496 47.8761 41.0697 47.985C40.8471 48.117 40.6356 48.326 40.4798 48.59L39.3332 50.5481C39.0327 51.0541 39.0104 51.5931 39.2776 51.9341L40.3684 53.2432C39.8483 54.4947 39.4603 55.796 39.2108 57.1263L37.1181 58.8534C37.0574 58.8191 36.989 58.8002 36.9191 58.7983C36.8492 58.7963 36.7799 58.8115 36.7174 58.8424L16.7255 70.2168ZM60.7165 53.5182C60.4939 54.8492 60.082 56.2243 59.4921 57.5993C59.4364 57.7313 59.4587 57.8963 59.5477 58.0063L60.7833 59.5024C60.8056 59.5354 60.8056 59.7334 60.6609 59.9864L59.5143 61.9445C59.4364 62.0875 59.3251 62.1975 59.2249 62.2635L59.1581 62.2965L57.2102 61.9995C57.1372 61.9878 57.0624 61.996 56.9938 62.0231C56.9251 62.0502 56.8653 62.0953 56.8206 62.1535C55.9189 63.3415 54.9171 64.3756 53.8485 65.2446C53.7706 65.3106 53.7261 65.3876 53.7038 65.4866L53.2029 68.3247C53.1584 68.5667 52.9803 68.8417 52.791 68.9517L51.1658 69.8757C51.1547 69.8757 51.1547 69.8867 51.1436 69.8867L50.7985 68.3577L50.6427 67.6647C50.6315 67.6317 50.6204 67.6097 50.6093 67.5767C50.5981 67.5547 50.5981 67.5327 50.5759 67.5107C50.5536 67.4887 50.5314 67.4667 50.5091 67.4557C50.4868 67.4447 50.4757 67.4227 50.4534 67.4117L50.4423 67.4007C50.42 67.3897 50.3978 67.3897 50.3755 67.3787C50.3533 67.3677 50.331 67.3567 50.2976 67.3567H50.1529C50.1418 67.3567 50.1418 67.3677 50.1306 67.3677H50.1084C49.0954 67.7087 48.1381 67.7967 47.2699 67.6537H47.192C47.1029 67.6537 47.025 67.6867 46.9582 67.7417C46.9471 67.7527 46.9359 67.7637 46.9248 67.7637C46.9137 67.7747 46.8914 67.7857 46.8803 67.7967L46.8691 67.8077V67.8187L44.9546 70.3048C44.8878 70.3928 44.8098 70.4588 44.7431 70.5028C44.7097 70.5248 44.6874 70.5248 44.6874 70.5358L43.5965 69.9307L43.5631 69.8978V69.7767C43.5631 69.7657 43.5631 69.7547 43.5743 69.7437C43.5854 69.6887 43.5965 69.6337 43.6299 69.5677L44.8544 66.6526C44.91 66.5096 44.8878 66.3556 44.7876 66.2456C44.3757 65.7616 44.0418 65.1566 43.808 64.4416C43.7301 64.2215 43.6633 63.9795 43.5965 63.6825C43.5824 63.6276 43.5575 63.576 43.5231 63.5307C43.4887 63.4854 43.4455 63.4473 43.3962 63.4185C43.3475 63.3915 43.2937 63.3747 43.2382 63.369C43.1827 63.3633 43.1266 63.3689 43.0734 63.3855L40.8805 64.0785V62.2195C40.8805 61.9995 41.0252 61.7135 41.2144 61.5595L43.463 59.7004C43.5409 59.6344 43.5854 59.5574 43.6077 59.4584C43.8414 58.1053 44.2533 56.7303 44.8321 55.3772C44.8878 55.2452 44.8655 55.0802 44.7765 54.9702L43.5409 53.4742C43.5186 53.4412 43.5075 53.2432 43.6633 52.9902L44.8098 51.0321C44.8878 50.9001 44.988 50.7901 45.0993 50.7241C45.1438 50.7021 45.1772 50.6911 45.166 50.6911L47.1252 50.9991C47.281 51.0211 47.4257 50.9661 47.5148 50.8451C48.4275 49.646 49.4182 48.601 50.4757 47.754C50.5536 47.688 50.5981 47.611 50.6204 47.512L51.1213 44.6739C51.1658 44.4319 51.3439 44.1568 51.5332 44.0578L53.1584 43.1338C53.1695 43.1338 53.1695 43.1338 53.1806 43.1228L53.6815 45.3339C53.7038 45.4439 53.7817 45.5429 53.8819 45.5979C53.9487 45.6309 54.0155 45.6529 54.0823 45.6529C54.1268 45.6529 54.1713 45.6419 54.2047 45.6309C55.2177 45.3009 56.1749 45.2019 57.0432 45.3449C57.1879 45.3669 57.3437 45.3119 57.4328 45.1909L59.3696 42.6828C59.4253 42.6168 59.4698 42.5618 59.5143 42.5398C59.5255 42.5288 59.5366 42.5178 59.5477 42.5178C59.57 42.5068 59.5923 42.4958 59.6034 42.4848C59.6368 42.4628 59.6479 42.4628 59.6479 42.4518L60.7611 43.0788C60.7722 43.1228 60.7833 43.2438 60.7054 43.4198L59.4698 46.3349V46.3569C59.4587 46.3899 59.4476 46.4339 59.4476 46.4669V46.5109C59.4476 46.5439 59.4587 46.5769 59.4698 46.6099C59.4698 46.6209 59.4698 46.6319 59.481 46.6429C59.4921 46.6759 59.5144 46.7089 59.5477 46.7419C60.1043 47.391 60.505 48.249 60.7388 49.294C60.7388 49.305 60.7388 49.305 60.7499 49.305V49.327C60.7611 49.349 60.7722 49.371 60.7945 49.393C60.8056 49.415 60.8167 49.426 60.8278 49.448C60.8501 49.481 60.8835 49.503 60.9169 49.525C60.928 49.536 60.928 49.547 60.9392 49.547C60.9948 49.58 61.0616 49.591 61.1284 49.591H61.1395C61.1729 49.591 61.2174 49.58 61.2508 49.569H61.262L61.3399 49.547L63.466 48.887V50.7351C63.466 50.9441 63.3213 51.2411 63.132 51.3951L60.8835 53.2542C60.7833 53.3312 60.7277 53.4192 60.7165 53.5182Z" fill="url(#paint1_linear_121_1737)"/>
<defs>
<linearGradient id="paint0_linear_121_1737" x1="37.4139" y1="10.2485" x2="37.4139" y2="64.7939" gradientUnits="userSpaceOnUse">
<stop stop-color="#9C12C0"/>
<stop offset="1" stop-color="#7123C2"/>
</linearGradient>
<linearGradient id="paint1_linear_121_1737" x1="37.2128" y1="2.04492" x2="37.2128" y2="71.3498" gradientUnits="userSpaceOnUse">
<stop stop-color="#9C12C0"/>
<stop offset="1" stop-color="#7123C2"/>
</linearGradient>
</defs>
</svg>
