<svg width="1011" height="1030" viewBox="0 0 1011 1030" fill="none" xmlns="http://www.w3.org/2000/svg">
<rect x="0.799316" y="547.931" width="636.133" height="636.133" rx="318.066" transform="rotate(-40.8588 0.799316 547.931)" fill="url(#paint0_linear_264_2)" fill-opacity="0.29"/>
<g filter="url(#filter0_d_264_2)">
<rect x="107.059" y="552.628" width="1057.31" height="484.7" rx="242.35" transform="rotate(-40.8588 107.059 552.628)" fill="#F7F0FD"/>
</g>
<path d="M197.778 367.978L193.374 352.574H195.576L198.992 364.83L202.397 352.574H204.6L208.005 364.83L211.421 352.574H213.623L209.219 367.978H206.802L203.504 356.43L200.195 367.978H197.778ZM225.063 363.337H217.49V365.862H225.063V367.978H217.49C217.204 367.978 216.932 367.924 216.674 367.817C216.416 367.702 216.19 367.552 215.997 367.366C215.811 367.172 215.66 366.947 215.546 366.689C215.438 366.431 215.385 366.155 215.385 365.862V358.654C215.385 358.36 215.438 358.084 215.546 357.827C215.66 357.569 215.811 357.347 215.997 357.161C216.19 356.967 216.416 356.817 216.674 356.709C216.932 356.595 217.204 356.537 217.49 356.537H222.947C223.241 356.537 223.517 356.595 223.774 356.709C224.032 356.817 224.254 356.967 224.44 357.161C224.634 357.347 224.784 357.569 224.892 357.827C225.006 358.084 225.063 358.36 225.063 358.654V363.337ZM217.49 358.654V361.221H222.947V358.654H217.49ZM238.717 365.862C238.717 366.155 238.66 366.431 238.545 366.689C238.438 366.947 238.287 367.172 238.094 367.366C237.908 367.552 237.686 367.702 237.428 367.817C237.17 367.924 236.894 367.978 236.601 367.978H230.703C230.417 367.978 230.145 367.924 229.887 367.817C229.629 367.702 229.403 367.552 229.21 367.366C229.024 367.172 228.873 366.947 228.759 366.689C228.651 366.431 228.598 366.155 228.598 365.862V352.133H230.703V358.557C230.717 358.278 230.782 358.016 230.896 357.773C231.011 357.522 231.161 357.307 231.348 357.128C231.541 356.942 231.763 356.799 232.014 356.699C232.264 356.591 232.533 356.537 232.819 356.537H236.601C236.894 356.537 237.17 356.595 237.428 356.709C237.686 356.817 237.908 356.967 238.094 357.161C238.287 357.347 238.438 357.569 238.545 357.827C238.66 358.084 238.717 358.36 238.717 358.654V365.862ZM230.703 358.654V365.862H236.601V358.654H230.703ZM256.882 365.776C257.906 365.776 258.694 365.5 259.245 364.949C259.797 364.397 260.072 363.609 260.072 362.585V357.966C260.072 357.465 260.001 357.017 259.857 356.623C259.714 356.23 259.503 355.897 259.224 355.624C258.951 355.345 258.618 355.134 258.225 354.991C257.831 354.847 257.383 354.776 256.882 354.776H251.253V365.776H256.882ZM249.051 367.978V352.574H256.882C257.705 352.574 258.447 352.703 259.105 352.96C259.771 353.211 260.337 353.573 260.803 354.045C261.275 354.511 261.637 355.077 261.888 355.743C262.146 356.409 262.274 357.15 262.274 357.966V362.585C262.274 363.402 262.146 364.143 261.888 364.809C261.637 365.475 261.275 366.044 260.803 366.517C260.337 366.982 259.771 367.344 259.105 367.602C258.447 367.853 257.705 367.978 256.882 367.978H249.051ZM275.272 363.337H267.699V365.862H275.272V367.978H267.699C267.413 367.978 267.141 367.924 266.883 367.817C266.625 367.702 266.399 367.552 266.206 367.366C266.02 367.172 265.869 366.947 265.755 366.689C265.647 366.431 265.594 366.155 265.594 365.862V358.654C265.594 358.36 265.647 358.084 265.755 357.827C265.869 357.569 266.02 357.347 266.206 357.161C266.399 356.967 266.625 356.817 266.883 356.709C267.141 356.595 267.413 356.537 267.699 356.537H273.156C273.45 356.537 273.726 356.595 273.983 356.709C274.241 356.817 274.463 356.967 274.649 357.161C274.843 357.347 274.993 357.569 275.101 357.827C275.215 358.084 275.272 358.36 275.272 358.654V363.337ZM267.699 358.654V361.221H273.156V358.654H267.699ZM282.062 367.978L277.485 356.537H279.688L283.157 365.443L286.638 356.537H288.84L284.264 367.978H282.062ZM300.731 363.337H293.158V365.862H300.731V367.978H293.158C292.872 367.978 292.6 367.924 292.342 367.817C292.084 367.702 291.858 367.552 291.665 367.366C291.479 367.172 291.328 366.947 291.214 366.689C291.106 366.431 291.053 366.155 291.053 365.862V358.654C291.053 358.36 291.106 358.084 291.214 357.827C291.328 357.569 291.479 357.347 291.665 357.161C291.858 356.967 292.084 356.817 292.342 356.709C292.6 356.595 292.872 356.537 293.158 356.537H298.615C298.909 356.537 299.185 356.595 299.442 356.709C299.7 356.817 299.922 356.967 300.108 357.161C300.302 357.347 300.452 357.569 300.56 357.827C300.674 358.084 300.731 358.36 300.731 358.654V363.337ZM293.158 358.654V361.221H298.615V358.654H293.158ZM306.371 352.133V367.978H304.266V352.133H306.371ZM319.788 365.862C319.788 366.155 319.731 366.431 319.616 366.689C319.509 366.947 319.358 367.172 319.165 367.366C318.979 367.552 318.757 367.702 318.499 367.817C318.248 367.924 317.976 367.978 317.683 367.978H312C311.714 367.978 311.441 367.924 311.184 367.817C310.926 367.702 310.7 367.552 310.507 367.366C310.321 367.172 310.17 366.947 310.056 366.689C309.948 366.431 309.895 366.155 309.895 365.862V358.654C309.895 358.36 309.948 358.084 310.056 357.827C310.17 357.569 310.321 357.347 310.507 357.161C310.7 356.967 310.926 356.817 311.184 356.709C311.441 356.595 311.714 356.537 312 356.537H317.683C317.976 356.537 318.248 356.595 318.499 356.709C318.757 356.817 318.979 356.967 319.165 357.161C319.358 357.347 319.509 357.569 319.616 357.827C319.731 358.084 319.788 358.36 319.788 358.654V365.862ZM312 358.654V365.862H317.683V358.654H312ZM333.441 365.862C333.441 366.155 333.384 366.431 333.27 366.689C333.162 366.947 333.012 367.172 332.818 367.366C332.632 367.552 332.41 367.702 332.152 367.817C331.895 367.924 331.619 367.978 331.325 367.978H325.428V372.597H323.322V356.537H325.428V358.471C325.449 358.199 325.521 357.948 325.643 357.719C325.764 357.483 325.918 357.279 326.104 357.107C326.291 356.928 326.506 356.788 326.749 356.688C327 356.588 327.265 356.537 327.544 356.537H331.325C331.619 356.537 331.895 356.595 332.152 356.709C332.41 356.817 332.632 356.967 332.818 357.161C333.012 357.347 333.162 357.569 333.27 357.827C333.384 358.084 333.441 358.36 333.441 358.654V365.862ZM331.325 365.862V358.654H325.428V365.862H331.325ZM346.031 358.654V367.978H343.915V358.654H339.07V367.978H336.965V356.537H339.07V358.557C339.085 358.278 339.149 358.016 339.264 357.773C339.378 357.522 339.529 357.307 339.715 357.128C339.908 356.942 340.13 356.799 340.381 356.699C340.632 356.591 340.9 356.537 341.187 356.537H343.915C344.194 356.537 344.459 356.591 344.71 356.699C344.961 356.799 345.183 356.942 345.376 357.128C345.569 357.307 345.723 357.522 345.838 357.773C345.96 358.016 346.024 358.278 346.031 358.557C346.046 358.278 346.106 358.016 346.214 357.773C346.328 357.522 346.479 357.307 346.665 357.128C346.858 356.942 347.08 356.799 347.331 356.699C347.582 356.591 347.85 356.537 348.137 356.537H350.865C351.159 356.537 351.435 356.595 351.692 356.709C351.95 356.817 352.172 356.967 352.358 357.161C352.552 357.347 352.702 357.569 352.81 357.827C352.924 358.084 352.981 358.36 352.981 358.654V367.978H350.865V358.654H346.031ZM366.194 363.337H358.621V365.862H366.194V367.978H358.621C358.335 367.978 358.062 367.924 357.805 367.817C357.547 367.702 357.321 367.552 357.128 367.366C356.942 367.172 356.791 366.947 356.677 366.689C356.569 366.431 356.516 366.155 356.516 365.862V358.654C356.516 358.36 356.569 358.084 356.677 357.827C356.791 357.569 356.942 357.347 357.128 357.161C357.321 356.967 357.547 356.817 357.805 356.709C358.062 356.595 358.335 356.537 358.621 356.537H364.078C364.372 356.537 364.647 356.595 364.905 356.709C365.163 356.817 365.385 356.967 365.571 357.161C365.765 357.347 365.915 357.569 366.022 357.827C366.137 358.084 366.194 358.36 366.194 358.654V363.337ZM358.621 358.654V361.221H364.078V358.654H358.621ZM379.848 367.978H377.731V358.654H371.834V367.978H369.729V356.537H371.834V358.557C371.848 358.278 371.913 358.016 372.027 357.773C372.142 357.522 372.292 357.307 372.479 357.128C372.672 356.942 372.894 356.799 373.145 356.699C373.395 356.591 373.664 356.537 373.95 356.537H377.731C378.025 356.537 378.301 356.595 378.559 356.709C378.816 356.817 379.038 356.967 379.225 357.161C379.418 357.347 379.568 357.569 379.676 357.827C379.79 358.084 379.848 358.36 379.848 358.654V367.978ZM382.705 356.537H385.498V353.014H387.614V356.537H391.374V358.654H387.614V365.862H391.374V367.978H387.614C387.328 367.978 387.056 367.924 386.798 367.817C386.54 367.702 386.314 367.552 386.121 367.366C385.928 367.172 385.774 366.947 385.659 366.689C385.552 366.431 385.498 366.155 385.498 365.862V358.654H382.705V356.537Z" fill="url(#paint1_linear_264_2)"/>
<path d="M486.825 361.382C486.524 361.382 486.238 361.325 485.966 361.21C485.701 361.089 485.468 360.931 485.267 360.738C485.067 360.537 484.909 360.304 484.795 360.039C484.68 359.767 484.623 359.481 484.623 359.18V354.776C484.623 354.475 484.68 354.192 484.795 353.927C484.909 353.655 485.067 353.422 485.267 353.229C485.468 353.028 485.701 352.871 485.966 352.756C486.238 352.634 486.524 352.574 486.825 352.574H494.302C494.602 352.574 494.885 352.634 495.15 352.756C495.422 352.871 495.659 353.028 495.859 353.229C496.06 353.422 496.217 353.655 496.332 353.927C496.446 354.192 496.504 354.475 496.504 354.776V356.763H494.302V354.776H486.825V359.18H494.302C494.602 359.18 494.885 359.237 495.15 359.352C495.422 359.467 495.659 359.624 495.859 359.825C496.06 360.025 496.217 360.261 496.332 360.534C496.446 360.799 496.504 361.081 496.504 361.382V365.776C496.504 366.077 496.446 366.363 496.332 366.635C496.217 366.9 496.06 367.133 495.859 367.333C495.659 367.534 495.422 367.691 495.15 367.806C494.885 367.921 494.602 367.978 494.302 367.978H486.61C486.309 367.978 486.023 367.921 485.751 367.806C485.486 367.691 485.253 367.534 485.052 367.333C484.852 367.133 484.694 366.9 484.58 366.635C484.465 366.363 484.408 366.077 484.408 365.776V363.799H486.61V365.776H494.302V361.382H486.825ZM510.157 365.862C510.157 366.155 510.1 366.431 509.985 366.689C509.878 366.947 509.727 367.172 509.534 367.366C509.348 367.552 509.126 367.702 508.868 367.817C508.617 367.924 508.345 367.978 508.052 367.978H502.369C502.082 367.978 501.81 367.924 501.552 367.817C501.295 367.702 501.069 367.552 500.876 367.366C500.69 367.172 500.539 366.947 500.425 366.689C500.317 366.431 500.263 366.155 500.263 365.862V358.654C500.263 358.36 500.317 358.084 500.425 357.827C500.539 357.569 500.69 357.347 500.876 357.161C501.069 356.967 501.295 356.817 501.552 356.709C501.81 356.595 502.082 356.537 502.369 356.537H508.052C508.345 356.537 508.617 356.595 508.868 356.709C509.126 356.817 509.348 356.967 509.534 357.161C509.727 357.347 509.878 357.569 509.985 357.827C510.1 358.084 510.157 358.36 510.157 358.654V365.862ZM502.369 358.654V365.862H508.052V358.654H502.369ZM517.934 354.249V356.537H521.694V358.654H517.934V367.978H515.818V358.654H513.025V356.537H515.818V354.249C515.818 353.956 515.872 353.684 515.979 353.433C516.094 353.175 516.248 352.95 516.441 352.756C516.635 352.563 516.86 352.412 517.118 352.305C517.376 352.19 517.648 352.133 517.934 352.133H521.694V354.249H517.934ZM523.896 356.537H526.689V353.014H528.805V356.537H532.565V358.654H528.805V365.862H532.565V367.978H528.805C528.519 367.978 528.247 367.924 527.989 367.817C527.731 367.702 527.506 367.552 527.312 367.366C527.119 367.172 526.965 366.947 526.85 366.689C526.743 366.431 526.689 366.155 526.689 365.862V358.654H523.896V356.537ZM538.473 367.978L534.778 356.537H536.916L539.623 365.163L542.147 356.537H544.306L546.831 365.163L549.538 356.537H551.676L547.98 367.978H545.778L543.221 359.578L540.676 367.978H538.473ZM553.888 362.983C553.888 362.689 553.942 362.417 554.05 362.166C554.164 361.909 554.315 361.683 554.501 361.49C554.694 361.296 554.92 361.146 555.177 361.038C555.435 360.924 555.707 360.867 555.994 360.867H561.451V358.654H554.544V356.537H561.451C561.745 356.537 562.02 356.595 562.278 356.709C562.536 356.817 562.758 356.967 562.944 357.161C563.137 357.347 563.288 357.569 563.395 357.827C563.51 358.084 563.567 358.36 563.567 358.654V367.978H561.451V366.044C561.429 366.309 561.358 366.56 561.236 366.796C561.114 367.033 560.957 367.24 560.763 367.419C560.577 367.591 560.362 367.727 560.119 367.828C559.875 367.928 559.618 367.978 559.345 367.978H555.994C555.707 367.978 555.435 367.924 555.177 367.817C554.92 367.702 554.694 367.552 554.501 367.366C554.315 367.172 554.164 366.947 554.05 366.689C553.942 366.431 553.888 366.155 553.888 365.862V362.983ZM555.994 365.862H561.451V362.983H555.994V365.862ZM569.207 358.654V367.978H567.101V356.537H569.207V358.557C569.221 358.278 569.286 358.016 569.4 357.773C569.515 357.522 569.665 357.307 569.851 357.128C570.045 356.942 570.267 356.799 570.517 356.699C570.768 356.591 571.037 356.537 571.323 356.537H573.568C573.862 356.537 574.134 356.595 574.385 356.709C574.642 356.817 574.868 356.967 575.061 357.161C575.255 357.347 575.405 357.569 575.512 357.827C575.627 358.084 575.684 358.36 575.684 358.654V360.587H573.568V358.654H569.207ZM587.995 363.337H580.422V365.862H587.995V367.978H580.422C580.135 367.978 579.863 367.924 579.605 367.817C579.347 367.702 579.122 367.552 578.928 367.366C578.742 367.172 578.592 366.947 578.477 366.689C578.37 366.431 578.316 366.155 578.316 365.862V358.654C578.316 358.36 578.37 358.084 578.477 357.827C578.592 357.569 578.742 357.347 578.928 357.161C579.122 356.967 579.347 356.817 579.605 356.709C579.863 356.595 580.135 356.537 580.422 356.537H585.879C586.172 356.537 586.448 356.595 586.706 356.709C586.964 356.817 587.186 356.967 587.372 357.161C587.565 357.347 587.716 357.569 587.823 357.827C587.938 358.084 587.995 358.36 587.995 358.654V363.337ZM580.422 358.654V361.221H585.879V358.654H580.422ZM606.171 365.776C607.195 365.776 607.983 365.5 608.534 364.949C609.085 364.397 609.361 363.609 609.361 362.585V357.966C609.361 357.465 609.289 357.017 609.146 356.623C609.003 356.23 608.792 355.897 608.512 355.624C608.24 355.345 607.907 355.134 607.513 354.991C607.12 354.847 606.672 354.776 606.171 354.776H600.542V365.776H606.171ZM598.34 367.978V352.574H606.171C606.994 352.574 607.735 352.703 608.394 352.96C609.06 353.211 609.626 353.573 610.092 354.045C610.564 354.511 610.926 355.077 611.177 355.743C611.434 356.409 611.563 357.15 611.563 357.966V362.585C611.563 363.402 611.434 364.143 611.177 364.809C610.926 365.475 610.564 366.044 610.092 366.517C609.626 366.982 609.06 367.344 608.394 367.602C607.735 367.853 606.994 367.978 606.171 367.978H598.34ZM624.561 363.337H616.988V365.862H624.561V367.978H616.988C616.702 367.978 616.429 367.924 616.172 367.817C615.914 367.702 615.688 367.552 615.495 367.366C615.309 367.172 615.158 366.947 615.044 366.689C614.936 366.431 614.883 366.155 614.883 365.862V358.654C614.883 358.36 614.936 358.084 615.044 357.827C615.158 357.569 615.309 357.347 615.495 357.161C615.688 356.967 615.914 356.817 616.172 356.709C616.429 356.595 616.702 356.537 616.988 356.537H622.445C622.739 356.537 623.014 356.595 623.272 356.709C623.53 356.817 623.752 356.967 623.938 357.161C624.132 357.347 624.282 357.569 624.389 357.827C624.504 358.084 624.561 358.36 624.561 358.654V363.337ZM616.988 358.654V361.221H622.445V358.654H616.988ZM631.35 367.978L626.774 356.537H628.976L632.446 365.443L635.927 356.537H638.129L633.552 367.978H631.35ZM650.02 363.337H642.447V365.862H650.02V367.978H642.447C642.161 367.978 641.888 367.924 641.631 367.817C641.373 367.702 641.147 367.552 640.954 367.366C640.768 367.172 640.617 366.947 640.503 366.689C640.395 366.431 640.342 366.155 640.342 365.862V358.654C640.342 358.36 640.395 358.084 640.503 357.827C640.617 357.569 640.768 357.347 640.954 357.161C641.147 356.967 641.373 356.817 641.631 356.709C641.888 356.595 642.161 356.537 642.447 356.537H647.904C648.198 356.537 648.473 356.595 648.731 356.709C648.989 356.817 649.211 356.967 649.397 357.161C649.591 357.347 649.741 357.569 649.848 357.827C649.963 358.084 650.02 358.36 650.02 358.654V363.337ZM642.447 358.654V361.221H647.904V358.654H642.447ZM655.66 352.133V367.978H653.554V352.133H655.66ZM669.077 365.862C669.077 366.155 669.02 366.431 668.905 366.689C668.798 366.947 668.647 367.172 668.454 367.366C668.268 367.552 668.046 367.702 667.788 367.817C667.537 367.924 667.265 367.978 666.971 367.978H661.289C661.002 367.978 660.73 367.924 660.472 367.817C660.215 367.702 659.989 367.552 659.796 367.366C659.609 367.172 659.459 366.947 659.344 366.689C659.237 366.431 659.183 366.155 659.183 365.862V358.654C659.183 358.36 659.237 358.084 659.344 357.827C659.459 357.569 659.609 357.347 659.796 357.161C659.989 356.967 660.215 356.817 660.472 356.709C660.73 356.595 661.002 356.537 661.289 356.537H666.971C667.265 356.537 667.537 356.595 667.788 356.709C668.046 356.817 668.268 356.967 668.454 357.161C668.647 357.347 668.798 357.569 668.905 357.827C669.02 358.084 669.077 358.36 669.077 358.654V365.862ZM661.289 358.654V365.862H666.971V358.654H661.289ZM682.73 365.862C682.73 366.155 682.673 366.431 682.558 366.689C682.451 366.947 682.301 367.172 682.107 367.366C681.921 367.552 681.699 367.702 681.441 367.817C681.183 367.924 680.908 367.978 680.614 367.978H674.717V372.597H672.611V356.537H674.717V358.471C674.738 358.199 674.81 357.948 674.931 357.719C675.053 357.483 675.207 357.279 675.393 357.107C675.58 356.928 675.794 356.788 676.038 356.688C676.288 356.588 676.553 356.537 676.833 356.537H680.614C680.908 356.537 681.183 356.595 681.441 356.709C681.699 356.817 681.921 356.967 682.107 357.161C682.301 357.347 682.451 357.569 682.558 357.827C682.673 358.084 682.73 358.36 682.73 358.654V365.862ZM680.614 365.862V358.654H674.717V365.862H680.614ZM695.32 358.654V367.978H693.204V358.654H688.359V367.978H686.254V356.537H688.359V358.557C688.373 358.278 688.438 358.016 688.552 357.773C688.667 357.522 688.817 357.307 689.004 357.128C689.197 356.942 689.419 356.799 689.67 356.699C689.92 356.591 690.189 356.537 690.475 356.537H693.204C693.483 356.537 693.748 356.591 693.999 356.699C694.249 356.799 694.471 356.942 694.665 357.128C694.858 357.307 695.012 357.522 695.127 357.773C695.248 358.016 695.313 358.278 695.32 358.557C695.334 358.278 695.395 358.016 695.503 357.773C695.617 357.522 695.768 357.307 695.954 357.128C696.147 356.942 696.369 356.799 696.62 356.699C696.871 356.591 697.139 356.537 697.426 356.537H700.154C700.448 356.537 700.723 356.595 700.981 356.709C701.239 356.817 701.461 356.967 701.647 357.161C701.841 357.347 701.991 357.569 702.098 357.827C702.213 358.084 702.27 358.36 702.27 358.654V367.978H700.154V358.654H695.32ZM715.483 363.337H707.91V365.862H715.483V367.978H707.91C707.623 367.978 707.351 367.924 707.094 367.817C706.836 367.702 706.61 367.552 706.417 367.366C706.231 367.172 706.08 366.947 705.966 366.689C705.858 366.431 705.804 366.155 705.804 365.862V358.654C705.804 358.36 705.858 358.084 705.966 357.827C706.08 357.569 706.231 357.347 706.417 357.161C706.61 356.967 706.836 356.817 707.094 356.709C707.351 356.595 707.623 356.537 707.91 356.537H713.367C713.661 356.537 713.936 356.595 714.194 356.709C714.452 356.817 714.674 356.967 714.86 357.161C715.053 357.347 715.204 357.569 715.311 357.827C715.426 358.084 715.483 358.36 715.483 358.654V363.337ZM707.91 358.654V361.221H713.367V358.654H707.91ZM729.136 367.978H727.02V358.654H721.123V367.978H719.017V356.537H721.123V358.557C721.137 358.278 721.202 358.016 721.316 357.773C721.431 357.522 721.581 357.307 721.767 357.128C721.961 356.942 722.183 356.799 722.433 356.699C722.684 356.591 722.953 356.537 723.239 356.537H727.02C727.314 356.537 727.59 356.595 727.847 356.709C728.105 356.817 728.327 356.967 728.513 357.161C728.707 357.347 728.857 357.569 728.965 357.827C729.079 358.084 729.136 358.36 729.136 358.654V367.978ZM731.994 356.537H734.787V353.014H736.903V356.537H740.663V358.654H736.903V365.862H740.663V367.978H736.903C736.617 367.978 736.344 367.924 736.087 367.817C735.829 367.702 735.603 367.552 735.41 367.366C735.217 367.172 735.063 366.947 734.948 366.689C734.841 366.431 734.787 366.155 734.787 365.862V358.654H731.994V356.537Z" fill="url(#paint2_linear_264_2)"/>
<path d="M824.195 838.436H85.8049V838.044H824.195V838.436Z" fill="#EBEBEB"/>
<path d="M701.327 863.346H750.208V863.738H701.327V863.346Z" fill="#EBEBEB"/>
<path d="M562.14 867.589H574.915V867.981H562.14V867.589Z" fill="#EBEBEB"/>
<path d="M671.496 848.73H699.85V849.122H671.496V848.73Z" fill="#EBEBEB"/>
<path d="M163.262 851.402H227.059V851.794H163.262V851.402Z" fill="#EBEBEB"/>
<path d="M240.202 851.402H249.58V851.794H240.202V851.402Z" fill="#EBEBEB"/>
<path d="M279.928 858.003H418.302V858.395H279.928V858.003Z" fill="#EBEBEB"/>
<path fill-rule="evenodd" clip-rule="evenodd" d="M435.802 767.951H150.636C145.984 767.951 142.218 763.943 142.218 758.993V332.386C142.218 327.435 145.984 323.428 150.636 323.428H435.802C440.454 323.428 444.22 327.435 444.22 332.386V758.993C444.22 763.943 440.454 767.951 435.802 767.951ZM150.636 323.821C146.205 323.821 142.587 327.671 142.587 332.386V758.993C142.587 763.708 146.205 767.558 150.636 767.558H435.802C440.232 767.558 443.85 763.708 443.85 758.993V332.386C443.85 327.671 440.232 323.821 435.802 323.821H150.636Z" fill="#B771D7"/>
<path fill-rule="evenodd" clip-rule="evenodd" d="M755.229 767.951H470.063C465.411 767.951 461.646 763.943 461.646 758.993V332.386C461.646 327.435 465.411 323.428 470.063 323.428H755.229C759.881 323.428 763.647 327.435 763.647 332.386V758.993C763.647 763.943 759.881 767.951 755.229 767.951ZM470.063 323.821C465.633 323.821 462.015 327.671 462.015 332.386V758.993C462.015 763.708 465.633 767.558 470.063 767.558H755.229C759.66 767.558 763.278 763.708 763.278 758.993V332.386C763.278 327.671 759.66 323.821 755.229 323.821H470.063Z" fill="#B771D7"/>
<path d="M323.05 777.852H217.829V398H323.05V777.852Z" fill="#FAFAFA" fill-opacity="0.29"/>
<path d="M307.396 398H301.267L264.569 777.852H270.698L307.396 398Z" fill="#B36CD2"/>
<path d="M321.204 402.793H217.165V399.493H321.204V402.793Z" fill="#B36CD2"/>
<path d="M321.204 781.702V774.552H217.165V781.702H321.204Z" fill="#B36CD2"/>
<path d="M221.152 781.702H319.505V781.388H221.152V781.702Z" fill="#552FC3"/>
<path d="M221.152 399.493H319.505V781.388H325.339V394.778H215.245V781.388H221.152V399.493Z" fill="#B36CD2"/>
<path d="M440.158 777.852H334.938V398H440.158V777.852Z" fill="#FAFAFA" fill-opacity="0.29"/>
<path d="M410.992 398H377.395L340.697 777.852H374.294L410.992 398Z" fill="#B36CD2"/>
<path d="M441.266 402.793H334.273V399.493H441.266V402.793Z" fill="#B36CD2"/>
<path d="M441.266 781.702V774.552H334.273V781.702H441.266Z" fill="#B36CD2"/>
<path d="M338.261 781.702H436.54V781.388H338.261V781.702Z" fill="#552FC3"/>
<path d="M338.261 399.493H436.54V781.388H442.447V394.778H332.353V781.388H338.261V399.493Z" fill="#B36CD2"/>
<path d="M554.313 777.852H452.046V398H554.313V777.852Z" fill="#FAFAFA" fill-opacity="0.29"/>
<path d="M509.936 398H503.808L467.11 777.852H473.238L509.936 398Z" fill="#B36CD2"/>
<path d="M555.347 402.793H451.382V399.493H555.347V402.793Z" fill="#B36CD2"/>
<path d="M555.347 781.702V774.552H451.382V781.702H555.347Z" fill="#EBEBEB"/>
<path d="M455.369 781.702H553.649V781.388H455.369V781.702Z" fill="#EBEBEB"/>
<path d="M455.369 399.493H553.649V781.388H559.556V394.778H449.462V781.388H455.369V399.493Z" fill="#B36CD2"/>
<path d="M674.302 777.852H569.081V398H674.302V777.852Z" fill="#FAFAFA" fill-opacity="0.29"/>
<path d="M664.038 398H630.515L593.817 777.852H627.34L664.038 398Z" fill="#B36CD2"/>
<path d="M672.456 402.793H568.417V399.493H672.456V402.793Z" fill="#B36CD2"/>
<path d="M672.456 781.702V774.552H568.417V781.702H672.456Z" fill="#B36CD2"/>
<path d="M572.404 399.493H670.758V781.388H676.665V394.778H566.571V781.388H572.404V399.493Z" fill="#B36CD2"/>
<path d="M572.404 781.702H670.758V781.388H572.404V781.702Z" fill="#EBEBEB"/>
<path d="M290.487 690.472V774.552H244.854V690.472H290.487Z" fill="#EBEBEB" fill-opacity="0.4"/>
<path d="M281.774 678.685V699.823H278.156H257.185H253.567V678.685H281.774Z" fill="#EBEBEB" fill-opacity="0.4"/>
<path d="M281.774 699.823H287.607V693.536H281.774V699.823Z" fill="#FAFAFA"/>
<path d="M270.402 699.823H276.236V693.536H270.402V699.823Z" fill="#FAFAFA"/>
<path d="M259.105 699.823H264.938V693.536H259.105V699.823Z" fill="#A086AA"/>
<path d="M247.734 699.823H253.567V693.536H247.734V699.823Z" fill="#8A7493"/>
<path d="M281.774 711.06H287.607V704.852H281.774V711.06Z" fill="#F0F0F0"/>
<path d="M270.402 711.06H276.236V704.852H270.402V711.06Z" fill="#F0F0F0"/>
<path d="M259.105 711.06H264.938V704.852H259.105V711.06Z" fill="#A086AA"/>
<path d="M247.734 711.06H253.567V704.852H247.734V711.06Z" fill="#A086AA"/>
<path d="M281.774 722.375H287.607V716.167H281.774V722.375Z" fill="#F0F0F0"/>
<path d="M270.402 722.375H276.236V716.167H270.402V722.375Z" fill="#FAFAFA"/>
<path d="M259.105 722.375H264.938V716.167H259.105V722.375Z" fill="#A086AA"/>
<path d="M270.402 690H276.236V683.793H270.402V690Z" fill="#FAFAFA"/>
<path d="M259.105 690H264.938V683.793H259.105V690Z" fill="#8A7493"/>
<path d="M247.734 722.375H253.567V716.167H247.734V722.375Z" fill="#8A7493"/>
<path d="M281.774 733.691H287.607V727.483H281.774V733.691Z" fill="#FAFAFA"/>
<path d="M270.402 733.691H276.236V727.483H270.402V733.691Z" fill="#F0F0F0"/>
<path d="M259.105 733.691H264.938V727.483H259.105V733.691Z" fill="#8A7493"/>
<path d="M247.734 733.691H253.567V727.483H247.734V733.691Z" fill="#A086AA"/>
<path d="M281.774 745.006H287.607V738.798H281.774V745.006Z" fill="#F0F0F0"/>
<path d="M270.402 745.006H276.236V738.798H270.402V745.006Z" fill="#FAFAFA"/>
<path d="M259.105 745.006H264.938V738.798H259.105V745.006Z" fill="#A086AA"/>
<path d="M247.734 745.006H253.567V738.798H247.734V745.006Z" fill="#8A7493"/>
<path d="M281.774 756.321H287.607V750.113H281.774V756.321Z" fill="#F0F0F0"/>
<path d="M270.402 756.321H276.236V750.113H270.402V756.321Z" fill="#FAFAFA"/>
<path d="M259.105 756.321H264.938V750.113H259.105V756.321Z" fill="#F0F0F0"/>
<path d="M247.734 756.321H253.567V750.113H247.734V756.321Z" fill="#FAFAFA"/>
<path d="M281.774 767.637H287.607V761.429H281.774V767.637Z" fill="#A086AA"/>
<path d="M270.402 767.637H276.236V761.429H270.402V767.637Z" fill="#A086AA"/>
<path d="M259.105 767.637H264.938V761.429H259.105V767.637Z" fill="#8A7493"/>
<path d="M247.734 767.637H253.567V761.429H247.734V767.637Z" fill="#F0F0F0"/>
<path d="M548.037 690.472V774.552H502.331V690.472H548.037Z" fill="#EBEBEB"/>
<path d="M539.25 678.685V699.823H535.706H514.736H511.118V678.685H539.25Z" fill="#EBEBEB"/>
<path d="M539.25 699.823H545.157V693.536H539.25V699.823Z" fill="#FAFAFA"/>
<path d="M527.953 699.823H533.786V693.536H527.953V699.823Z" fill="#FAFAFA"/>
<path d="M516.656 699.823H522.489V693.536H516.656V699.823Z" fill="#FAFAFA"/>
<path d="M505.284 699.823H511.118V693.536H505.284V699.823Z" fill="#F0F0F0"/>
<path d="M539.25 711.06H545.157V704.852H539.25V711.06Z" fill="#F0F0F0"/>
<path d="M527.953 711.06H533.786V704.852H527.953V711.06Z" fill="#F0F0F0"/>
<path d="M516.656 711.06H522.489V704.852H516.656V711.06Z" fill="#FAFAFA"/>
<path d="M505.284 711.06H511.118V704.852H505.284V711.06Z" fill="#FAFAFA"/>
<path d="M539.25 722.375H545.157V716.167H539.25V722.375Z" fill="#F0F0F0"/>
<path d="M527.953 722.375H533.786V716.167H527.953V722.375Z" fill="#FAFAFA"/>
<path d="M516.656 722.375H522.489V716.167H516.656V722.375Z" fill="#FAFAFA"/>
<path d="M527.953 690H533.786V683.793H527.953V690Z" fill="#FAFAFA"/>
<path d="M516.656 690H522.489V683.793H516.656V690Z" fill="#F0F0F0"/>
<path d="M505.284 722.375H511.118V716.167H505.284V722.375Z" fill="#F0F0F0"/>
<path d="M539.25 733.691H545.157V727.483H539.25V733.691Z" fill="#FAFAFA"/>
<path d="M527.953 733.691H533.786V727.483H527.953V733.691Z" fill="#F0F0F0"/>
<path d="M516.656 733.691H522.489V727.483H516.656V733.691Z" fill="#F0F0F0"/>
<path d="M505.284 733.691H511.118V727.483H505.284V733.691Z" fill="#FAFAFA"/>
<path d="M539.25 745.006H545.157V738.798H539.25V745.006Z" fill="#F0F0F0"/>
<path d="M527.953 745.006H533.786V738.798H527.953V745.006Z" fill="#FAFAFA"/>
<path d="M516.656 745.006H522.489V738.798H516.656V745.006Z" fill="#FAFAFA"/>
<path d="M505.284 745.006H511.118V738.798H505.284V745.006Z" fill="#F0F0F0"/>
<path d="M539.25 756.321H545.157V750.113H539.25V756.321Z" fill="#F0F0F0"/>
<path d="M527.953 756.321H533.786V750.113H527.953V756.321Z" fill="#FAFAFA"/>
<path d="M516.656 756.321H522.489V750.113H516.656V756.321Z" fill="#F0F0F0"/>
<path d="M505.284 756.321H511.118V750.113H505.284V756.321Z" fill="#FAFAFA"/>
<path d="M539.25 767.637H545.157V761.429H539.25V767.637Z" fill="#FAFAFA"/>
<path d="M527.953 767.637H533.786V761.429H527.953V767.637Z" fill="#FAFAFA"/>
<path d="M516.656 767.637H522.489V761.429H516.656V767.637Z" fill="#F0F0F0"/>
<path d="M505.284 767.637H511.118V761.429H505.284V767.637Z" fill="#F0F0F0"/>
<path d="M620.621 721.039V774.552H579.714V721.039H620.621Z" fill="#C495DC"/>
<path d="M583.258 727.011H592.784H595.368H598.026V732.59H595.368H592.784H583.258V727.011Z" fill="#E6E6E6"/>
<path d="M583.258 737.776H592.784H595.368H598.026V743.356H595.368H592.784H583.258V737.776Z" fill="#FAFAFA"/>
<path d="M583.258 748.62H592.784H595.368H598.026V754.2H595.368H592.784H583.258V748.62Z" fill="#E6E6E6"/>
<path d="M583.258 759.386H592.784H596.845H598.026V764.965H596.845H592.784H583.258V759.386Z" fill="#A086AA"/>
<path d="M602.309 727.011H611.834H614.418H617.003V732.59H614.418H611.834H602.309V727.011Z" fill="#A086AA"/>
<path d="M602.309 737.776H611.834H615.526H617.003V743.356H615.526H611.834H602.309V737.776Z" fill="#A086AA"/>
<path d="M602.309 748.62H611.834H614.418H617.003V754.2H614.418H611.834H602.309V748.62Z" fill="#8A7493"/>
<path d="M602.309 759.386H611.834H614.418H617.003V764.965H614.418H611.834H602.309V759.386Z" fill="#A086AA"/>
<path d="M425.464 741.313V774.552H388.25V741.313H425.464Z" fill="#C694DC"/>
<path d="M418.302 750.506H423.028V745.477H418.302V750.506Z" fill="#FAFAFA"/>
<path d="M409.072 750.506H413.872V745.477H409.072V750.506Z" fill="#FAFAFA"/>
<path d="M399.842 750.506H404.642V745.477H399.842V750.506Z" fill="#FAFAFA"/>
<path d="M390.612 750.506H395.412V745.477H390.612V750.506Z" fill="#FAFAFA"/>
<path d="M418.302 759.7H423.028V754.671H418.302V759.7Z" fill="#A086AA"/>
<path d="M409.072 759.7H413.872V754.671H409.072V759.7Z" fill="#A086AA"/>
<path d="M399.842 759.7H404.642V754.671H399.842V759.7Z" fill="#A086AA"/>
<path d="M390.612 759.7H395.412V754.671H390.612V759.7Z" fill="#A086AA"/>
<path d="M418.302 768.894H423.028V763.865H418.302V768.894Z" fill="#A086AA"/>
<path d="M409.072 768.894H413.872V763.865H409.072V768.894Z" fill="#A086AA"/>
<path d="M399.842 768.894H404.642V763.865H399.842V768.894Z" fill="#A086AA"/>
<path d="M390.612 768.894H395.412V763.865H390.612V768.894Z" fill="#A086AA"/>
<path d="M498.491 741.313V774.552H461.276V741.313H498.491Z" fill="#F0F0F0"/>
<path d="M491.329 750.506H496.054V745.477H491.329V750.506Z" fill="#FAFAFA"/>
<path d="M482.099 750.506H486.825V745.477H482.099V750.506Z" fill="#FAFAFA"/>
<path d="M472.869 750.506H477.669V745.477H472.869V750.506Z" fill="#FAFAFA"/>
<path d="M463.639 750.506H468.439V745.477H463.639V750.506Z" fill="#FAFAFA"/>
<path d="M491.329 759.7H496.054V754.671H491.329V759.7Z" fill="#FAFAFA"/>
<path d="M482.099 759.7H486.825V754.671H482.099V759.7Z" fill="#FAFAFA"/>
<path d="M472.869 759.7H477.669V754.671H472.869V759.7Z" fill="#FAFAFA"/>
<path d="M463.639 759.7H468.439V754.671H463.639V759.7Z" fill="#E6E6E6"/>
<path d="M491.329 768.894H496.054V763.865H491.329V768.894Z" fill="#E6E6E6"/>
<path d="M482.099 768.894H486.825V763.865H482.099V768.894Z" fill="#E6E6E6"/>
<path d="M472.869 768.894H477.669V763.865H472.869V768.894Z" fill="#FAFAFA"/>
<path d="M463.639 768.894H468.439V763.865H463.639V768.894Z" fill="#E6E6E6"/>
<path d="M383.229 716.717V774.552H346.014V716.717H383.229Z" fill="#C694DC"/>
<path d="M366.836 719.31H380.866V733.533H366.836V719.31Z" fill="#FAFAFA"/>
<path d="M348.45 719.31H362.406V733.533H348.45V719.31Z" fill="#FAFAFA"/>
<path d="M366.836 737.698H380.866V751.999H366.836V737.698Z" fill="#FAFAFA"/>
<path d="M348.45 737.698H362.406V751.999H348.45V737.698Z" fill="#FAFAFA"/>
<path d="M366.836 756.086H380.866V770.387H366.836V756.086Z" fill="#A086AA"/>
<path d="M348.45 756.086H362.406V770.387H348.45V756.086Z" fill="#A086AA"/>
<path d="M664.038 716.717V774.552H626.823V716.717H664.038Z" fill="#C495DC"/>
<path d="M647.646 719.31H661.602V733.533H647.646V719.31Z" fill="#FAFAFA"/>
<path d="M629.186 719.31H643.216V733.533H629.186V719.31Z" fill="#A086AA"/>
<path d="M647.646 737.698H661.602V751.999H647.646V737.698Z" fill="#FAFAFA"/>
<path d="M629.186 737.698H643.216V751.999H629.186V737.698Z" fill="#A086AA"/>
<path d="M647.646 756.086H661.602V770.387H647.646V756.086Z" fill="#A086AA"/>
<path d="M629.186 756.086H643.216V770.387H629.186V756.086Z" fill="#A086AA"/>
<path d="M198.409 795.14C198.409 795.14 190.952 777.773 199.443 760.643C208.008 743.513 210.519 739.505 205.055 735.969C199.591 732.512 197.08 749.721 197.08 749.721C197.08 749.721 192.502 737.855 196.342 725.518C200.108 713.103 202.471 692.908 197.302 690.786C192.133 688.586 196.342 715.932 191.838 725.282C191.838 725.282 188.072 714.91 187.407 704.93C186.817 694.951 187.777 679.078 183.715 674.992C179.58 670.984 176.996 673.734 180.983 695.737C185.045 717.66 184.971 735.498 184.971 735.498C184.971 735.498 176.11 706.738 170.129 705.873C164.222 705.009 164.222 714.36 169.317 722.454C174.412 730.547 184.232 745.006 185.857 752.471C185.857 752.471 176.11 730.783 167.323 737.462C158.61 744.063 175.002 757.186 182.239 761.9C189.549 766.615 194.644 796.318 194.644 796.318L198.409 795.14Z" fill="url(#paint3_linear_264_2)"/>
<path d="M192.502 802.29C192.502 802.29 199.812 784.767 191.026 767.794C182.313 750.821 179.802 746.813 185.192 743.277C190.582 739.662 193.315 756.793 193.315 756.793C193.315 756.793 197.745 744.927 193.831 732.59C189.918 720.253 187.26 700.137 192.428 697.858C197.597 695.658 193.684 723.004 198.336 732.276C198.336 732.276 201.954 721.825 202.471 711.845C202.987 701.944 201.806 686.071 205.867 681.907C209.928 677.82 212.587 680.571 208.821 702.573C205.055 724.575 205.276 742.413 205.276 742.413C205.276 742.413 213.842 713.495 219.749 712.553C225.73 711.61 225.804 720.961 220.783 729.133C215.762 737.305 206.089 751.921 204.612 759.386C204.612 759.386 214.063 737.619 222.924 744.063C231.785 750.585 215.54 763.943 208.304 768.815C200.994 773.609 196.268 803.39 196.268 803.39L192.502 802.29Z" fill="url(#paint4_linear_264_2)"/>
<path d="M226.099 789.796H165.92L170.794 835.608H221.226L226.099 789.796Z" fill="url(#paint5_linear_264_2)"/>
<path d="M677.034 786.574C677.255 785.003 682.203 748.385 672.234 735.734C670.019 732.905 667.213 731.49 663.964 731.333C643.733 730.862 641 748.149 641 748.306L643.363 748.699C643.437 748.071 645.874 733.455 663.891 733.926C666.475 734.005 668.616 735.105 670.388 737.384C679.692 749.171 674.671 785.789 674.671 786.181L677.034 786.574Z" fill="#EBEBEB"/>
<path d="M678.215 784.845L680.652 784.767C680.652 784.453 679.84 751.056 695.346 744.141C710.483 737.384 717.276 751.292 717.572 751.842L719.713 750.742C719.639 750.585 711.665 734.083 694.386 741.784C677.403 749.328 678.215 783.431 678.215 784.845Z" fill="#AC5FD4"/>
<path d="M678.141 787.517C678.141 786.967 678.289 734.162 687.962 718.682C697.266 703.83 712.255 710.824 712.92 711.138L713.879 708.781C713.732 708.702 696.453 700.609 685.968 717.267C675.926 733.376 675.779 785.317 675.779 787.517H678.141Z" fill="#AC5FD4"/>
<path d="M661.011 732.669C661.011 732.669 669.872 736.126 667.213 744.22C664.629 752.392 636.792 765.829 636.792 765.829C636.792 765.829 625.125 754.435 635.832 735.969C646.538 717.425 660.789 726.775 661.011 732.669Z" fill="url(#paint6_linear_264_2)"/>
<path d="M688.405 715.853C688.405 715.853 682.203 715.146 682.646 711.138C683.163 707.052 707.013 696.601 721.042 713.495C721.042 713.495 712.034 729.919 699.038 730.154C686.042 730.39 688.405 715.853 688.405 715.853Z" fill="url(#paint7_linear_264_2)"/>
<path d="M694.829 742.963C694.829 742.963 690.546 739.27 695.198 737.462C699.85 735.655 722.666 736.126 722.962 760.25C722.962 760.25 696.306 764.965 693.057 755.771C689.734 746.577 694.829 742.963 694.829 742.963Z" fill="url(#paint8_linear_264_2)"/>
<path d="M656.285 835.608H697.635L702.065 787.517H651.855L656.285 835.608Z" fill="url(#paint9_linear_264_2)"/>
<path d="M649.64 792.782H704.281V782.174H649.64V792.782Z" fill="#FC6600"/>
<path d="M741.348 891.242C741.348 901.064 613.163 909.001 455 909.001C296.837 909.001 168.652 901.064 168.652 891.242C168.652 881.42 296.837 873.404 455 873.404C613.163 873.404 741.348 881.42 741.348 891.242Z" fill="url(#paint10_linear_264_2)"/>
<path d="M610.21 758.129H267.892V490.33H610.21V758.129Z" fill="url(#paint11_linear_264_2)"/>
<path opacity="0.7" d="M610.21 758.129H267.892V490.33H610.21V758.129Z" fill="white"/>
<path d="M610.21 506.753H267.892V490.33H610.21V506.753Z" fill="url(#paint12_linear_264_2)"/>
<path opacity="0.7" d="M604.893 498.581C604.893 501.017 603.047 502.982 600.758 502.982C598.469 502.982 596.623 501.017 596.623 498.581C596.623 496.145 598.469 494.102 600.758 494.102C603.047 494.102 604.893 496.145 604.893 498.581Z" fill="white"/>
<path opacity="0.7" d="M592.784 498.581C592.784 501.017 590.938 502.982 588.649 502.982C586.36 502.982 584.514 501.017 584.514 498.581C584.514 496.145 586.36 494.102 588.649 494.102C590.938 494.102 592.784 496.145 592.784 498.581Z" fill="white"/>
<path opacity="0.7" d="M580.674 498.581C580.674 501.017 578.828 502.982 576.539 502.982C574.25 502.982 572.404 501.017 572.404 498.581C572.404 496.145 574.25 494.102 576.539 494.102C578.828 494.102 580.674 496.145 580.674 498.581Z" fill="white"/>
<path opacity="0.1" d="M375.992 751.056H270.772V511.625H375.992V751.056Z" fill="black"/>
<path opacity="0.1" d="M378.946 751.056H608.068V511.625H378.946V751.056Z" fill="black"/>
<path opacity="0.2" d="M563.026 634.366H425.021V529.699H563.026V634.366Z" fill="black"/>
<path d="M557.193 626.665H419.188V521.919H557.193V626.665Z" fill="url(#paint13_linear_264_2)"/>
<path opacity="0.5" d="M557.193 521.919V626.665H419.188V521.919H557.193Z" fill="white"/>
<path opacity="0.7" d="M555.2 624.465H421.256V541.171H555.2V624.465Z" fill="white"/>
<path d="M557.193 538.342H419.188V521.919H557.193V538.342Z" fill="url(#paint14_linear_264_2)"/>
<path opacity="0.7" d="M551.877 530.17C551.877 532.606 550.031 534.57 547.742 534.57C545.453 534.57 543.607 532.606 543.607 530.17C543.607 527.734 545.453 525.77 547.742 525.77C550.031 525.77 551.877 527.734 551.877 530.17Z" fill="white"/>
<path opacity="0.7" d="M539.767 530.17C539.767 532.606 537.921 534.57 535.632 534.57C533.343 534.57 531.497 532.606 531.497 530.17C531.497 527.734 533.343 525.77 535.632 525.77C537.921 525.77 539.767 527.734 539.767 530.17Z" fill="white"/>
<path opacity="0.7" d="M527.658 530.17C527.658 532.606 525.812 534.57 523.523 534.57C521.234 534.57 519.388 532.606 519.388 530.17C519.388 527.734 521.234 525.77 523.523 525.77C525.812 525.77 527.658 527.734 527.658 530.17Z" fill="white"/>
<path opacity="0.2" d="M421.256 603.72L459.283 579.361L487.046 595.548L529.504 566.945L555.2 587.297V624.465H421.256V603.72Z" fill="url(#paint15_linear_264_2)"/>
<path d="M460.021 563.33C460.021 569.381 455.443 574.253 449.684 574.253C443.998 574.253 439.42 569.381 439.42 563.33C439.42 557.28 443.998 552.329 449.684 552.329C455.443 552.329 460.021 557.28 460.021 563.33Z" fill="white"/>
<path opacity="0.2" d="M433.808 613.464V626.665H419.188V613.464H433.808Z" fill="black"/>
<path opacity="0.2" d="M582.668 757.657H444.663V683.793H582.668V757.657Z" fill="black"/>
<path d="M589.756 792.075H451.751V687.407H589.756V792.075Z" fill="url(#paint16_linear_264_2)"/>
<path opacity="0.5" d="M589.756 792.075H451.751V687.407H589.756V792.075Z" fill="white"/>
<path opacity="0.7" d="M587.763 789.953H453.819V706.659H587.763V789.953Z" fill="white"/>
<path d="M513.628 718.367L503.069 752.392H496.719L488.818 727.168L480.77 752.392H474.42L463.787 718.367H469.989L477.964 744.22L486.234 718.367H491.698L499.82 744.377L508.016 718.367H513.628Z" fill="#263238"/>
<path d="M589.756 703.83H451.751V687.407H589.756V703.83Z" fill="url(#paint17_linear_264_2)"/>
<path opacity="0.7" d="M584.514 695.658C584.514 698.094 582.594 700.058 580.305 700.058C578.016 700.058 576.17 698.094 576.17 695.658C576.17 693.222 578.016 691.258 580.305 691.258C582.594 691.258 584.514 693.222 584.514 695.658Z" fill="white"/>
<path opacity="0.7" d="M572.33 695.658C572.33 698.094 570.484 700.058 568.195 700.058C565.906 700.058 564.06 698.094 564.06 695.658C564.06 693.222 565.906 691.258 568.195 691.258C570.484 691.258 572.33 693.222 572.33 695.658Z" fill="white"/>
<path opacity="0.7" d="M560.221 695.658C560.221 698.094 558.375 700.058 556.086 700.058C553.797 700.058 551.951 698.094 551.951 695.658C551.951 693.222 553.797 691.258 556.086 691.258C558.375 691.258 560.221 693.222 560.221 695.658Z" fill="white"/>
<path d="M519.978 719.939H577.72" stroke="#263238" stroke-width="2" stroke-miterlimit="10"/>
<path d="M519.978 728.033H577.72" stroke="#263238" stroke-width="2" stroke-miterlimit="10"/>
<path d="M519.978 736.126H577.72" stroke="#263238" stroke-width="2" stroke-miterlimit="10"/>
<path d="M519.978 744.22H577.72" stroke="#263238" stroke-width="2" stroke-miterlimit="10"/>
<path d="M519.978 752.314H577.72" stroke="#263238" stroke-width="2" stroke-miterlimit="10"/>
<path d="M463.787 760.407H577.72" stroke="#263238" stroke-width="2" stroke-miterlimit="10"/>
<path d="M463.787 768.501H577.72" stroke="#263238" stroke-width="2" stroke-miterlimit="10"/>
<path d="M463.787 776.595H577.72" stroke="#263238" stroke-width="2" stroke-miterlimit="10"/>
<path opacity="0.2" d="M425.907 732.905H287.828V628.237H425.907V732.905Z" fill="black"/>
<path d="M431.815 721.903H293.809V617.157H431.815V721.903Z" fill="url(#paint18_linear_264_2)"/>
<path opacity="0.5" d="M431.815 721.903H293.809V617.157H431.815V721.903Z" fill="white"/>
<path opacity="0.7" d="M429.747 719.703H295.803V636.409H429.747V719.703Z" fill="white"/>
<path d="M347.417 668.863L326.077 677.349L347.417 685.836V692.672L318.989 680.885V673.813L347.417 662.026V668.863Z" fill="#263238"/>
<path d="M369.864 645.053H376.731L356.425 706.895H349.484L369.864 645.053Z" fill="#263238"/>
<path d="M406.709 673.813V680.885L378.207 692.672V685.836L399.547 677.349L378.207 668.863V662.026L406.709 673.813Z" fill="#263238"/>
<path d="M431.815 633.58H293.809V617.157H431.815V633.58Z" fill="url(#paint19_linear_264_2)"/>
<path opacity="0.7" d="M426.498 625.408C426.498 627.844 424.652 629.809 422.363 629.809C420.074 629.809 418.228 627.844 418.228 625.408C418.228 622.972 420.074 621.008 422.363 621.008C424.652 621.008 426.498 622.972 426.498 625.408Z" fill="white"/>
<path opacity="0.7" d="M414.389 625.408C414.389 627.844 412.543 629.809 410.254 629.809C407.965 629.809 406.119 627.844 406.119 625.408C406.119 622.972 407.965 621.008 410.254 621.008C412.543 621.008 414.389 622.972 414.389 625.408Z" fill="white"/>
<path opacity="0.7" d="M402.279 625.408C402.279 627.844 400.433 629.809 398.144 629.809C395.855 629.809 393.935 627.844 393.935 625.408C393.935 622.972 395.855 621.008 398.144 621.008C400.433 621.008 402.279 622.972 402.279 625.408Z" fill="white"/>
<path d="M249.728 741.548L254.01 741.941C255.487 742.046 256.988 742.125 258.514 742.177C261.468 742.282 264.421 742.308 267.375 742.256C270.329 742.177 273.208 741.941 276.088 741.627C278.943 741.313 281.724 740.841 284.432 740.212L283.177 740.762C283.693 740.37 284.136 740.212 284.801 739.741C285.392 739.348 285.982 739.034 286.573 738.484C287.828 737.619 289.084 736.598 290.339 735.576C292.849 733.455 295.434 731.254 297.944 729.054L305.55 722.296L313.229 715.539C314.78 714.203 316.995 714.438 318.25 716.01C319.284 717.424 319.284 719.31 318.324 720.646C316.33 723.632 314.189 726.382 312.048 729.133C309.832 731.909 307.593 734.633 305.328 737.305C302.965 739.898 300.603 742.57 298.092 745.084C296.837 746.42 295.582 747.677 294.179 748.935C293.514 749.563 292.702 750.192 291.963 750.821C291.225 751.449 290.191 752.078 289.305 752.707C289.059 752.864 288.813 752.995 288.567 753.099L288.05 753.257C284.727 754.435 281.331 755.3 278.008 755.928C274.685 756.557 271.288 756.95 267.966 757.186C264.668 757.395 261.345 757.447 257.997 757.343C256.373 757.29 254.724 757.212 253.05 757.107C251.352 756.95 249.801 756.793 247.955 756.557C244.116 756.007 241.384 752.235 241.901 748.07C242.344 744.063 245.74 741.234 249.432 741.548H249.728Z" fill="#CE7A63"/>
<path d="M269.073 764.336L264.2 765.594L257.924 767.244C257.924 767.244 256.595 765.987 254.601 763.944C249.58 758.914 240.202 749.406 237.175 744.927C245.74 738.955 249.728 741.313 266.267 741.47C270.476 746.578 269.073 764.336 269.073 764.336Z" fill="url(#paint20_linear_264_2)"/>
<path opacity="0.2" d="M264.2 765.594L257.924 767.244C257.924 767.244 256.595 765.987 254.601 763.944C254.379 761.665 254.379 759.15 254.453 756.478C254.453 756.478 260.508 759.072 264.2 765.594Z" fill="black"/>
<path d="M203.209 692.515C203.209 692.515 209.707 679.785 227.059 681.042C244.485 682.221 250.835 713.181 245.149 726.461C245.149 726.461 226.321 730.076 207.639 740.134C207.639 740.134 194.791 719.861 195.677 705.716C196.563 691.651 203.209 692.515 203.209 692.515Z" fill="#263238"/>
<path d="M264.126 819.185L271.141 832.386C290.117 827.671 350.739 817.849 358.197 840.008C367.427 867.511 300.529 889.435 263.535 890.771C226.468 892.106 194.201 882.755 217.608 825.314L264.126 819.185Z" fill="#263238"/>
<path opacity="0.2" d="M264.126 819.185L271.141 832.386C290.117 827.671 350.739 817.849 358.197 840.008C367.427 867.511 300.529 889.435 263.535 890.771C226.468 892.106 194.201 882.755 217.608 825.314L264.126 819.185Z" fill="black"/>
<path fill-rule="evenodd" clip-rule="evenodd" d="M347.49 878.905C347.417 878.905 347.269 878.905 347.195 878.905C347.121 878.826 347.121 878.748 347.121 878.591C347.269 878.198 348.45 874.426 349.706 874.033C350.001 873.954 350.296 874.033 350.444 874.19C350.813 874.505 350.961 875.055 350.887 875.526C350.665 876.233 350.296 876.862 349.706 877.255C349.016 877.883 348.278 878.433 347.49 878.905ZM347.786 878.119C348.967 877.648 349.853 876.626 350.444 875.447C350.518 875.133 350.37 874.819 350.149 874.583C350.075 874.505 349.927 874.426 349.853 874.505C349.706 874.557 349.607 874.609 349.558 874.662C348.746 875.683 348.155 876.862 347.786 878.119Z" fill="#263238"/>
<path fill-rule="evenodd" clip-rule="evenodd" d="M347.417 878.905C347.343 878.983 347.195 878.905 347.195 878.826C347.047 878.748 345.349 876.469 345.644 874.897C345.718 874.504 345.94 874.19 346.235 873.954C346.457 873.719 346.9 873.64 347.195 873.876C348.081 874.504 348.007 877.569 347.564 878.748L347.49 878.905C347.49 878.905 347.466 878.905 347.417 878.905ZM346.457 874.426C346.309 874.583 346.211 874.766 346.161 874.976C345.94 875.997 346.826 877.412 347.269 878.119C347.564 876.862 347.49 874.662 346.974 874.269C346.9 874.269 346.752 874.19 346.53 874.347L346.457 874.426Z" fill="#263238"/>
<path fill-rule="evenodd" clip-rule="evenodd" d="M282.364 885.349C282.438 885.27 282.512 885.191 282.66 885.191C282.734 885.191 282.807 885.27 282.807 885.427C282.881 885.82 283.546 889.749 282.66 890.771C282.438 891.006 282.143 891.006 281.921 890.928C281.404 890.849 281.109 890.535 280.961 890.063C280.814 889.356 280.814 888.57 281.109 887.942C281.454 886.999 281.872 886.134 282.364 885.349ZM282.438 886.134C281.7 887.234 281.257 888.492 281.331 889.828C281.478 890.22 281.7 890.456 281.995 890.456C282.143 890.535 282.217 890.456 282.29 890.378C282.389 890.325 282.463 890.22 282.512 890.063C282.734 888.806 282.66 887.47 282.438 886.134Z" fill="#263238"/>
<path d="M306.584 865.389L291.373 871.204L284.063 873.955L285.983 882.441L292.997 880.869L310.349 876.941L306.584 865.389Z" fill="#EBB376"/>
<path d="M287.976 882.834L286.647 872.854C286.573 872.226 286.13 871.833 285.539 871.99L280.888 872.776C280.888 872.776 274.537 873.404 273.282 875.133C269.664 880.241 271.953 902.557 274.39 903.343C275.276 903.579 276.236 902.243 276.605 901.379C277.86 898.471 280.075 891.006 281.109 888.57C282.364 885.82 285.761 884.484 287.312 883.934C287.755 883.855 287.976 883.384 287.976 882.834Z" fill="url(#paint21_linear_264_2)"/>
<path fill-rule="evenodd" clip-rule="evenodd" d="M282.438 885.27C282.512 885.191 282.586 885.191 282.66 885.191C282.807 885.27 285.318 886.37 285.835 887.863C285.909 888.256 285.909 888.649 285.687 889.042C285.613 889.356 285.244 889.592 284.875 889.592C283.841 889.513 282.512 886.763 282.364 885.506V885.349C282.364 885.296 282.389 885.27 282.438 885.27ZM285.318 888.727C285.367 888.518 285.367 888.308 285.318 888.099C285.023 887.156 283.62 886.291 282.881 885.899C283.25 887.156 284.284 889.042 284.949 889.12C285.023 889.12 285.17 889.12 285.244 888.806L285.318 888.727Z" fill="#263238"/>
<path opacity="0.2" d="M306.584 865.389L291.373 871.204L292.997 880.869L310.349 876.941L306.584 865.389Z" fill="black"/>
<path d="M295.729 882.284L300.086 882.677L297.206 866.647L292.185 869.554L295.729 882.284Z" fill="url(#paint22_linear_264_2)"/>
<path opacity="0.6" d="M295.729 882.284L300.086 882.677L297.206 866.647L292.185 869.554L295.729 882.284Z" fill="white"/>
<path opacity="0.2" d="M232.154 819.97L254.97 846.923C254.97 846.923 280.223 846.295 310.866 862.246C310.866 862.246 343.725 847.788 346.752 835.765C350.665 820.049 271.141 832.386 271.141 832.386L232.154 819.97Z" fill="black"/>
<path d="M272.101 826.021L269.221 823.821C268.187 823.035 266.784 822.799 265.603 823.192L259.77 825.314C257.407 826.178 255.635 828.143 254.896 830.657L254.453 832.15C258.957 836.158 266.489 836.944 266.489 836.944L268.63 837.415C270.55 837.808 272.322 836.629 272.691 834.665L273.651 830.186C274.021 828.614 273.356 826.964 272.101 826.021Z" fill="#CE7A63"/>
<path d="M332.206 835.686V839.694C332.206 840.716 331.098 841.108 330.138 841.108H255.192C254.232 841.108 253.124 840.716 253.124 839.694V835.686H332.206Z" fill="#263238"/>
<path opacity="0.4" d="M332.206 835.686V839.694C332.206 840.716 331.098 841.108 330.138 841.108H255.192C254.232 841.108 253.124 840.716 253.124 839.694V835.686H332.206Z" fill="white"/>
<path opacity="0.2" d="M332.206 835.686V839.694C332.206 840.716 331.098 841.108 330.138 841.108H280.74C279.78 841.108 278.599 840.716 278.599 839.694V835.686H332.206Z" fill="black"/>
<path d="M344.758 794.275L335.824 837.336C335.528 838.751 334.273 839.772 332.944 839.772H284.21C282.955 839.772 282.069 838.437 282.364 837.022L291.299 794.354C291.594 792.939 292.85 792.232 294.179 792.232H342.912C344.241 792.232 345.054 792.861 344.758 794.275Z" fill="#263238"/>
<path opacity="0.4" d="M344.758 794.275L335.824 837.336C335.528 838.751 334.273 839.772 332.944 839.772H285.909C284.58 839.772 283.767 838.437 284.063 837.022L292.923 794.354C293.219 792.939 294.548 792.232 295.877 792.232H342.912C344.241 792.232 345.054 792.861 344.758 794.275Z" fill="white"/>
<path opacity="0.2" d="M320.761 816.12V816.199C320.761 819.813 316.995 822.878 314.263 822.878C311.605 822.878 309.98 819.813 310.719 816.199C311.531 812.584 314.189 809.598 316.921 809.519C316.109 813.213 317.807 816.199 320.465 816.199C320.539 816.199 320.761 816.199 320.761 816.12Z" fill="black"/>
<path d="M317.216 883.855L333.166 886.606L340.845 888.02L343.06 879.534L336.119 877.333L319.21 871.833L317.216 883.855Z" fill="#EBB376"/>
<path d="M341.509 878.198L338.039 887.627C337.817 888.177 338.113 888.727 338.63 888.963L343.06 890.613C343.06 890.613 348.893 893.364 350.813 892.499C356.277 889.906 364.473 869.24 362.627 867.275C361.963 866.568 360.56 867.197 359.822 867.825C357.385 869.711 352.068 875.133 350.075 876.705C347.712 878.512 344.094 877.962 342.543 877.569C342.1 877.491 341.657 877.726 341.509 878.198Z" fill="url(#paint23_linear_264_2)"/>
<path opacity="0.2" d="M317.216 883.855L333.166 886.606L336.119 877.333L319.21 871.833L317.216 883.855Z" fill="black"/>
<path d="M333.387 875.526C333.387 875.526 268.335 836.629 245.888 837.729C223.441 838.829 220.192 859.889 229.422 873.09C238.725 886.291 255.782 889.513 255.782 889.513C255.782 889.513 244.19 871.99 245.888 867.039C247.512 862.089 254.158 869.004 254.158 869.004C254.158 869.004 295.065 883.07 330.877 886.291L333.387 875.526Z" fill="#263238"/>
<path d="M334.421 874.505L330.729 871.833L326.003 887.313H331.689L334.421 874.505Z" fill="url(#paint24_linear_264_2)"/>
<path opacity="0.6" d="M334.421 874.505L330.729 871.833L326.003 887.313H331.689L334.421 874.505Z" fill="white"/>
<path d="M264.126 819.185L217.608 825.314C217.386 820.52 216.869 815.491 215.762 809.834C214.58 803.704 212.808 796.868 210.076 788.46C207.861 781.781 205.129 774.159 201.585 765.279C198.852 758.286 202.323 750.742 209.116 749.092C210.962 748.62 212.882 748.227 214.876 747.835C222.629 746.42 228.979 745.32 235.993 745.084C238.282 745.006 240.719 745.006 243.008 745.006C251.352 745.163 258.662 754.435 259.917 763.158C260.582 767.951 261.616 771.566 262.28 783.274C263.092 793.175 263.609 802.919 264.126 819.185Z" fill="url(#paint25_linear_264_2)"/>
<path d="M213.399 722.375C216.131 729.369 219.897 742.334 216.057 747.678C216.057 747.678 222.333 745.792 237.027 753.021C240.35 746.499 237.175 744.927 237.175 744.927C229.2 743.984 228.314 738.091 228.61 732.355L213.399 722.375Z" fill="#CE7A63"/>
<path d="M234 751.606C229.57 752.864 228.979 760.25 228.979 760.25C228.979 760.25 217.238 753.571 213.177 748.306C214.654 747.206 216.795 745.084 216.795 745.084C216.795 745.084 231.046 749.171 234 751.606Z" fill="white"/>
<path d="M238.135 750.271C238.135 750.271 242.196 750.899 244.263 756.478C244.042 745.792 239.242 744.613 239.242 744.613C239.242 744.613 237.692 743.749 235.107 744.534C238.873 746.106 238.135 750.271 238.135 750.271Z" fill="white"/>
<path opacity="0.2" d="M219.601 726.461L228.61 732.355C228.536 733.69 228.536 735.026 228.683 736.362C225.656 736.284 221.078 733.455 220.192 730.312C219.749 728.74 219.527 727.168 219.601 726.461Z" fill="black"/>
<path d="M205.941 708.624C209.338 720.018 210.593 724.89 217.46 729.683C227.871 736.834 240.276 730.704 240.128 718.682C240.055 707.838 234.443 690.943 222.702 688.586C211.184 686.307 202.544 697.23 205.941 708.624Z" fill="#CE7A63"/>
<path d="M220.192 708.702C220.413 709.724 221.078 710.352 221.669 710.274C222.259 710.117 222.555 709.252 222.333 708.309C222.038 707.288 221.373 706.581 220.783 706.738C220.192 706.895 219.97 707.759 220.192 708.702Z" fill="#263238"/>
<path d="M231.563 705.952C231.859 706.895 232.523 707.602 233.114 707.445C233.705 707.366 233.926 706.423 233.705 705.48C233.483 704.537 232.818 703.83 232.228 703.909C231.637 704.066 231.342 704.93 231.563 705.952Z" fill="#263238"/>
<path d="M231.932 704.066L233.926 702.887C233.926 702.887 233.335 705.009 231.932 704.066Z" fill="#263238"/>
<path d="M228.61 708.781C228.61 708.781 231.194 712.631 233.409 714.281C232.523 715.774 230.382 715.617 230.382 715.617L228.61 708.781Z" fill="#BA4D3C"/>
<path d="M226.099 720.332C226.591 720.332 227.108 720.279 227.65 720.175C227.797 720.096 227.871 719.939 227.871 719.782C227.797 719.625 227.65 719.546 227.502 719.546C223.588 720.41 220.93 717.817 220.93 717.817C220.783 717.66 220.635 717.66 220.561 717.817C220.413 717.896 220.413 718.053 220.561 718.21C220.635 718.289 222.776 720.41 226.099 720.332Z" fill="#263238"/>
<path d="M216.943 702.966C217.091 702.966 217.214 702.914 217.312 702.809C218.641 700.687 220.635 700.844 220.709 700.844C221.004 700.923 221.226 700.687 221.226 700.294C221.226 699.98 221.004 699.744 220.709 699.666C220.561 699.666 218.051 699.508 216.352 702.102C216.205 702.337 216.278 702.73 216.574 702.887C216.672 702.992 216.795 703.018 216.943 702.966Z" fill="#263238"/>
<path d="M234.664 698.565C234.812 698.565 234.935 698.513 235.034 698.408C235.255 698.172 235.255 697.78 235.034 697.544C232.818 695.186 230.308 695.579 230.234 695.658C229.939 695.658 229.717 695.972 229.791 696.287C229.865 696.601 230.16 696.837 230.456 696.758C230.603 696.758 232.523 696.444 234.221 698.33C234.369 698.487 234.517 698.565 234.664 698.565Z" fill="#263238"/>
<path d="M220.561 706.816L222.555 705.716C222.555 705.716 221.89 707.759 220.561 706.816Z" fill="#263238"/>
<path d="M209.781 714.989C209.781 714.989 216.648 705.795 212.217 695.265C212.217 695.265 225.804 685.05 235.403 699.666C235.403 699.666 233.557 685.6 218.789 686.543C204.021 687.486 191.912 712.16 211.479 723.554L209.781 714.989Z" fill="#263238"/>
<path d="M204.612 718.839C206.384 720.961 208.821 721.982 210.814 722.061C213.916 722.139 214.506 718.76 212.882 715.932C211.405 713.338 208.009 710.195 205.35 711.452C202.692 712.71 202.544 716.482 204.612 718.839Z" fill="#CE7A63"/>
<path d="M211.036 695.579C211.036 695.579 228.24 686.386 238.504 705.716" stroke="#263238" stroke-width="0.9" stroke-linecap="round" stroke-linejoin="round"/>
<path d="M326.003 712.867L325.413 716.089C325.191 717.267 324.453 718.289 323.419 718.839L318.546 721.196C316.552 722.139 314.337 721.982 312.417 720.882L311.309 720.175C311.9 714.753 316.33 709.488 316.33 709.488L317.438 707.838C318.398 706.345 320.17 705.952 321.499 706.974L324.674 709.252C325.708 709.96 326.225 711.453 326.003 712.867Z" fill="#CE7A63"/>
<path opacity="0.2" d="M215.762 809.834C214.58 803.705 212.808 796.868 210.076 788.46C214.137 779.895 218.124 772.666 218.124 772.666C218.124 772.666 232.523 794.668 215.762 809.834Z" fill="black"/>
<path d="M214.506 771.173L215.54 775.573C215.934 777.092 216.352 778.612 216.795 780.131C217.632 783.169 218.543 786.155 219.527 789.089C220.561 792.075 221.669 794.904 222.85 797.733C224.081 800.509 225.41 803.155 226.837 805.669L225.951 804.569C226.394 805.04 226.764 805.433 227.354 805.905C227.871 806.376 228.388 806.848 229.053 807.319C230.234 808.262 231.563 809.205 232.892 810.148C235.55 812.034 238.283 813.92 241.088 815.727L249.58 821.306L257.998 826.807C259.696 827.907 260.213 830.264 259.179 831.993C258.293 833.565 256.595 834.115 255.044 833.643C251.795 832.465 248.694 831.207 245.519 829.95C242.368 828.64 239.242 827.252 236.141 825.785C233.04 824.292 229.939 822.799 226.837 821.071C225.287 820.206 223.736 819.263 222.186 818.32C221.373 817.849 220.561 817.22 219.823 816.67C219.011 816.12 218.124 815.334 217.238 814.627C217.041 814.418 216.869 814.208 216.722 813.999L216.352 813.527C214.285 810.541 212.365 807.398 210.741 804.255C209.19 801.033 207.713 797.811 206.458 794.511C205.178 791.263 204.07 787.936 203.135 784.531C202.643 782.855 202.175 781.152 201.732 779.424C201.289 777.695 200.994 776.123 200.625 774.159C199.886 770.073 202.397 766.065 206.236 765.279C209.928 764.494 213.546 767.008 214.433 770.858L214.506 771.173Z" fill="#CE7A63"/>
<path d="M205.498 750.742C197.449 756.321 196.785 765.201 200.477 782.331C206.089 785.631 220.044 782.252 220.044 782.252C220.044 782.252 216.574 755.771 205.498 750.742Z" fill="url(#paint26_linear_264_2)"/>
<path d="M580.526 521.212C580.969 522.076 580.822 523.019 580.305 523.255C579.714 523.491 578.976 523.019 578.607 522.155C578.237 521.291 578.385 520.348 578.902 520.112C579.419 519.798 580.157 520.348 580.526 521.212Z" fill="#263238"/>
<path d="M580.896 522.941C580.896 522.941 581.265 528.913 580.231 532.37C582.298 533.077 584.514 531.192 584.514 531.192L580.896 522.941Z" fill="#DE5753"/>
<path d="M581.412 514.847C581.56 514.742 581.634 514.637 581.634 514.533C581.708 514.218 581.486 513.904 581.191 513.825C578.311 513.275 576.613 515.083 576.539 515.161C576.317 515.397 576.317 515.79 576.539 516.026C576.76 516.183 577.13 516.183 577.277 515.947C577.351 515.947 578.754 514.454 581.043 514.926C581.191 514.978 581.314 514.952 581.412 514.847Z" fill="#263238"/>
<path d="M606.296 512.883C610.283 520.74 618.553 534.178 626.528 534.728C626.528 534.728 630.072 543.136 618.258 553.429C605.336 564.745 606.813 552.015 606.813 552.015C612.499 544 607.994 538.578 602.678 534.413L606.296 512.883Z" fill="#E4897B"/>
<path d="M607.108 505.732C611.17 516.812 614.123 523.019 611.391 531.034C607.404 543.136 592.784 544.393 585.695 534.885C579.345 526.32 573.733 509.739 581.708 500.546C589.609 491.588 603.047 494.731 607.108 505.732Z" fill="#E4897B"/>
<path d="M613.532 523.884C611.465 528.991 592.857 532.056 587.689 518.619C587.689 518.619 578.09 516.104 573.659 508.404C569.155 500.781 571.961 494.338 577.942 491.98C583.258 489.937 584.883 492.53 584.883 492.53C584.883 492.53 607.33 478.936 609.102 491.273C624.239 494.416 616.191 517.519 613.532 523.884Z" fill="#263238"/>
<path d="M592.636 517.754C593.744 520.583 593.67 523.884 593.005 526.32C591.971 530.013 588.944 529.541 587.098 526.634C585.474 523.962 584.071 518.855 586.138 516.026C588.206 513.275 591.381 514.454 592.636 517.754Z" fill="#E4897B"/>
<path d="M629.925 535.513C628.522 530.877 626.75 525.455 621.359 527.341C616.707 528.991 603.047 537.949 602.013 541.014C604.45 543.136 605.484 546.907 605.484 546.907L629.925 535.513Z" fill="url(#paint27_linear_264_2)"/>
<path opacity="0.5" d="M629.925 535.513C628.522 530.877 626.75 525.455 621.359 527.341C616.707 528.991 603.047 537.949 602.013 541.014C604.45 543.136 605.484 546.907 605.484 546.907L629.925 535.513Z" fill="#FAFAFA"/>
<path d="M650.452 534.413C657.467 537.635 663.964 541.171 670.388 545.179C676.886 549.186 683.089 553.508 689.217 558.773C690.989 560.344 692.392 561.916 693.721 563.409C695.051 564.981 696.306 566.474 697.487 568.045C699.924 571.11 702.139 574.253 704.28 577.396C708.637 583.761 712.624 590.205 716.39 596.962L710.188 601.913L695.272 585.49C692.835 582.74 690.325 580.068 687.888 577.475C686.633 576.217 685.378 574.882 684.122 573.782C682.941 572.603 681.686 571.503 680.652 570.717C677.994 568.752 674.966 566.788 672.013 564.981C669.01 563.147 665.958 561.366 662.857 559.637C656.728 556.18 650.304 552.801 644.176 549.736L650.452 534.413Z" fill="#DC897C"/>
<path d="M716.021 616.214L712.329 609.142L723.7 605.449C723.7 605.449 726.063 611.185 723.479 615.743L716.021 616.214Z" fill="#E4897B"/>
<path d="M708.12 598.77L715.43 596.177L723.7 605.449L712.329 609.142L708.12 598.77Z" fill="#E4897B"/>
<path d="M642.846 530.091C652.076 526.162 672.677 543.057 672.677 543.057L664.998 567.809C664.998 567.809 655.325 566.238 645.652 557.28C635.61 547.85 633.395 534.02 642.846 530.091Z" fill="#263238"/>
<path opacity="0.2" d="M656.211 548.636C662.045 553.98 665.367 558.223 665.367 566.709L664.998 567.809C664.998 567.809 655.325 566.238 645.652 557.28C645.062 556.704 644.496 556.127 643.954 555.551L656.211 548.636Z" fill="black"/>
<path d="M679.914 624.072C662.266 627.451 629.925 633.58 621.285 635.231C618.923 629.966 613.828 611.107 604.155 588.319C601.57 582.189 598.543 575.746 595.22 569.145C591.602 562.073 587.541 554.844 582.963 547.693C582.963 547.693 592.267 543.921 601.644 541.721C609.028 539.914 632.214 530.484 639.007 529.777C647.941 528.913 648.975 533.077 648.975 533.077C648.975 533.077 661.085 546.514 679.914 624.072Z" fill="#263238"/>
<path opacity="0.2" d="M604.155 588.319C601.57 582.19 598.543 575.746 595.22 569.145L599.06 566.631C599.06 566.631 607.994 580.854 604.155 588.319Z" fill="black"/>
<path d="M531.497 579.282L523.892 578.103L524.778 590.833C524.778 590.833 530.611 591.069 533.786 586.904L531.497 579.282Z" fill="#E4897B"/>
<path d="M513.259 577.239L516.065 588.083L524.778 590.833L523.892 578.103L513.259 577.239Z" fill="#E4897B"/>
<path d="M592.414 561.13C592.193 562.388 592.045 563.33 591.824 564.352C591.627 565.347 591.405 566.343 591.159 567.338C590.716 569.329 590.224 571.319 589.682 573.31C588.575 577.239 587.246 581.168 585.621 585.018C583.997 588.869 582.077 592.641 579.714 596.334C577.204 600.027 574.25 603.642 570.263 606.471C568.195 607.964 565.906 609.142 563.47 609.928C563.174 610.033 562.854 610.138 562.51 610.242L562.067 610.321L561.328 610.478C560.368 610.714 559.482 610.714 558.596 610.714C556.972 610.714 555.569 610.399 554.314 610.007C551.803 609.142 549.809 608.121 547.963 607.021C546.117 605.92 544.493 604.663 542.942 603.406C536.666 598.298 531.571 592.641 526.845 586.354L532.31 580.461C537.921 584.704 543.828 589.105 549.588 592.405C551.065 593.269 552.541 593.976 553.871 594.605C555.274 595.234 556.603 595.705 557.563 595.784C558.079 595.862 558.449 595.862 558.596 595.862C558.67 595.784 558.596 595.784 558.522 595.784C558.522 595.784 558.498 595.784 558.449 595.784L558.67 595.705C558.769 595.653 558.892 595.6 559.039 595.548C559.975 595.181 560.91 594.605 561.845 593.819C563.691 592.248 565.463 589.969 567.088 587.297C568.638 584.625 570.041 581.639 571.297 578.418C572.552 575.275 573.586 571.896 574.545 568.517C575.038 566.788 575.481 565.059 575.875 563.33L576.465 560.816C576.613 559.952 576.834 559.009 576.908 558.38L592.414 561.13Z" fill="#DC897C"/>
<path d="M600.832 560.344C607.551 573.703 586.729 594.448 586.729 594.448L566.128 579.282C566.128 579.282 570.41 565.688 577.13 554.058C585.326 539.757 595.663 550.208 600.832 560.344Z" fill="#263238"/>
<path d="M595.737 880.634L583.701 881.97L583.111 874.583L581.486 854.467L593.448 853.131L595.294 875.369L595.737 880.634Z" fill="#E4897B"/>
<path d="M699.776 878.984H688.184L687.593 876.233L687.519 875.919L683.901 858.081L683.827 857.689L682.424 850.852H694.091L699.776 878.984Z" fill="#E4897B"/>
<path opacity="0.2" d="M593.448 853.131L595.294 875.369L583.111 874.583L581.486 854.467L593.448 853.131Z" fill="black"/>
<path opacity="0.2" d="M699.481 877.491H699.407L687.519 875.919L684.049 858.71L695.863 859.653L699.333 876.941L699.481 877.491Z" fill="black"/>
<path d="M686.559 878.276H700.662C701.179 878.276 701.549 878.591 701.696 879.141L703.985 890.142C704.133 891.085 703.542 892.106 702.656 892.263C702.508 892.316 702.385 892.342 702.287 892.342C697.709 892.264 694.386 891.949 688.627 891.949C685.082 891.949 674.45 892.342 669.576 892.342C664.703 892.342 664.112 887.234 666.106 886.763C675.04 884.641 681.76 881.812 684.639 879.062C685.156 878.512 685.821 878.276 686.559 878.276Z" fill="#263238"/>
<path d="M582.446 877.883H596.549C597.066 877.883 597.435 878.198 597.583 878.748L599.872 889.749C600.02 890.692 599.429 891.713 598.543 891.871C598.395 891.923 598.272 891.949 598.174 891.949C593.596 891.871 590.273 891.556 584.514 891.556C580.969 891.556 570.337 891.949 565.463 891.949C560.59 891.949 559.999 886.842 561.993 886.37C570.927 884.248 577.647 881.42 580.526 878.669C581.043 878.119 581.708 877.883 582.446 877.883Z" fill="#263238"/>
<path d="M580.379 869.554L597.509 870.183C591.307 748.306 588.353 742.098 643.954 684.5C645.283 701.944 646.76 719.939 648.163 735.026C649.049 744.377 649.344 752.471 650.821 758.443C660.716 798.833 684.492 870.261 684.492 870.261L701.253 871.047C701.253 871.047 680.283 773.137 678.142 741.234C675.336 699.351 684.492 654.011 679.249 621.243L620.916 631.852C567.9 714.281 558.227 732.119 580.379 869.554Z" fill="url(#paint28_linear_264_2)"/>
<path opacity="0.3" d="M580.379 869.554L597.509 870.183C591.307 748.306 588.353 742.098 643.954 684.5C645.283 701.944 646.76 719.939 648.163 735.026C649.049 744.377 649.344 752.471 650.821 758.443C660.716 798.833 684.492 870.261 684.492 870.261L701.253 871.047C701.253 871.047 680.283 773.137 678.142 741.234C675.336 699.351 684.492 654.011 679.249 621.243L620.916 631.852C567.9 714.281 558.227 732.119 580.379 869.554Z" fill="white"/>
<path opacity="0.2" d="M643.954 684.421C645.283 701.866 646.76 719.939 648.163 735.026C650.23 713.26 652.815 697.78 652.815 697.78C652.815 697.78 655.251 695.658 661.823 684.421C668.469 673.184 661.823 652.204 661.823 652.204C662.045 671.691 643.954 684.421 643.954 684.421Z" fill="black"/>
<path d="M578.459 867.589L579.271 872.697H599.429V867.982L578.459 867.589Z" fill="url(#paint29_linear_264_2)"/>
<path d="M682.498 869.554L684.418 874.269H702.804L702.435 869.554H682.498Z" fill="url(#paint30_linear_264_2)"/>
<path opacity="0.7" d="M578.459 867.589L579.271 872.697H599.429V867.982L578.459 867.589Z" fill="white"/>
<path opacity="0.7" d="M682.498 869.554L684.418 874.269H702.804L702.435 869.554H682.498Z" fill="white"/>
<defs>
<filter id="filter0_d_264_2" x="182.545" y="-51.573" width="965.783" height="907.305" filterUnits="userSpaceOnUse" color-interpolation-filters="sRGB">
<feFlood flood-opacity="0" result="BackgroundImageFix"/>
<feColorMatrix in="SourceAlpha" type="matrix" values="0 0 0 0 0 0 0 0 0 0 0 0 0 0 0 0 0 0 127 0" result="hardAlpha"/>
<feOffset dy="12"/>
<feGaussianBlur stdDeviation="12"/>
<feComposite in2="hardAlpha" operator="out"/>
<feColorMatrix type="matrix" values="0 0 0 0 0 0 0 0 0 0 0 0 0 0 0 0 0 0 0.03 0"/>
<feBlend mode="normal" in2="BackgroundImageFix" result="effect1_dropShadow_264_2"/>
<feBlend mode="normal" in="SourceGraphic" in2="effect1_dropShadow_264_2" result="shape"/>
</filter>
<linearGradient id="paint0_linear_264_2" x1="318.866" y1="547.931" x2="318.866" y2="1184.06" gradientUnits="userSpaceOnUse">
<stop stop-color="#7123C2"/>
<stop offset="1" stop-color="#9C12C0"/>
</linearGradient>
<linearGradient id="paint1_linear_264_2" x1="192.719" y1="361.978" x2="393.719" y2="361.978" gradientUnits="userSpaceOnUse">
<stop stop-color="#7123C2"/>
<stop offset="1" stop-color="#9C12C0"/>
</linearGradient>
<linearGradient id="paint2_linear_264_2" x1="482.646" y1="361.978" x2="742.646" y2="361.978" gradientUnits="userSpaceOnUse">
<stop stop-color="#7123C2"/>
<stop offset="1" stop-color="#9C12C0"/>
</linearGradient>
<linearGradient id="paint3_linear_264_2" x1="186.39" y1="673.447" x2="186.39" y2="796.318" gradientUnits="userSpaceOnUse">
<stop stop-color="#0CA8FD"/>
<stop offset="1" stop-color="#6FD6A2"/>
</linearGradient>
<linearGradient id="paint4_linear_264_2" x1="203.932" y1="680.317" x2="203.932" y2="803.39" gradientUnits="userSpaceOnUse">
<stop stop-color="#0CA8FD"/>
<stop offset="1" stop-color="#5B8C78"/>
</linearGradient>
<linearGradient id="paint5_linear_264_2" x1="196.01" y1="789.796" x2="196.01" y2="835.608" gradientUnits="userSpaceOnUse">
<stop stop-color="#FE792E"/>
<stop offset="1" stop-color="#FAB920"/>
</linearGradient>
<linearGradient id="paint6_linear_264_2" x1="649.51" y1="725.021" x2="649.51" y2="765.829" gradientUnits="userSpaceOnUse">
<stop stop-color="#0DA9FC"/>
<stop offset="1" stop-color="#81DAAD"/>
</linearGradient>
<linearGradient id="paint7_linear_264_2" x1="701.833" y1="704.181" x2="701.833" y2="730.157" gradientUnits="userSpaceOnUse">
<stop stop-color="#0DA9FC"/>
<stop offset="1" stop-color="#81DAAD"/>
</linearGradient>
<linearGradient id="paint8_linear_264_2" x1="707.447" y1="736.822" x2="707.447" y2="761.459" gradientUnits="userSpaceOnUse">
<stop stop-color="#0DA9FC"/>
<stop offset="1" stop-color="#81DAAD"/>
</linearGradient>
<linearGradient id="paint9_linear_264_2" x1="676.96" y1="787.517" x2="676.96" y2="835.608" gradientUnits="userSpaceOnUse">
<stop stop-color="#FE7A2E"/>
<stop offset="1" stop-color="#FAB820"/>
</linearGradient>
<linearGradient id="paint10_linear_264_2" x1="168.652" y1="891.203" x2="741.348" y2="891.203" gradientUnits="userSpaceOnUse">
<stop stop-color="#9614C0"/>
<stop offset="1" stop-color="#9C12C0"/>
</linearGradient>
<linearGradient id="paint11_linear_264_2" x1="439.051" y1="490.33" x2="439.051" y2="758.129" gradientUnits="userSpaceOnUse">
<stop stop-color="#4436C4"/>
<stop offset="1" stop-color="#9C12C0"/>
</linearGradient>
<linearGradient id="paint12_linear_264_2" x1="439.051" y1="490.33" x2="439.051" y2="506.753" gradientUnits="userSpaceOnUse">
<stop stop-color="#4436C4"/>
<stop offset="1" stop-color="#9C12C0"/>
</linearGradient>
<linearGradient id="paint13_linear_264_2" x1="488.191" y1="521.919" x2="488.191" y2="626.665" gradientUnits="userSpaceOnUse">
<stop stop-color="#4436C4"/>
<stop offset="1" stop-color="#9C12C0"/>
</linearGradient>
<linearGradient id="paint14_linear_264_2" x1="488.191" y1="521.919" x2="488.191" y2="538.342" gradientUnits="userSpaceOnUse">
<stop stop-color="#4436C4"/>
<stop offset="1" stop-color="#9C12C0"/>
</linearGradient>
<linearGradient id="paint15_linear_264_2" x1="488.228" y1="566.945" x2="488.228" y2="624.465" gradientUnits="userSpaceOnUse">
<stop stop-color="#4436C4"/>
<stop offset="1" stop-color="#9C12C0"/>
</linearGradient>
<linearGradient id="paint16_linear_264_2" x1="520.754" y1="687.407" x2="520.754" y2="792.075" gradientUnits="userSpaceOnUse">
<stop stop-color="#4436C4"/>
<stop offset="1" stop-color="#9C12C0"/>
</linearGradient>
<linearGradient id="paint17_linear_264_2" x1="520.754" y1="687.407" x2="520.754" y2="703.83" gradientUnits="userSpaceOnUse">
<stop stop-color="#4436C4"/>
<stop offset="1" stop-color="#9C12C0"/>
</linearGradient>
<linearGradient id="paint18_linear_264_2" x1="362.812" y1="617.157" x2="362.812" y2="721.903" gradientUnits="userSpaceOnUse">
<stop stop-color="#4436C4"/>
<stop offset="1" stop-color="#9C12C0"/>
</linearGradient>
<linearGradient id="paint19_linear_264_2" x1="362.812" y1="617.157" x2="362.812" y2="633.58" gradientUnits="userSpaceOnUse">
<stop stop-color="#4436C4"/>
<stop offset="1" stop-color="#9C12C0"/>
</linearGradient>
<linearGradient id="paint20_linear_264_2" x1="253.236" y1="740.881" x2="253.236" y2="767.244" gradientUnits="userSpaceOnUse">
<stop stop-color="#4436C4"/>
<stop offset="1" stop-color="#9C12C0"/>
</linearGradient>
<linearGradient id="paint21_linear_264_2" x1="279.688" y1="871.955" x2="279.688" y2="903.371" gradientUnits="userSpaceOnUse">
<stop stop-color="#4436C4"/>
<stop offset="1" stop-color="#9C12C0"/>
</linearGradient>
<linearGradient id="paint22_linear_264_2" x1="296.135" y1="866.647" x2="296.135" y2="882.677" gradientUnits="userSpaceOnUse">
<stop stop-color="#4436C4"/>
<stop offset="1" stop-color="#9C12C0"/>
</linearGradient>
<linearGradient id="paint23_linear_264_2" x1="350.429" y1="866.963" x2="350.429" y2="892.667" gradientUnits="userSpaceOnUse">
<stop stop-color="#4436C4"/>
<stop offset="1" stop-color="#9C12C0"/>
</linearGradient>
<linearGradient id="paint24_linear_264_2" x1="330.212" y1="871.833" x2="330.212" y2="887.313" gradientUnits="userSpaceOnUse">
<stop stop-color="#4436C4"/>
<stop offset="1" stop-color="#9C12C0"/>
</linearGradient>
<linearGradient id="paint25_linear_264_2" x1="232.387" y1="745.006" x2="232.387" y2="825.314" gradientUnits="userSpaceOnUse">
<stop stop-color="#4436C4"/>
<stop offset="1" stop-color="#9C12C0"/>
</linearGradient>
<linearGradient id="paint26_linear_264_2" x1="209.183" y1="750.742" x2="209.183" y2="783.778" gradientUnits="userSpaceOnUse">
<stop stop-color="#4436C4"/>
<stop offset="1" stop-color="#9C12C0"/>
</linearGradient>
<linearGradient id="paint27_linear_264_2" x1="615.969" y1="526.957" x2="615.969" y2="546.907" gradientUnits="userSpaceOnUse">
<stop stop-color="#4436C4"/>
<stop offset="1" stop-color="#9C12C0"/>
</linearGradient>
<linearGradient id="paint28_linear_264_2" x1="635.256" y1="621.243" x2="635.256" y2="871.047" gradientUnits="userSpaceOnUse">
<stop stop-color="#4436C4"/>
<stop offset="1" stop-color="#9C12C0"/>
</linearGradient>
<linearGradient id="paint29_linear_264_2" x1="588.944" y1="867.589" x2="588.944" y2="872.697" gradientUnits="userSpaceOnUse">
<stop stop-color="#4436C4"/>
<stop offset="1" stop-color="#9C12C0"/>
</linearGradient>
<linearGradient id="paint30_linear_264_2" x1="692.651" y1="869.554" x2="692.651" y2="874.269" gradientUnits="userSpaceOnUse">
<stop stop-color="#4436C4"/>
<stop offset="1" stop-color="#9C12C0"/>
</linearGradient>
</defs>
</svg>
