<svg width="22" height="22" viewBox="0 0 22 22" fill="none" xmlns="http://www.w3.org/2000/svg">
<path fill-rule="evenodd" clip-rule="evenodd" d="M9.5371 20.5373C4.27627 20.5373 0 16.2606 0 11.0002C0 5.73991 4.27627 1.46313 9.5371 1.46313C11.9493 1.46313 14.2133 2.33909 15.9769 3.95602C15.3891 4.30455 14.8224 4.68754 14.2798 5.10299C12.9372 4.01869 11.2629 3.42852 9.5371 3.43125C5.36792 3.43125 1.96812 6.83105 1.96812 11.0002C1.96812 15.1694 5.36792 18.5687 9.5371 18.5687C15.3379 18.5687 18.7819 12.368 16.287 7.54715C16.7778 7.0906 17.286 6.65314 17.8105 6.23575C18.6454 7.67707 19.0742 9.31176 19.0742 10.9997C19.0742 16.2606 14.7979 20.5373 9.5371 20.5373Z" fill="url(#paint0_linear_37_59)"/>
<path fill-rule="evenodd" clip-rule="evenodd" d="M9.78779 15.9028C9.7374 15.902 9.68837 15.8863 9.64691 15.8577C9.60544 15.829 9.5734 15.7887 9.55484 15.7419C9.53708 15.7064 7.99831 11.7336 5.6186 10.2304C5.15322 9.94412 4.79542 9.64012 4.93854 8.96006C5.08166 8.29827 5.52877 7.9222 6.33419 7.74356C7.76536 7.43905 9.30464 9.65788 9.8766 10.5704C11.8813 7.65424 15.8891 3.07346 21.7224 2.53652C22.0035 2.50353 22.1081 2.9207 21.8477 3.03743C21.7584 3.07296 13.42 6.88435 10.038 15.7597C10.0127 15.8036 9.97622 15.8399 9.93226 15.8651C9.88829 15.8902 9.83843 15.9032 9.78779 15.9028Z" fill="url(#paint1_linear_37_59)"/>
<defs>
<linearGradient id="paint0_linear_37_59" x1="9.5371" y1="1.46313" x2="9.5371" y2="20.5373" gradientUnits="userSpaceOnUse">
<stop stop-color="#7123C2"/>
<stop offset="1" stop-color="#9C12C0"/>
</linearGradient>
<linearGradient id="paint1_linear_37_59" x1="13.4518" y1="2.53467" x2="13.4518" y2="15.9028" gradientUnits="userSpaceOnUse">
<stop stop-color="#7123C2"/>
<stop offset="1" stop-color="#9C12C0"/>
</linearGradient>
</defs>
</svg>
