<svg width="51" height="51" viewBox="0 0 51 51" fill="none" xmlns="http://www.w3.org/2000/svg">
<path d="M50.639 21.605L42.2057 10.6499C42.0552 10.4545 41.837 10.3224 41.5939 10.2797C41.3509 10.237 41.1007 10.2867 40.8926 10.4192L35.4477 13.8821H28.3464C28.2545 13.8821 28.1629 13.9016 28.0746 13.9273L22.5685 15.5123L16.8554 13.9497L11.304 10.4192C11.0992 10.2888 10.8535 10.2384 10.6138 10.2777C10.3742 10.3169 10.1575 10.4431 10.005 10.6321L0.677226 22.1862C0.341941 22.6013 0.397346 23.2076 0.801716 23.5555L5.69076 27.763L10.0769 33.6737C8.79414 35.0403 8.81914 37.1958 10.1538 38.5309C10.7454 39.122 11.4978 39.4561 12.2716 39.5338C12.2444 39.7105 12.2308 39.889 12.2308 40.0678C12.2308 41.0003 12.5941 41.8771 13.2533 42.5365C13.9131 43.1961 14.7899 43.5594 15.7224 43.5594C15.7352 43.5594 15.7474 43.5586 15.7598 43.5582C15.7594 43.5821 15.7583 43.6055 15.7583 43.6293C15.7583 44.562 16.1215 45.4388 16.7808 46.0985C17.4404 46.7578 18.3173 47.121 19.2499 47.121C19.4324 47.1207 19.6147 47.1065 19.7951 47.0783C19.8725 47.8821 20.2275 48.6338 20.7991 49.2042C21.4795 49.885 22.3736 50.2252 23.2678 50.2252C24.162 50.2252 25.0561 49.885 25.7369 49.2042L26.2709 48.6702L26.495 48.8509C27.1701 49.5048 28.0465 49.8316 28.923 49.8316C29.8171 49.8316 30.7113 49.4914 31.3917 48.8106C32.0864 48.1159 32.4266 47.1991 32.4123 46.2868C33.3242 46.3006 34.2414 45.9609 34.9361 45.2666C35.6298 44.5723 35.9701 43.6563 35.9566 42.7444C36.9065 42.7594 37.8077 42.3946 38.4799 41.7222C39.1746 41.0277 39.5148 40.1108 39.5005 39.1986C40.4132 39.2124 41.3296 38.8726 42.0243 38.178C43.2098 36.9924 43.3625 35.1599 42.4833 33.8072L45.6858 27.0998L50.5007 22.9566C50.8986 22.6141 50.9593 22.0205 50.6391 21.6049L50.639 21.605ZM10.9879 12.5601L14.9797 15.0983L6.29608 25.6775L2.81628 22.6825L10.9879 12.5601ZM11.5511 34.99L12.7559 33.7852C13.0071 33.5338 13.3389 33.3789 13.693 33.3478C13.7015 33.347 13.7103 33.347 13.7188 33.3466C13.7619 33.3432 13.8049 33.3408 13.8483 33.3412C14.2612 33.347 14.6449 33.5158 14.9294 33.8159C15.4875 34.406 15.4575 35.3701 14.8624 35.9652L13.6942 37.1334C13.1033 37.7243 12.142 37.7243 11.5511 37.1334C10.9603 36.5423 10.9603 35.5808 11.5511 34.9901V34.99ZM14.6507 41.1391C14.3643 40.8531 14.2066 40.4725 14.2066 40.0678C14.2066 39.663 14.3643 39.2824 14.6507 38.9961L16.9867 36.6598C17.4342 36.2124 18.1376 36.0898 18.7097 36.3623C19.2994 36.6434 19.6311 37.2834 19.5446 37.9273C19.4977 38.2727 19.3392 38.5933 19.0933 38.8403L16.7941 41.1392C16.5078 41.4255 16.1272 41.5831 15.7224 41.5831C15.3177 41.5831 14.937 41.4255 14.6507 41.1391ZM18.1781 44.7007C18.0369 44.5604 17.9249 44.3935 17.8487 44.2096C17.7724 44.0256 17.7335 43.8284 17.7341 43.6293C17.7335 43.4302 17.7725 43.233 17.8487 43.049C17.9249 42.8651 18.0369 42.698 18.1781 42.5576L20.5138 40.2215C20.9923 39.7432 21.76 39.6403 22.3459 39.9813C22.881 40.2926 23.1612 40.9039 23.0694 41.5127C23.0181 41.8493 22.8608 42.1608 22.6203 42.402L20.3215 44.7007C20.0351 44.9871 19.6545 45.1448 19.2498 45.1448C18.845 45.1448 18.4645 44.9871 18.1781 44.7007ZM22.196 47.8068C21.6051 47.2159 21.6051 46.2545 22.196 45.6637L23.4007 44.4589C23.4378 44.4219 23.4767 44.3868 23.5172 44.3536C23.7118 44.1954 23.9428 44.0881 24.1892 44.0415L24.2064 44.0391C24.2488 44.0314 24.2919 44.0253 24.3349 44.0214C24.3522 44.0199 24.3695 44.0199 24.3871 44.0188C24.4225 44.0168 24.4575 44.0145 24.4932 44.0149C24.7215 44.0174 24.9463 44.0718 25.1505 44.174C25.3547 44.2761 25.533 44.4234 25.6719 44.6046C26.1262 45.1985 26.0651 46.0807 25.5012 46.6451L24.3391 47.8072C23.7482 48.398 22.7869 48.3976 22.196 47.8068ZM40.6268 36.7805C40.036 37.3718 39.0745 37.3714 38.4837 36.7805C38.4623 36.7593 38.4398 36.7392 38.4164 36.7202L32.0635 30.3006C31.6795 29.9127 31.054 29.9096 30.6661 30.2937C30.2784 30.6773 30.2752 31.3027 30.6589 31.6906L37.0806 38.1792L37.0829 38.1815C37.6737 38.7724 37.6737 39.7341 37.0829 40.325C36.9425 40.4662 36.7755 40.5782 36.5915 40.6544C36.4076 40.7306 36.2103 40.7696 36.0112 40.769C35.812 40.7697 35.6147 40.7307 35.4308 40.6545C35.2468 40.5783 35.0798 40.4663 34.9394 40.325L30.6435 35.9846C30.2599 35.5967 29.6345 35.5936 29.2465 35.9772C28.8587 36.3613 28.8556 36.9867 29.2393 37.3747L33.4693 41.6486C33.491 41.6755 33.5139 41.7012 33.5385 41.7258C34.1294 42.3166 34.1294 43.2785 33.5385 43.8694C32.9474 44.4602 31.9856 44.4598 31.3946 43.869L29.0502 41.4997C28.6662 41.1118 28.0407 41.1084 27.6528 41.4924C27.265 41.8761 27.2619 42.5015 27.6456 42.8894L29.9248 45.192C29.9463 45.219 29.9694 45.2451 29.9944 45.2697C30.5852 45.8605 30.5852 46.8223 29.9944 47.4131C29.4035 48.0044 28.442 48.004 27.8512 47.4131C27.7833 47.3451 27.7033 47.2929 27.6271 47.2344C27.5625 47.1852 27.5456 47.151 27.5779 47.0725C27.6106 46.993 27.6594 46.9211 27.692 46.8412C27.7282 46.752 27.7574 46.6601 27.7858 46.5679C27.9378 46.0764 27.9814 45.5578 27.9139 45.0478C27.7832 44.0756 27.2484 43.1984 26.4381 42.6434C25.9984 42.3431 25.4956 42.1482 24.9684 42.0736C25.2229 40.9511 24.9174 39.734 24.1224 38.8941C23.4681 38.203 22.5842 37.815 21.6336 37.802C21.5989 37.8016 21.5642 37.8016 21.5295 37.802C21.5506 36.8948 21.2208 35.9933 20.5954 35.3325C19.9407 34.6413 19.0569 34.2535 18.1065 34.2404C17.8241 34.2364 17.5388 34.2665 17.2637 34.3299C17.146 33.5115 16.7335 32.7542 16.1088 32.2125C15.488 31.6752 14.7072 31.3768 13.8758 31.3653C13.0004 31.3526 12.1405 31.6755 11.4904 32.2625L7.67127 27.1163L16.8081 15.9851L19.7201 16.7817L15.917 23.4924C15.4572 24.3039 15.3411 25.2457 15.5899 26.1446C15.8386 27.0437 16.4221 27.7918 17.2336 28.2516C17.2843 28.2803 17.3355 28.3077 17.3874 28.3338C17.3913 28.3357 17.395 28.3377 17.3993 28.3396C17.535 28.4071 17.675 28.4658 17.8183 28.5152C18.4806 28.7447 19.1961 28.7697 19.8861 28.5791C20.7849 28.3303 21.5329 27.7464 21.9927 26.9352L24.4641 22.5741L28.8768 22.887L40.6272 34.6371C41.2177 35.2283 41.2177 36.1897 40.6268 36.7805ZM41.0362 32.2517L30.0131 21.2291C29.8448 21.061 29.6217 20.9592 29.3845 20.9423L23.9816 20.559C23.6079 20.5333 23.2366 20.732 23.0521 21.0577L20.2735 25.9613C20.1758 26.1347 20.0446 26.2871 19.8877 26.4096C19.7307 26.532 19.551 26.6222 19.359 26.6748C19.1672 26.7283 18.9667 26.7434 18.7691 26.719C18.5714 26.6945 18.3806 26.6312 18.2076 26.5325C18.0341 26.4348 17.8818 26.3037 17.7593 26.1467C17.6368 25.9898 17.5467 25.8101 17.4941 25.618C17.4404 25.4262 17.4254 25.2257 17.4498 25.028C17.4742 24.8304 17.5377 24.6396 17.6364 24.4666L21.3456 17.9204L22.8487 17.4879C22.8587 17.485 22.8683 17.481 22.8783 17.478L28.4881 15.858H35.2661L43.728 26.6148L41.0362 32.2517ZM45.0223 25.064L37.197 15.1109L41.1907 12.571L48.5028 22.0688L45.0223 25.064Z" fill="url(#paint0_linear_299_996)"/>
<path d="M30.9843 12.0268C31.2372 12.0268 31.4901 11.9304 31.6831 11.7374L38.4319 4.9886C38.8179 4.60263 38.8179 3.97713 38.4319 3.59117C38.0459 3.2052 37.4205 3.2053 37.0346 3.59117L30.2858 10.3401C30.194 10.4318 30.1212 10.5407 30.0715 10.6606C30.0219 10.7805 29.9963 10.909 29.9963 11.0387C29.9963 11.1685 30.0219 11.297 30.0715 11.4169C30.1212 11.5367 30.194 11.6457 30.2858 11.7374C30.3774 11.8293 30.4863 11.9021 30.6062 11.9518C30.726 12.0015 30.8545 12.027 30.9843 12.0268ZM19.6209 11.7374C19.7126 11.8293 19.8215 11.9022 19.9414 11.9518C20.0614 12.0015 20.1899 12.027 20.3197 12.0268C20.5723 12.0268 20.8253 11.9304 21.0182 11.7374C21.11 11.6457 21.1828 11.5367 21.2325 11.4168C21.2822 11.297 21.3077 11.1685 21.3077 11.0387C21.3077 10.9089 21.2822 10.7804 21.2325 10.6605C21.1828 10.5406 21.11 10.4317 21.0182 10.34L14.2694 3.59117C13.8835 3.2053 13.2581 3.2053 12.872 3.59117C12.4859 3.97704 12.4861 4.60263 12.872 4.9886L19.6209 11.7374ZM25.652 12.0268C26.1975 12.0268 26.64 11.5844 26.64 11.0389V5.45369C26.64 4.9082 26.1975 4.46574 25.652 4.46574C25.1065 4.46574 24.664 4.9082 24.664 5.45379V11.0389C24.664 11.5844 25.1065 12.0268 25.652 12.0268ZM24.7401 1.87292C24.897 2.25308 25.288 2.50255 25.7004 2.48109C26.1078 2.45984 26.4659 2.18468 26.5919 1.79675C26.7184 1.40576 26.5807 0.960256 26.2532 0.711178C25.9192 0.456688 25.4532 0.442517 25.1038 0.673487C24.714 0.931028 24.563 1.44385 24.7401 1.87292Z" fill="url(#paint1_linear_299_996)"/>
<defs>
<linearGradient id="paint0_linear_299_996" x1="25.6512" y1="10.2646" x2="25.6512" y2="50.2252" gradientUnits="userSpaceOnUse">
<stop stop-color="#7123C2"/>
<stop offset="1" stop-color="#9C12C0"/>
</linearGradient>
<linearGradient id="paint1_linear_299_996" x1="25.652" y1="0.509766" x2="25.652" y2="12.0269" gradientUnits="userSpaceOnUse">
<stop stop-color="#7123C2"/>
<stop offset="1" stop-color="#9C12C0"/>
</linearGradient>
</defs>
</svg>
