<svg width="44" height="42" viewBox="0 0 44 42" fill="none" xmlns="http://www.w3.org/2000/svg">
<path d="M12.2657 20.7831H7.38674C6.44127 20.7831 5.6748 21.5495 5.6748 22.495V31.2258M31.6961 20.7831H36.6608C37.6062 20.7831 38.3727 21.5495 38.3727 22.495V31.2258M22.0237 10.3831V16.2036M22.0237 25.448V31.2686" stroke="url(#paint0_linear_299_976)" stroke-width="2.00676" stroke-miterlimit="10" stroke-linecap="round" stroke-linejoin="round"/>
<path d="M30.6009 25.1915H13.4454C12.9354 25.1915 12.522 24.7781 12.522 24.2681V17.3841C12.522 16.8741 12.9354 16.4607 13.4454 16.4607H30.6009C31.1109 16.4607 31.5243 16.8741 31.5243 17.3841V24.2681C31.5243 24.778 31.1109 25.1915 30.6009 25.1915Z" stroke="url(#paint1_linear_299_976)" stroke-width="2.00676" stroke-miterlimit="10" stroke-linecap="round" stroke-linejoin="round"/>
<path d="M22.0247 40.0421C24.3884 40.0421 26.3045 38.1259 26.3045 35.7622C26.3045 33.3986 24.3884 31.4824 22.0247 31.4824C19.661 31.4824 17.7449 33.3986 17.7449 35.7622C17.7449 38.1259 19.661 40.0421 22.0247 40.0421Z" stroke="url(#paint2_linear_299_976)" stroke-width="2.00676" stroke-miterlimit="10" stroke-linecap="round" stroke-linejoin="round"/>
<path d="M22.0247 10.1263C24.3884 10.1263 26.3045 8.21016 26.3045 5.84648C26.3045 3.48279 24.3884 1.56665 22.0247 1.56665C19.661 1.56665 17.7449 3.48279 17.7449 5.84648C17.7449 8.21016 19.661 10.1263 22.0247 10.1263Z" stroke="url(#paint3_linear_299_976)" stroke-width="2.00676" stroke-miterlimit="10" stroke-linecap="round" stroke-linejoin="round"/>
<path d="M5.6746 40.0421C8.03829 40.0421 9.95443 38.1259 9.95443 35.7622C9.95443 33.3986 8.03829 31.4824 5.6746 31.4824C3.31092 31.4824 1.39478 33.3986 1.39478 35.7622C1.39478 38.1259 3.31092 40.0421 5.6746 40.0421Z" stroke="url(#paint4_linear_299_976)" stroke-width="2.00676" stroke-miterlimit="10" stroke-linecap="round" stroke-linejoin="round"/>
<path d="M38.3714 40.0421C40.7351 40.0421 42.6512 38.1259 42.6512 35.7622C42.6512 33.3986 40.7351 31.4824 38.3714 31.4824C36.0077 31.4824 34.0916 33.3986 34.0916 35.7622C34.0916 38.1259 36.0077 40.0421 38.3714 40.0421Z" stroke="url(#paint5_linear_299_976)" stroke-width="2.00676" stroke-miterlimit="10" stroke-linecap="round" stroke-linejoin="round"/>
<defs>
<linearGradient id="paint0_linear_299_976" x1="22.0237" y1="10.3831" x2="22.0237" y2="31.2686" gradientUnits="userSpaceOnUse">
<stop stop-color="#7123C2"/>
<stop offset="1" stop-color="#9C12C0"/>
</linearGradient>
<linearGradient id="paint1_linear_299_976" x1="22.0231" y1="16.4607" x2="22.0231" y2="25.1915" gradientUnits="userSpaceOnUse">
<stop stop-color="#7123C2"/>
<stop offset="1" stop-color="#9C12C0"/>
</linearGradient>
<linearGradient id="paint2_linear_299_976" x1="22.0247" y1="31.4824" x2="22.0247" y2="40.0421" gradientUnits="userSpaceOnUse">
<stop stop-color="#7123C2"/>
<stop offset="1" stop-color="#9C12C0"/>
</linearGradient>
<linearGradient id="paint3_linear_299_976" x1="22.0247" y1="1.56665" x2="22.0247" y2="10.1263" gradientUnits="userSpaceOnUse">
<stop stop-color="#7123C2"/>
<stop offset="1" stop-color="#9C12C0"/>
</linearGradient>
<linearGradient id="paint4_linear_299_976" x1="5.6746" y1="31.4824" x2="5.6746" y2="40.0421" gradientUnits="userSpaceOnUse">
<stop stop-color="#7123C2"/>
<stop offset="1" stop-color="#9C12C0"/>
</linearGradient>
<linearGradient id="paint5_linear_299_976" x1="38.3714" y1="31.4824" x2="38.3714" y2="40.0421" gradientUnits="userSpaceOnUse">
<stop stop-color="#7123C2"/>
<stop offset="1" stop-color="#9C12C0"/>
</linearGradient>
</defs>
</svg>
