<svg width="39" height="47" viewBox="0 0 39 47" fill="none" xmlns="http://www.w3.org/2000/svg">
<path d="M4.76384 31.7803C5.07665 29.8014 6.03959 27.9844 7.52126 26.6028C8.39577 25.7868 9.42419 25.1534 10.5464 24.7397C9.40105 23.0285 8.78622 21.0193 8.78622 18.9052C8.78622 16.0654 9.90017 13.4031 11.9221 11.4086C13.9441 9.41502 16.6192 8.34029 19.4638 8.37756C25.2346 8.45796 29.8904 13.2207 29.8414 18.9944C29.8267 20.7506 29.3864 22.4323 28.5725 23.9287C29.5501 24.3563 30.444 24.9543 31.2123 25.6947C32.7165 27.1441 33.6579 29.0356 33.9079 31.086C36.43 32.4932 38.0234 35.1672 38.0234 38.0913C38.0234 42.5138 34.4257 46.1125 30.0022 46.1125H8.17825C4.00193 46.1125 0.604191 42.7148 0.604191 38.5385C0.604191 35.684 2.24766 33.056 4.76287 31.7793L4.76384 31.7803ZM22.639 32.0323H15.9906V33.1011C15.9906 33.5483 16.3544 33.9111 16.8006 33.9111H21.829C22.2762 33.9111 22.639 33.5473 22.639 33.1011V32.0323ZM19.4305 10.83C17.2516 10.7986 15.1953 11.6253 13.6441 13.155C12.0928 14.6847 11.2387 16.7273 11.2387 18.9061C11.2387 21.085 12.1192 23.1913 13.7196 24.7289C15.0306 25.9507 15.8219 27.6726 15.9788 29.5808H18.0891V21.5174C17.0192 21.2899 16.0004 20.7634 15.1698 19.9338C14.6913 19.4553 14.6913 18.6786 15.1698 18.2001C15.6484 17.7216 16.425 17.7216 16.9035 18.2001C18.2332 19.5298 20.3964 19.5298 21.7251 18.2001C22.2036 17.7216 22.9802 17.7216 23.4588 18.2001C23.9373 18.6786 23.9373 19.4553 23.4588 19.9338C22.6292 20.7634 21.6104 21.2899 20.5396 21.5174V29.5808H22.6498C22.8057 27.6687 23.5931 25.9517 24.8953 24.7426C26.4858 23.2217 27.3713 21.1733 27.3899 18.9748C27.4272 14.5455 23.8559 10.8918 19.4295 10.83H19.4305ZM8.17924 43.6621H30.0032C33.0744 43.6621 35.5729 41.1635 35.5729 38.0923C35.5729 35.888 34.2678 33.8866 32.2488 32.9952C31.8212 32.806 31.5378 32.3902 31.5192 31.9234C31.4695 30.6038 31.0214 29.3301 30.2339 28.2699C29.4465 27.2098 28.3566 26.4129 27.1075 25.984C26.9398 26.1684 26.7653 26.3478 26.5829 26.5214C26.578 26.5253 26.5741 26.5302 26.5692 26.5341C25.517 27.5078 24.9767 29.0356 25.0885 30.7252V30.7634C25.0885 30.7771 25.0905 30.7909 25.0905 30.8056V33.1001C25.0905 34.8985 23.6274 36.3616 21.829 36.3616H16.8006C15.0022 36.3616 13.5391 34.8985 13.5391 33.1001V30.8056C13.5391 30.7909 13.5411 30.7771 13.5411 30.7624V30.7232C13.645 29.1817 13.194 27.7677 12.2987 26.7793C9.51088 27.3794 7.33985 29.7671 7.12314 32.705C7.08784 33.1776 6.78386 33.5885 6.34063 33.7581C4.37651 34.5142 3.05664 36.4351 3.05664 38.5395C3.05664 41.3636 5.35416 43.6621 8.17924 43.6621ZM37.896 18.9022C37.896 18.2256 37.3468 17.6765 36.6702 17.6765H33.3902C32.7136 17.6765 32.1644 18.2256 32.1644 18.9022C32.1644 19.5788 32.7136 20.1279 33.3902 20.1279H36.6702C37.3468 20.1279 37.896 19.5788 37.896 18.9022ZM5.23943 17.6765H1.95937C1.28276 17.6765 0.733631 18.2256 0.733631 18.9022C0.733631 19.5788 1.28276 20.1279 1.95937 20.1279H5.23943C5.91603 20.1279 6.46517 19.5788 6.46517 18.9022C6.46517 18.2256 5.91603 17.6765 5.23943 17.6765ZM32.4537 7.49601C32.9322 7.01748 32.9322 6.24086 32.4537 5.76233C31.9752 5.2838 31.1985 5.2838 30.72 5.76233L28.3999 8.0824C27.9214 8.56093 27.9214 9.33755 28.3999 9.81608C28.6392 10.0553 28.953 10.175 29.2668 10.175C29.5806 10.175 29.8944 10.0553 30.1336 9.81608L32.4537 7.49601ZM20.5405 4.82685V1.54678C20.5405 0.870174 19.9914 0.321045 19.3148 0.321045C18.6382 0.321045 18.0891 0.870174 18.0891 1.54678V4.82685C18.0891 5.50345 18.6382 6.05258 19.3148 6.05258C19.9914 6.05258 20.5405 5.50345 20.5405 4.82685ZM10.2287 9.81608C10.7072 9.33755 10.7072 8.56093 10.2287 8.0824L7.90859 5.76233C7.43007 5.2838 6.65344 5.2838 6.17491 5.76233C5.69638 6.24086 5.69638 7.01748 6.17491 7.49601L8.49498 9.81608C8.73425 10.0553 9.04804 10.175 9.36182 10.175C9.67561 10.175 9.9894 10.0553 10.2287 9.81608Z" fill="url(#paint0_linear_299_945)"/>
<defs>
<linearGradient id="paint0_linear_299_945" x1="19.3138" y1="0.321045" x2="19.3138" y2="46.1125" gradientUnits="userSpaceOnUse">
<stop stop-color="#7123C2"/>
<stop offset="1" stop-color="#9C12C0"/>
</linearGradient>
</defs>
</svg>
