<svg width="39" height="39" viewBox="0 0 39 39" fill="none" xmlns="http://www.w3.org/2000/svg">
<path d="M16.5761 22.5268C16.4519 22.4031 16.3534 22.2562 16.2862 22.0943C16.219 21.9325 16.1845 21.7589 16.1846 21.5837H16.0346V21.5836V18.025C16.0346 17.6312 16.1909 17.253 16.4704 16.9755L22.1266 22.6332M16.5761 22.5268L16.4698 22.6326C16.4699 22.6328 16.4701 22.6329 16.4703 22.6331L16.5761 22.5268ZM16.5761 22.5268C16.6997 22.651 16.8467 22.7495 17.0085 22.8167C17.1704 22.8838 17.3439 22.9184 17.5191 22.9182M17.5191 22.9182V23.0682H17.5193H21.0777H21.0778V22.9182M17.5191 22.9182H21.0778M17.5191 22.9182H21.0778M21.0778 22.9182C21.2531 22.9184 21.4266 22.8838 21.5885 22.8167C21.7503 22.7495 21.8973 22.651 22.0209 22.5268M22.0209 22.5268L22.1266 22.6332M22.0209 22.5268L22.1272 22.6326C22.127 22.6328 22.1268 22.633 22.1266 22.6332M22.0209 22.5268C22.2718 22.2777 22.4124 21.9378 22.4124 21.5837V18.025C22.4124 17.6709 22.2718 17.331 22.0209 17.0819M22.1266 22.6332C22.4061 22.3557 22.5624 21.9775 22.5624 21.5837V18.025C22.5624 17.6314 22.4062 17.2533 22.127 16.9759M22.0209 17.0819L22.1273 16.9762C22.1272 16.9761 22.1271 16.976 22.127 16.9759M22.0209 17.0819C21.7718 16.831 21.4319 16.6905 21.0778 16.6905H17.5191M22.0209 17.0819L22.1266 16.9755C22.1267 16.9756 22.1268 16.9757 22.127 16.9759M22.127 16.9759L17.5191 16.6905M17.5191 16.6905C17.3439 16.6903 17.1704 16.7249 17.0085 16.792C16.8467 16.8592 16.6997 16.9577 16.5761 17.0819C16.3252 17.331 16.1846 17.6709 16.1846 18.025L17.5191 16.6905ZM3.12522 3.63032L3.2309 3.73676L3.1246 3.63094C3.26217 3.49273 3.42572 3.38309 3.60584 3.30833C3.78591 3.23358 3.97899 3.19517 4.17396 3.1953C4.174 3.1953 4.17404 3.1953 4.17408 3.1953M3.12522 3.63032L8.67573 3.73676C8.42662 3.48587 8.08677 3.3453 7.73268 3.3453H4.17396L4.17408 3.1953M3.12522 3.63032C2.84576 3.9078 2.68944 4.28606 2.68944 4.67982L2.68945 8.23842M3.12522 3.63032L4.17396 9.57305M4.17408 3.1953L7.73268 3.1953C8.12624 3.1953 8.50432 3.35146 8.78176 3.63066M4.17408 3.1953L8.78176 3.63066M8.78176 3.63066C9.06101 3.90811 9.21719 4.28622 9.21719 4.67982V8.23853C9.21719 8.6323 9.06088 9.01056 8.78142 9.28804C8.64397 9.42595 8.48064 9.53538 8.3008 9.61003C8.12069 9.68479 7.92757 9.7232 7.73256 9.72305M8.78176 3.63066L7.73268 9.57305M7.73256 9.72305L7.73268 9.57305M7.73256 9.72305H7.73268V9.57305M7.73256 9.72305H4.17408M7.73268 9.57305H4.17396M4.17408 9.72305L4.17396 9.57305M4.17408 9.72305H4.17396V9.57305M4.17408 9.72305C3.97907 9.7232 3.78595 9.68479 3.60584 9.61003C3.42572 9.53527 3.26217 9.42563 3.1246 9.28742C2.98661 9.14994 2.87714 8.98656 2.80247 8.80666C2.72772 8.62658 2.68931 8.43351 2.68944 8.23853M2.68944 8.23853H2.83944L2.68945 8.23842M2.68944 8.23853L2.68945 8.23842M2.68944 8.23853L2.68945 8.23842M29.9212 35.8719C29.7971 35.7483 29.6985 35.6013 29.6314 35.4395C29.5642 35.2777 29.5297 35.1041 29.5298 34.9289H29.3798V34.9288V31.3702C29.3798 30.9764 29.5361 30.5981 29.8156 30.3207L29.8149 35.9778M29.9212 35.8719L29.8149 35.9778M29.9212 35.8719C30.0449 35.9961 30.1918 36.0947 30.3537 36.1618C30.5155 36.229 30.6891 36.2635 30.8643 36.2634V36.4134H30.8644M29.9212 35.8719L29.8154 35.9782C29.8153 35.9781 29.8151 35.9779 29.8149 35.9778M29.8149 35.9778C29.9525 36.116 30.1161 36.2256 30.2962 36.3004C30.4763 36.3751 30.6694 36.4136 30.8644 36.4134M30.8644 36.4134H34.4229M30.8644 36.4134H34.4229M34.4229 36.4134H34.423V36.2634C34.5983 36.2635 34.7718 36.229 34.9336 36.1618C35.0955 36.0947 35.2425 35.9961 35.3661 35.8719M34.4229 36.4134C34.6179 36.4136 34.811 36.3751 34.9911 36.3004C35.171 36.2257 35.3343 36.1163 35.4718 35.9784M35.3661 35.8719L35.4718 35.9784M35.3661 35.8719C35.617 35.6228 35.7575 35.283 35.7575 34.9289V31.3702C35.7575 31.0161 35.617 30.6762 35.3661 30.4271L35.4718 35.9784M35.3661 35.8719L35.4724 35.9778C35.4722 35.978 35.472 35.9782 35.4718 35.9784M13.6656 21.5837V18.025C13.6656 17.003 14.0716 16.0228 14.7943 15.3001C15.5169 14.5774 16.4971 14.1714 17.5191 14.1714H21.0778C22.0999 14.1714 23.08 14.5774 23.8027 15.3001C24.5254 16.0228 24.9314 17.003 24.9314 18.025V21.5837C24.9314 22.6057 24.5254 23.5859 23.8027 24.3086C23.08 25.0313 22.0999 25.4373 21.0778 25.4373H17.5191C16.4971 25.4373 15.5169 25.0313 14.7943 24.3086C14.0716 23.5859 13.6656 22.6057 13.6656 21.5837ZM0.32041 8.23853V4.67982C0.32041 3.6578 0.726408 2.67763 1.44909 1.95495C2.17177 1.23227 3.15194 0.82627 4.17396 0.82627H7.73268C8.7547 0.82627 9.73487 1.23227 10.4575 1.95495C11.1802 2.67763 11.5862 3.6578 11.5862 4.67982V8.23853C11.5862 9.26056 11.1802 10.2407 10.4575 10.9634C9.73487 11.6861 8.7547 12.0921 7.73268 12.0921H4.17396C3.15194 12.0921 2.17177 11.6861 1.44909 10.9634C0.726408 10.2407 0.32041 9.26056 0.32041 8.23853ZM27.0108 34.9289V31.3702C27.0108 30.3481 27.4168 29.368 28.1394 28.6453C28.8621 27.9226 29.8423 27.5166 30.8643 27.5166H34.423C35.445 27.5166 36.4252 27.9226 37.1479 28.6453C37.8706 29.368 38.2766 30.3481 38.2766 31.3702V34.9289C38.2766 35.9509 37.8706 36.9311 37.1479 37.6538C36.4252 38.3764 35.445 38.7824 34.423 38.7824H30.8643C29.8423 38.7824 28.8621 38.3764 28.1394 37.6538C27.4168 36.9311 27.0108 35.9509 27.0108 34.9289Z" fill="url(#paint0_linear_299_968)" stroke="white" stroke-width="0.3"/>
<path d="M33.5336 7.64379H33.5333H10.4017C10.0876 7.64379 9.78627 7.51899 9.56413 7.29685C9.34199 7.07471 9.21719 6.77343 9.21719 6.45927C9.21719 6.14512 9.34199 5.84383 9.56413 5.62169C9.78627 5.39955 10.0876 5.27476 10.4017 5.27476L33.5333 5.27476C33.5333 5.27476 33.5333 5.27476 33.5333 5.27476C34.7914 5.2753 35.9978 5.77464 36.8882 6.66331C37.7764 7.55336 38.2766 8.76073 38.2766 10.018V16.2457C38.2766 16.2457 38.2766 16.2457 38.2766 16.2457C38.276 17.5036 37.7768 18.71 36.8882 19.6004C35.9982 20.4888 34.7907 20.989 33.5333 20.989H28.1953C27.8811 20.989 27.5798 20.8642 27.3577 20.642C27.1356 20.4199 27.0108 20.1186 27.0108 19.8044C27.0108 19.4903 27.1356 19.189 27.3577 18.9669C27.5798 18.7447 27.8811 18.6199 28.1953 18.6199L33.5333 18.6199L33.5336 18.6199C34.1629 18.6189 34.7661 18.3685 35.2111 17.9235C35.6561 17.4785 35.9065 16.8753 35.9075 16.246V16.2457V10.018V10.0177C35.9065 9.38844 35.6561 8.7852 35.2111 8.34022L35.105 8.44628L35.2111 8.34022C34.7661 7.89523 34.1629 7.6448 33.5336 7.64379ZM5.0634 31.9651H5.06364H21.0778C21.392 31.9651 21.6933 32.0899 21.9154 32.312C22.1376 32.5342 22.2624 32.8355 22.2624 33.1496C22.2624 33.4638 22.1376 33.7651 21.9154 33.9872C21.6933 34.2093 21.392 34.3341 21.0778 34.3341H5.0637C5.06368 34.3341 5.06366 34.3341 5.06364 34.3341C3.80564 34.3336 2.59918 33.8342 1.70875 32.9456C0.820532 32.0555 0.32041 30.8482 0.32041 29.5909L0.32041 23.3632C0.32041 23.3632 0.32041 23.3632 0.32041 23.3632C0.320955 22.1052 0.820296 20.8987 1.70896 20.0083C2.59901 19.1201 3.80638 18.6199 5.06364 18.6199H14.8501C15.1643 18.6199 15.4655 18.7447 15.6877 18.9669C15.9098 19.189 16.0346 19.4903 16.0346 19.8044C16.0346 20.1186 15.9098 20.4199 15.6877 20.642C15.4655 20.8642 15.1643 20.989 14.8501 20.989L5.06364 20.989L5.0634 20.989C4.4341 20.99 3.83086 21.2404 3.38587 21.6854C2.94088 22.1304 2.69045 22.7336 2.68944 23.3629V23.3632V29.5909L2.68945 29.5911C2.69045 30.2204 2.94088 30.8237 3.38587 31.2687C3.83086 31.7137 4.4341 31.9641 5.0634 31.9651Z" fill="url(#paint1_linear_299_968)" stroke="white" stroke-width="0.3"/>
<path d="M32.592 22.5262L32.592 22.5262C32.7019 22.6361 32.7891 22.7666 32.8486 22.9102C32.9081 23.0539 32.9387 23.2078 32.9387 23.3632C32.9387 23.5187 32.9081 23.6726 32.8486 23.8162C32.7891 23.9598 32.7019 24.0903 32.592 24.2002C32.4821 24.3101 32.3516 24.3973 32.208 24.4568C32.0644 24.5163 31.9104 24.5469 31.755 24.5469C31.5996 24.5469 31.4456 24.5163 31.302 24.4568C31.1584 24.3973 31.0279 24.3101 30.918 24.2002L27.3593 20.6415L27.3592 20.6414C27.2492 20.5316 27.1619 20.4011 27.1024 20.2575C27.0429 20.1139 27.0122 19.96 27.0122 19.8045C27.0122 19.649 27.0429 19.4951 27.1024 19.3515C27.1619 19.2079 27.2492 19.0774 27.3592 18.9676L27.3593 18.9675L30.918 15.4088C31.0279 15.2989 31.1584 15.2117 31.302 15.1522C31.4456 15.0927 31.5996 15.0621 31.755 15.0621C31.9104 15.0621 32.0644 15.0927 32.208 15.1522C32.3516 15.2117 32.4821 15.2989 32.592 15.4088C32.7019 15.5187 32.7891 15.6492 32.8486 15.7928C32.9081 15.9364 32.9387 16.0904 32.9387 16.2458C32.9387 16.4012 32.9081 16.5552 32.8486 16.6988C32.7891 16.8424 32.7019 16.9729 32.592 17.0828L32.592 17.0828L29.9781 19.6985L29.8721 19.8045L29.9781 19.9105L32.592 22.5262ZM23.6953 33.9866L23.6952 33.9867L20.1365 37.5454C20.0266 37.6553 19.8961 37.7425 19.7525 37.802C19.6089 37.8615 19.455 37.8921 19.2995 37.8921C19.1441 37.8921 18.9901 37.8615 18.8465 37.802C18.7029 37.7425 18.5724 37.6553 18.4625 37.5454C18.3526 37.4355 18.2654 37.305 18.2059 37.1614C18.1464 37.0178 18.1158 36.8638 18.1158 36.7084C18.1158 36.5529 18.1464 36.399 18.2059 36.2554L18.0673 36.198L18.2059 36.2554C18.2654 36.1118 18.3526 35.9813 18.4625 35.8714L18.4626 35.8714L21.0764 33.2557L21.1824 33.1497L21.0764 33.0437L18.4626 30.428L18.4625 30.428C18.2405 30.206 18.1158 29.9049 18.1158 29.591C18.1158 29.277 18.2405 28.976 18.4625 28.754C18.6845 28.532 18.9856 28.4073 19.2995 28.4073C19.6134 28.4073 19.9145 28.532 20.1365 28.754L23.6952 32.3127L23.6953 32.3128C23.8053 32.4226 23.8926 32.5531 23.9521 32.6967C24.0117 32.8403 24.0423 32.9942 24.0423 33.1497C24.0423 33.3051 24.0117 33.4591 23.9521 33.6027C23.8926 33.7463 23.8053 33.8767 23.6953 33.9866Z" fill="url(#paint2_linear_299_968)" stroke="white" stroke-width="0.3"/>
<defs>
<linearGradient id="paint0_linear_299_968" x1="19.2985" y1="0.67627" x2="19.2985" y2="38.9324" gradientUnits="userSpaceOnUse">
<stop stop-color="#7123C2"/>
<stop offset="1" stop-color="#9C12C0"/>
</linearGradient>
<linearGradient id="paint1_linear_299_968" x1="19.2985" y1="5.12476" x2="19.2985" y2="34.4841" gradientUnits="userSpaceOnUse">
<stop stop-color="#7123C2"/>
<stop offset="1" stop-color="#9C12C0"/>
</linearGradient>
<linearGradient id="paint2_linear_299_968" x1="25.5273" y1="14.9121" x2="25.5273" y2="38.0421" gradientUnits="userSpaceOnUse">
<stop stop-color="#7123C2"/>
<stop offset="1" stop-color="#9C12C0"/>
</linearGradient>
</defs>
</svg>
