<svg width="42" height="40" viewBox="0 0 42 40" fill="none" xmlns="http://www.w3.org/2000/svg">
<path d="M39.1461 22.6895C38.9486 22.6895 38.7592 22.7679 38.6195 22.9076C38.4799 23.0472 38.4014 23.2366 38.4014 23.4341V29.7255C38.4014 29.923 38.323 30.1124 38.1833 30.2521C38.0437 30.3917 37.8543 30.4702 37.6568 30.4702H2.53981C2.34232 30.4702 2.15292 30.3917 2.01328 30.2521C1.87363 30.1124 1.79518 29.923 1.79518 29.7255V7.31203C1.79518 7.11454 1.87363 6.92514 2.01328 6.78549C2.15292 6.64585 2.34232 6.56739 2.53981 6.56739H18.125C18.3225 6.56739 18.5119 6.48894 18.6516 6.3493C18.7912 6.20965 18.8697 6.02025 18.8697 5.82276C18.8697 5.62527 18.7912 5.43587 18.6516 5.29622C18.5119 5.15658 18.3225 5.07812 18.125 5.07812H2.53981C1.94753 5.07872 1.37967 5.31426 0.960857 5.73307C0.542047 6.15188 0.3065 6.71974 0.305908 7.31203V29.7255C0.3065 30.3178 0.542047 30.8857 0.960857 31.3045C1.37967 31.7233 1.94753 31.9589 2.53981 31.9594H16.9723V34.2403C16.9706 34.8394 16.8931 35.4359 16.7415 36.0155C8.7739 36.492 5.89514 38.5688 5.76259 38.6686C5.60853 38.7881 5.50746 38.9632 5.4811 39.1563C5.45473 39.3495 5.50517 39.5453 5.62158 39.7017C5.73799 39.8581 5.91108 39.9626 6.10369 39.9927C6.29629 40.0229 6.49305 39.9763 6.65169 39.863C6.6852 39.8384 10.1485 37.4042 20.0976 37.4042C30.7406 37.4563 33.0423 39.8392 33.985 40.009C34.1398 40.006 34.2899 39.9551 34.4147 39.8634C34.5395 39.7717 34.6328 39.6436 34.6818 39.4967C34.7308 39.3498 34.7332 39.1914 34.6886 39.0431C34.6439 38.8948 34.5545 38.764 34.4325 38.6686C34.3 38.5688 31.4212 36.492 23.4536 36.0155C23.2205 34.6769 23.143 33.3158 23.2228 31.9594H37.6568C38.2491 31.9589 38.8169 31.7233 39.2358 31.3045C39.6546 30.8857 39.8901 30.3178 39.8907 29.7255V23.4334C39.8907 23.2359 39.8123 23.0465 39.6726 22.9068C39.533 22.7672 39.3436 22.6895 39.1461 22.6895ZM18.2814 35.944C18.3984 35.3836 18.4587 34.8128 18.4616 34.2403V31.9594H21.7335C21.6699 33.2901 21.7302 34.6238 21.9137 35.9432C20.7032 35.9059 19.4919 35.9066 18.2814 35.944Z" fill="url(#paint0_linear_299_933)"/>
<path d="M40.5391 9.97328C40.518 9.9724 40.4976 9.96537 40.4804 9.95308C40.4632 9.94078 40.4499 9.92373 40.4423 9.90403C40.198 8.60538 39.551 7.72225 39.2017 6.74231C39.4616 6.4355 39.5962 6.04191 39.5785 5.64019C39.5609 5.23848 39.3923 4.85822 39.1064 4.57542L37.8554 3.32443C37.5729 3.03805 37.1925 2.86914 36.7905 2.8516C36.3886 2.83406 35.995 2.96919 35.6885 3.22986C34.6771 2.71646 33.6189 2.30105 32.5283 1.9893C32.508 1.9813 32.4904 1.96751 32.4779 1.94965C32.4653 1.93178 32.4582 1.91061 32.4576 1.88878C32.424 1.48829 32.2408 1.11516 31.9443 0.843814C31.6478 0.572471 31.26 0.42286 30.8581 0.424824H29.0896C28.6922 0.422893 28.3084 0.569282 28.0133 0.835352C27.7182 1.10142 27.5329 1.46803 27.4938 1.86346C27.4938 1.91558 27.4678 1.97813 27.4201 1.98856C26.347 2.24699 25.3209 2.6716 24.379 3.24699C24.3597 3.25688 24.3377 3.26047 24.3162 3.25727C24.2947 3.25406 24.2748 3.24422 24.2591 3.22912C23.9522 2.96937 23.5587 2.83491 23.157 2.85257C22.7554 2.87024 22.3751 3.03874 22.0922 3.32443L20.842 4.57542C20.5563 4.85831 20.3878 5.23854 20.3701 5.6402C20.3525 6.04187 20.4869 6.43542 20.7467 6.74231C20.3997 7.71778 19.7481 8.61283 19.5054 9.90403C19.4977 9.92421 19.4842 9.94165 19.4665 9.95412C19.4489 9.96658 19.4279 9.97351 19.4063 9.97402C19.0061 10.0076 18.6331 10.1908 18.3619 10.4871C18.0907 10.7834 17.9412 11.1711 17.9431 11.5728V13.3413C17.9411 13.7437 18.091 14.132 18.363 14.4286C18.635 14.7252 19.009 14.9081 19.4101 14.9407C19.4311 14.9417 19.4514 14.9488 19.4683 14.9613C19.4853 14.9737 19.4982 14.991 19.5054 15.0107C19.7511 16.3109 20.4004 17.197 20.7467 18.1717C20.4868 18.4785 20.3522 18.8721 20.3699 19.2738C20.3875 19.6755 20.5561 20.0558 20.842 20.3386L22.093 21.5903C22.376 21.8756 22.7562 22.0437 23.1577 22.0611C23.5592 22.0785 23.9525 21.9439 24.2591 21.6841C24.2751 21.6695 24.295 21.6601 24.3164 21.657C24.3378 21.654 24.3596 21.6575 24.379 21.667C25.3212 22.243 26.3478 22.6677 27.4216 22.9255C27.4678 22.9344 27.4938 23.0007 27.4946 23.052C27.5339 23.4471 27.7191 23.8134 28.0141 24.0792C28.309 24.3449 28.6925 24.4911 29.0896 24.4892H30.8581C31.2604 24.4911 31.6487 24.3411 31.9452 24.0691C32.2418 23.7971 32.4247 23.4233 32.4576 23.0223C32.4584 23.0009 32.4655 22.9803 32.4781 22.963C32.4907 22.9458 32.5082 22.9327 32.5283 22.9255C33.6189 22.6132 34.6772 22.1973 35.6885 21.6834C35.9949 21.944 36.3885 22.0792 36.7904 22.0618C37.1923 22.0444 37.5727 21.8757 37.8554 21.5896L39.1064 20.3386C39.392 20.0556 39.5604 19.6753 39.5779 19.2737C39.5954 18.872 39.4608 18.4785 39.201 18.1717C39.5495 17.1955 40.2003 16.3027 40.4423 15.01C40.45 14.9898 40.4637 14.9724 40.4815 14.96C40.4993 14.9477 40.5204 14.9409 40.5421 14.9407C40.9426 14.9074 41.3158 14.7241 41.5872 14.4276C41.8586 14.1311 42.0082 13.7432 42.006 13.3413V11.5728C42.0079 11.1705 41.8579 10.7823 41.5859 10.4859C41.3139 10.1895 40.94 10.0059 40.5391 9.97328ZM40.5167 13.342C40.5168 13.3715 40.5056 13.3999 40.4853 13.4213C40.4651 13.4428 40.4375 13.4557 40.408 13.4574C40.0757 13.4851 39.7604 13.6164 39.5067 13.8328C39.253 14.0492 39.0736 14.3399 38.994 14.6637C38.773 15.5857 38.4084 16.4672 37.9135 17.2759C37.7404 17.5613 37.6614 17.8939 37.6878 18.2266C37.7141 18.5594 37.8444 18.8754 38.0602 19.1301C38.0791 19.1521 38.0889 19.1805 38.0877 19.2096C38.0864 19.2386 38.0742 19.2661 38.0535 19.2864L36.8025 20.5374C36.7818 20.5576 36.7543 20.5693 36.7255 20.5704C36.6966 20.5715 36.6683 20.5619 36.6461 20.5434C36.3914 20.328 36.0756 20.198 35.743 20.1717C35.4105 20.1454 35.0782 20.2241 34.7927 20.3967C33.9842 20.8914 33.103 21.2563 32.1813 21.4779C31.8569 21.5574 31.5658 21.737 31.3492 21.9912C31.1325 22.2454 31.0014 22.5613 30.9742 22.8942C30.972 22.9233 30.9587 22.9506 30.9372 22.9703C30.9156 22.9901 30.8873 23.0009 30.8581 23.0007H29.0896C29.0727 22.9998 29.0561 22.9956 29.0409 22.9882C29.0257 22.9807 29.0121 22.9703 29.001 22.9575C28.99 22.9447 28.9816 22.9298 28.9765 22.9136C28.9714 22.8975 28.9695 22.8805 28.9712 22.8637C28.9388 22.5367 28.8058 22.2279 28.5905 21.9797C28.3753 21.7316 28.0884 21.5562 27.7693 21.4779C26.8469 21.2566 25.9649 20.8918 25.1557 20.3967C24.87 20.2242 24.5375 20.1457 24.2049 20.1722C23.8723 20.1986 23.5563 20.3287 23.3015 20.5441C23.2795 20.563 23.251 20.5728 23.222 20.5716C23.193 20.5703 23.1655 20.5581 23.1452 20.5374L21.8949 19.2864C21.8742 19.2661 21.862 19.2386 21.8607 19.2096C21.8595 19.1805 21.8693 19.1521 21.8882 19.1301C22.104 18.8754 22.2343 18.5594 22.2607 18.2266C22.287 17.8939 22.208 17.5613 22.0349 17.2759C21.54 16.4672 21.1751 15.5857 20.9537 14.6637C20.8743 14.3393 20.6948 14.0482 20.4405 13.8316C20.1863 13.6151 19.8703 13.4842 19.5374 13.4574C19.5086 13.4548 19.4819 13.4415 19.4624 13.4201C19.443 13.3988 19.4323 13.3709 19.4324 13.342V11.5735C19.4323 11.5441 19.4435 11.5159 19.4635 11.4944C19.4836 11.473 19.5111 11.46 19.5404 11.4581C19.8725 11.4307 20.1876 11.2997 20.4413 11.0835C20.6949 10.8673 20.8741 10.5769 20.9537 10.2533C21.1752 9.33085 21.54 8.4489 22.0349 7.63959C22.2081 7.35424 22.2872 7.02162 22.2608 6.68884C22.2345 6.35607 22.1041 6.04002 21.8882 5.78545C21.8694 5.76329 21.8597 5.73482 21.8611 5.7058C21.8625 5.67677 21.8748 5.64935 21.8957 5.62908L23.1459 4.37809C23.1661 4.35748 23.1934 4.34526 23.2223 4.34388C23.2511 4.3425 23.2794 4.35206 23.3015 4.37064C23.556 4.58668 23.872 4.71718 24.2048 4.74364C24.5376 4.7701 24.8702 4.69119 25.1557 4.51808C25.9651 4.02343 26.847 3.65861 27.7693 3.43687C28.0885 3.3585 28.3755 3.18305 28.5907 2.93472C28.806 2.68639 28.9389 2.37741 28.9712 2.05036C28.9695 2.03349 28.9714 2.01646 28.9766 2.00032C28.9817 1.98418 28.9902 1.96927 29.0013 1.95651C29.0125 1.94375 29.0261 1.9334 29.0414 1.92611C29.0567 1.91881 29.0734 1.91472 29.0903 1.91409H30.8581C30.8878 1.91386 30.9165 1.92512 30.9381 1.94551C30.9598 1.9659 30.9727 1.99386 30.9742 2.02356C31.002 2.35567 31.1332 2.67072 31.3495 2.92428C31.5658 3.17784 31.8562 3.35713 32.1798 3.43687C33.1016 3.65802 33.9831 4.02235 34.792 4.51659C35.0772 4.69012 35.4098 4.76942 35.7426 4.74322C36.0755 4.71702 36.3916 4.58666 36.6461 4.37064C36.6683 4.35191 36.6967 4.3422 36.7256 4.34344C36.7546 4.34468 36.7821 4.35679 36.8025 4.37735L38.0535 5.62833C38.0743 5.6486 38.0867 5.67602 38.0881 5.70505C38.0894 5.73408 38.0797 5.76255 38.0609 5.78471C37.8449 6.03903 37.7143 6.35492 37.6879 6.68759C37.6614 7.02026 37.7403 7.35282 37.9135 7.6381C38.4086 8.44786 38.7734 9.33032 38.9947 10.2533C39.0748 10.5771 39.2546 10.8675 39.5088 11.0836C39.7629 11.2997 40.0785 11.4304 40.411 11.4573C40.4399 11.4598 40.4668 11.473 40.4864 11.4944C40.506 11.5158 40.5168 11.5437 40.5167 11.5728V13.342Z" fill="url(#paint1_linear_299_933)"/>
<path d="M29.9738 5.40503C28.5791 5.40503 27.2157 5.8186 26.0561 6.59345C24.8964 7.3683 23.9926 8.46963 23.4589 9.75816C22.9251 11.0467 22.7855 12.4645 23.0576 13.8324C23.3297 15.2003 24.0013 16.4568 24.9875 17.443C25.9737 18.4292 27.2302 19.1008 28.5981 19.3729C29.966 19.645 31.3838 19.5054 32.6723 18.9716C33.9609 18.4379 35.0622 17.5341 35.8371 16.3744C36.6119 15.2148 37.0255 13.8514 37.0255 12.4567C37.0231 10.5872 36.2794 8.79497 34.9575 7.47303C33.6355 6.1511 31.8433 5.40739 29.9738 5.40503ZM29.9738 18.0199C28.8736 18.0199 27.7982 17.6937 26.8835 17.0825C25.9687 16.4712 25.2558 15.6025 24.8348 14.5861C24.4138 13.5697 24.3036 12.4513 24.5182 11.3723C24.7329 10.2933 25.2626 9.30216 26.0406 8.52424C26.8185 7.74632 27.8096 7.21655 28.8886 7.00192C29.9676 6.7873 31.086 6.89745 32.1024 7.31846C33.1188 7.73946 33.9876 8.45241 34.5988 9.36715C35.21 10.2819 35.5362 11.3573 35.5362 12.4575C35.5342 13.9321 34.9476 15.3458 33.9048 16.3885C32.8621 17.4312 31.4484 18.0179 29.9738 18.0199ZM7.97429 20.8994C7.83465 20.7598 7.64528 20.6814 7.44783 20.6814C7.25038 20.6814 7.06101 20.7598 6.92137 20.8994L4.40674 23.414C4.26714 23.5537 4.18872 23.743 4.18872 23.9405C4.18872 24.1379 4.26714 24.3273 4.40674 24.4669L6.92137 26.9816C6.99006 27.0527 7.07223 27.1094 7.16308 27.1484C7.25393 27.1875 7.35164 27.208 7.45051 27.2089C7.54938 27.2097 7.64743 27.1909 7.73895 27.1534C7.83046 27.116 7.9136 27.0607 7.98352 26.9908C8.05343 26.9209 8.10872 26.8377 8.14616 26.7462C8.18361 26.6547 8.20245 26.5567 8.20159 26.4578C8.20073 26.3589 8.18019 26.2612 8.14116 26.1704C8.10213 26.0795 8.04541 25.9973 7.97429 25.9287L5.98611 23.9405L7.97429 21.9523C8.11388 21.8127 8.1923 21.6233 8.1923 21.4258C8.1923 21.2284 8.11388 21.039 7.97429 20.8994ZM15.7215 25.9279C15.6503 25.9966 15.5936 26.0788 15.5546 26.1696C15.5156 26.2605 15.495 26.3582 15.4942 26.457C15.4933 26.5559 15.5121 26.654 15.5496 26.7455C15.587 26.837 15.6423 26.9201 15.7122 26.9901C15.7822 27.06 15.8653 27.1153 15.9568 27.1527C16.0483 27.1901 16.1464 27.209 16.2452 27.2081C16.3441 27.2073 16.4418 27.1867 16.5327 27.1477C16.6235 27.1087 16.7057 27.0519 16.7744 26.9808L19.289 24.4662C19.4286 24.3266 19.507 24.1372 19.507 23.9397C19.507 23.7423 19.4286 23.5529 19.289 23.4133L16.7744 20.8986C16.6339 20.763 16.4458 20.688 16.2506 20.6896C16.0554 20.6913 15.8686 20.7697 15.7305 20.9077C15.5925 21.0458 15.5142 21.2325 15.5125 21.4278C15.5108 21.623 15.5858 21.8111 15.7215 21.9516L17.7096 23.9397L15.7215 25.9279ZM11.7541 21.2449L10.4971 26.2742C10.4715 26.3697 10.4651 26.4693 10.4784 26.5672C10.4917 26.6652 10.5244 26.7595 10.5745 26.8447C10.6247 26.93 10.6913 27.0043 10.7704 27.0635C10.8496 27.1227 10.9398 27.1655 11.0357 27.1895C11.1316 27.2135 11.2313 27.2181 11.3291 27.2032C11.4268 27.1882 11.5205 27.1539 11.6049 27.1023C11.6892 27.0507 11.7624 26.9829 11.8203 26.9027C11.8781 26.8225 11.9194 26.7316 11.9417 26.6353L13.1979 21.6061C13.238 21.4174 13.2034 21.2205 13.1012 21.0568C12.9991 20.8932 12.8374 20.7756 12.6502 20.7288C12.4631 20.682 12.2651 20.7096 12.0979 20.8059C11.9308 20.9022 11.8075 21.0595 11.7541 21.2449Z" fill="url(#paint2_linear_299_933)"/>
<defs>
<linearGradient id="paint0_linear_299_933" x1="20.0983" y1="5.07812" x2="20.0983" y2="40.009" gradientUnits="userSpaceOnUse">
<stop stop-color="#7123C2"/>
<stop offset="1" stop-color="#9C12C0"/>
</linearGradient>
<linearGradient id="paint1_linear_299_933" x1="29.9746" y1="0.424805" x2="29.9746" y2="24.4892" gradientUnits="userSpaceOnUse">
<stop stop-color="#7123C2"/>
<stop offset="1" stop-color="#9C12C0"/>
</linearGradient>
<linearGradient id="paint2_linear_299_933" x1="20.6071" y1="5.40503" x2="20.6071" y2="27.2118" gradientUnits="userSpaceOnUse">
<stop stop-color="#7123C2"/>
<stop offset="1" stop-color="#9C12C0"/>
</linearGradient>
</defs>
</svg>
