<svg width="49" height="49" viewBox="0 0 49 49" fill="none" xmlns="http://www.w3.org/2000/svg">
<path d="M40.8056 22.1268C39.4892 19.5547 38.6467 19.2834 36.0746 20.5998C34.6164 21.3491 33.6443 21.9567 33.0974 22.6169L26.7584 20.7861C25.4669 20.413 24.0943 20.4276 22.8111 20.828C21.5278 21.2284 20.3905 21.9969 19.5403 23.0382C18.4159 22.6422 17.2207 22.4876 16.0326 22.5845L15.5141 22.625C14.9916 21.8028 13.9709 21.1547 12.5856 20.3446C11.4636 19.6844 10.6616 19.2712 9.79882 19.494C8.93606 19.7168 8.43784 20.4742 7.77761 21.6003L4.03897 27.9798C3.37874 29.1059 2.96558 29.9079 3.18836 30.7707C3.41114 31.6334 4.16859 32.1316 5.29464 32.7878C6.75282 33.6425 7.85457 34.2379 8.8753 34.2379C9.04974 34.2393 9.22375 34.2203 9.39377 34.1812L11.4676 35.846L10.8074 36.6601C10.4119 37.147 10.1624 37.7359 10.0877 38.3586C10.013 38.9814 10.1162 39.6126 10.3852 40.1792C10.6543 40.7458 11.0784 41.2246 11.6083 41.5602C12.1382 41.8958 12.7522 42.0745 13.3795 42.0757C13.424 42.0757 13.4726 42.0757 13.5172 42.0716C13.5838 42.9039 13.9604 43.6808 14.5725 44.2486C15.1846 44.8165 15.9875 45.1338 16.8224 45.1379C16.8698 45.1391 16.9172 45.1364 16.9642 45.1298C17.0291 45.9626 17.4052 46.7406 18.0177 47.3087C18.6301 47.8769 19.434 48.1937 20.2694 48.196C20.3585 48.196 20.4477 48.192 20.5368 48.1839C20.9854 48.1495 21.4222 48.024 21.8208 47.8153C22.2195 47.6069 22.5711 47.3188 22.8537 46.9687L23.842 45.7535L25.4055 47.0254C25.8461 47.3839 26.3713 47.6233 26.9309 47.7209C27.4904 47.8185 28.0657 47.771 28.6016 47.5829C29.1376 47.3947 29.6164 47.0723 29.9921 46.6464C30.3679 46.2204 30.6282 45.7052 30.7481 45.15C31.2717 45.3313 31.8323 45.3786 32.3788 45.2876C32.9253 45.1967 33.4403 44.9703 33.8769 44.6292C34.3135 44.288 34.6577 43.843 34.8781 43.3347C35.0985 42.8265 35.1882 42.2711 35.1389 41.7192C35.9964 41.6201 36.7813 41.1898 37.3262 40.5203C37.858 39.8579 38.1179 39.018 38.0532 38.171C37.9885 37.324 37.604 36.5333 36.9778 35.9594L38.5576 34.6187C38.7514 34.664 38.9498 34.6871 39.1489 34.6875C39.694 34.6685 40.231 34.549 40.7327 34.3351C41.3879 34.0706 42.0288 33.7718 42.6526 33.4399C43.8151 32.8445 44.5969 32.3909 44.8683 31.5403C45.1397 30.6896 44.7711 29.8714 44.1797 28.7089L40.8056 22.1268ZM26.1953 22.7304L32.579 24.5733C32.8236 25.666 33.2334 26.715 33.7941 27.6842L35.5723 31.1555C35.9429 31.9364 36.3792 32.6844 36.8766 33.3913L35.3819 34.6592L32.8585 32.6096L25.4622 26.5865L25.4582 26.5824L25.4419 26.5703L24.3686 25.6548C24.2301 25.5348 24.0599 25.4574 23.8784 25.4321H23.8744C23.6563 25.3954 23.4322 25.4314 23.2365 25.5345C23.0408 25.6377 22.8845 25.8022 22.7915 26.0029C22.6985 26.2036 22.6741 26.4293 22.7219 26.6452C22.7697 26.8612 22.8872 27.0554 23.0562 27.1981L23.4329 27.5181C23.4258 27.5284 23.4177 27.5379 23.4086 27.5464C22.0557 29.2153 20.1074 30.3899 18.3333 30.5519C18.2107 30.5633 18.0874 30.5396 17.9777 30.4837C17.868 30.4278 17.7764 30.3419 17.7135 30.236C17.6457 30.1284 17.6104 30.0035 17.6119 29.8763C17.6133 29.7491 17.6514 29.6251 17.7216 29.519L20.2411 25.6224L20.7109 24.8933C20.9109 24.5583 21.1517 24.2495 21.4279 23.9739C22.0385 23.3588 22.803 22.9189 23.6416 22.7002C24.4802 22.4815 25.3621 22.4919 26.1953 22.7304ZM8.98466 32.2005C8.94489 32.2104 8.90413 32.2158 8.86315 32.2167C8.36088 32.2167 7.3361 31.6375 6.31942 31.042C6.29512 31.0258 6.26271 31.0096 6.23031 30.9894C5.84821 30.7847 5.48963 30.5389 5.16097 30.2562C5.3276 29.819 5.53794 29.3996 5.7888 29.0046L7.74925 25.6589L9.23985 23.1152L9.52743 22.625C9.74793 22.2124 10.0113 21.8241 10.3132 21.4666C10.7512 21.6316 11.1707 21.842 11.5648 22.0944C11.9942 22.3456 12.4155 22.5967 12.78 22.8397C13.3673 23.2245 13.8048 23.581 13.8777 23.8524C13.8928 24.1857 13.8112 24.5162 13.6428 24.8042C13.3651 25.3924 13.0569 25.9657 12.7192 26.5217L10.7466 29.8876C10.3932 30.5233 9.99806 31.1349 9.56389 31.7185C9.41767 31.9283 9.21757 32.0948 8.98466 32.2005ZM12.5208 39.7183C12.2717 39.4969 12.1178 39.1878 12.0914 38.8557C12.065 38.5235 12.168 38.194 12.379 37.936L13.0473 37.1097L13.9871 35.9553C14.103 35.8113 14.2497 35.6951 14.4164 35.6151C14.5724 35.5346 14.7435 35.4877 14.9187 35.4774H14.9997C15.1655 35.4763 15.33 35.508 15.4836 35.5706C15.6372 35.6331 15.7769 35.7253 15.8949 35.8419C16.0599 35.9985 16.1803 36.1963 16.2436 36.4148C16.307 36.6333 16.311 36.8648 16.2554 37.0854C16.2152 37.2503 16.1406 37.4049 16.0366 37.5391C15.9759 37.6039 15.9192 37.6687 15.8625 37.7376L15.0605 38.7218L14.2503 39.7183L14.2463 39.7223C14.0087 39.9344 13.7012 40.0513 13.3828 40.0505C13.0643 40.0498 12.7573 39.9315 12.5208 39.7183ZM15.9637 42.7805C15.7243 42.5651 15.5734 42.2684 15.5405 41.948C15.5075 41.6276 15.5949 41.3064 15.7855 41.0468C15.8491 40.9846 15.9086 40.9183 15.9637 40.8484L16.6523 39.9977L17.5596 38.8839C17.5627 38.8778 17.5668 38.8723 17.5718 38.8677C17.7269 38.7287 17.913 38.6287 18.1145 38.576C18.1954 38.5543 18.2781 38.5408 18.3616 38.5355H18.4426C18.6162 38.536 18.7878 38.5712 18.9475 38.639C19.1072 38.7069 19.2517 38.806 19.3725 38.9306C19.4933 39.0552 19.588 39.2026 19.6509 39.3643C19.7138 39.5261 19.7437 39.6987 19.7388 39.8722C19.7313 40.1415 19.6376 40.4013 19.4715 40.6134C19.4665 40.618 19.4624 40.6235 19.4593 40.6296C19.4063 40.6821 19.3562 40.7376 19.3095 40.7957L18.6573 41.5977L17.6973 42.7764L17.6933 42.7805C17.4548 42.9919 17.1472 43.1087 16.8285 43.1087C16.5098 43.1087 16.2022 42.9919 15.9637 42.7805ZM21.2821 45.6887C21.1722 45.826 21.0354 45.9392 20.88 46.0214C20.7246 46.1036 20.554 46.1531 20.3788 46.1667C20.1319 46.1859 19.8848 46.1341 19.6664 46.0175C19.448 45.9008 19.2675 45.7242 19.1461 45.5083C19.0248 45.2925 18.9677 45.0465 18.9816 44.7993C18.9954 44.5521 19.0797 44.314 19.2244 44.1131C19.2892 44.0483 19.35 43.9794 19.4107 43.9065L20.2492 42.8736L21.0188 41.9299L21.0228 41.9217C21.2392 41.7258 21.517 41.6113 21.8086 41.5977C21.8341 41.5943 21.8599 41.593 21.8856 41.5937H21.8896C22.1347 41.5938 22.3746 41.6634 22.5817 41.7943C22.7888 41.9253 22.9545 42.1123 23.0596 42.3336C23.1648 42.5549 23.205 42.8015 23.1758 43.0448C23.1465 43.288 23.0488 43.518 22.8942 43.708L22.2623 44.4857L21.2821 45.6887ZM35.7546 39.2403C35.537 39.5071 35.2223 39.6766 34.8798 39.7116C34.5372 39.7465 34.1948 39.644 33.9278 39.4266C33.9201 39.4177 33.9104 39.4107 33.8994 39.4064H33.8958L28.4223 34.9561C28.3191 34.8722 28.2004 34.8094 28.073 34.7714C27.9455 34.7333 27.8118 34.7208 27.6795 34.7344C27.5472 34.748 27.4189 34.7876 27.3019 34.8508C27.1849 34.914 27.0815 34.9997 26.9976 35.1029C26.9136 35.2061 26.8509 35.3248 26.8128 35.4522C26.7748 35.5797 26.7623 35.7134 26.7759 35.8457C26.7895 35.978 26.8291 36.1063 26.8923 36.2233C26.9555 36.3403 27.0412 36.4438 27.1444 36.5277L32.6503 41.0023L32.6551 41.0055C32.9217 41.2235 33.0907 41.5384 33.125 41.881C33.1593 42.2236 33.0562 42.5658 32.8382 42.8323C32.6202 43.0988 32.3053 43.2679 31.9627 43.3022C31.6201 43.3365 31.2779 43.2334 31.0114 43.0154L29.6828 41.942C29.6647 41.923 29.6448 41.9058 29.6233 41.8906C29.614 41.8825 29.6071 41.8723 29.5974 41.8646L25.1981 38.2892C24.9897 38.1198 24.7225 38.04 24.4553 38.0676C24.1881 38.0951 23.9428 38.2277 23.7733 38.4361C23.6039 38.6445 23.5241 38.9117 23.5517 39.1789C23.5792 39.4461 23.7118 39.6914 23.9202 39.8608L28.3089 43.4273L28.3138 43.4326L28.3178 43.4366C28.3219 43.4447 28.33 43.4488 28.334 43.4528C28.5944 43.6707 28.7589 43.9819 28.7922 44.3197C28.8255 44.6575 28.725 44.9949 28.5122 45.2594C28.2936 45.5256 27.9792 45.6951 27.6366 45.7315C27.2941 45.7679 26.951 45.6681 26.6814 45.4538L24.9923 44.0766C25.1884 43.5634 25.2541 43.0096 25.1835 42.4648C25.113 41.92 24.9084 41.4012 24.5881 40.9548C24.2678 40.5085 23.8418 40.1486 23.3482 39.9073C22.8547 39.6661 22.309 39.551 21.76 39.5724C21.6896 38.717 21.292 37.9217 20.6499 37.352C20.0078 36.7824 19.1708 36.4823 18.313 36.5143C18.2657 35.8962 18.0461 35.3036 17.6792 34.8039C17.3123 34.3042 16.8127 33.9173 16.2371 33.6871C15.6615 33.4568 15.0329 33.3925 14.4226 33.5013C13.8123 33.6101 13.2446 33.8877 12.7841 34.3027C12.2251 33.8531 11.6756 33.4129 11.1355 32.9822C11.6411 32.3265 12.0961 31.6332 12.4965 30.9084L14.465 27.5464C15.1415 26.3961 15.6518 25.4685 15.8341 24.6301L16.1905 24.6017C16.92 24.5437 17.6541 24.6094 18.3616 24.7961L16.0204 28.4213C15.7461 28.8451 15.5963 29.3373 15.5881 29.842C15.5799 30.3467 15.7137 30.8436 15.9743 31.276C16.2348 31.7083 16.6115 32.0588 17.0615 32.2874C17.5116 32.5161 18.0168 32.6137 18.5196 32.5691C20.8406 32.3544 23.279 30.9205 24.9802 28.8224L31.7527 34.323L34.7541 36.7654C34.7659 36.7771 34.7796 36.7867 34.7946 36.7938L35.5642 37.4176C35.8289 37.6356 35.9972 37.9489 36.0328 38.2899C36.0685 38.631 35.9685 38.9723 35.7546 39.2403ZM42.3691 31.2972C42.1261 31.4309 41.8749 31.5646 41.7291 31.6375C41.3484 31.8319 40.9676 32.0223 40.6152 32.1883C39.9023 32.5164 39.2907 32.7352 39.0031 32.642C38.7439 32.5569 38.4239 32.1316 38.0877 31.5565C37.8528 31.1636 37.6138 30.6977 37.3748 30.2319L35.5966 26.7606C35.3212 26.23 35.0538 25.6953 34.8635 25.2336C34.6587 24.8672 34.5645 24.4494 34.5921 24.0306C34.7864 23.7082 35.0689 23.4482 35.4062 23.2812C35.8478 23.0017 36.4229 22.698 36.9981 22.4023C37.4073 22.1736 37.8389 21.9876 38.2862 21.8473C38.5657 22.2228 38.8059 22.6259 39.0031 23.0504L42.3772 29.6325C42.6051 30.0406 42.791 30.4708 42.9321 30.9165C42.7596 31.0644 42.5707 31.1922 42.3691 31.2972ZM24.0445 5.22683C24.3131 5.22683 24.5707 5.12014 24.7606 4.93023C24.9505 4.74033 25.0571 4.48276 25.0571 4.21419V1.25042C25.0571 0.981858 24.9505 0.724291 24.7606 0.534386C24.5707 0.344481 24.3131 0.237793 24.0445 0.237793C23.776 0.237793 23.5184 0.344481 23.3285 0.534386C23.1386 0.724291 23.0319 0.981858 23.0319 1.25042V4.21298C23.0317 4.34606 23.0578 4.47787 23.1086 4.60087C23.1594 4.72387 23.234 4.83564 23.328 4.9298C23.4221 5.02396 23.5338 5.09866 23.6567 5.14963C23.7797 5.20059 23.9114 5.22683 24.0445 5.22683ZM12.4195 6.09607C12.4855 6.21216 12.5738 6.31405 12.6794 6.39587C12.7849 6.4777 12.9056 6.53783 13.0345 6.57282C13.1634 6.60782 13.2979 6.61697 13.4303 6.59975C13.5628 6.58254 13.6905 6.5393 13.8061 6.47253C13.9218 6.40575 14.0231 6.31676 14.1042 6.21068C14.1853 6.10459 14.2447 5.98351 14.2788 5.8544C14.3129 5.72529 14.3212 5.5907 14.3031 5.45839C14.285 5.32607 14.2409 5.19864 14.1734 5.08344L13.4321 3.80226C13.2969 3.57157 13.0759 3.40374 12.8174 3.33539C12.5589 3.26705 12.2838 3.30373 12.0522 3.43743C11.8207 3.57113 11.6514 3.79101 11.5813 4.04907C11.5112 4.30713 11.5461 4.58243 11.6783 4.81489L12.4195 6.09607ZM3.62987 13.5737L6.19547 15.055C6.31068 15.1226 6.43811 15.1666 6.57042 15.1847C6.70274 15.2028 6.83733 15.1946 6.96644 15.1604C7.09555 15.1263 7.21663 15.067 7.32271 14.9858C7.4288 14.9047 7.51779 14.8034 7.58456 14.6878C7.65134 14.5721 7.69458 14.4444 7.71179 14.312C7.729 14.1795 7.71985 14.045 7.68486 13.9161C7.64987 13.7872 7.58973 13.6666 7.50791 13.561C7.42609 13.4555 7.3242 13.3671 7.2081 13.3011L4.6425 11.8199C4.41004 11.6877 4.13475 11.6528 3.87668 11.7229C3.61862 11.793 3.39875 11.9623 3.26504 12.1938C3.13134 12.4254 3.09466 12.7005 3.16301 12.959C3.23136 13.2175 3.39919 13.4385 3.62987 13.5737ZM3.52942 24.174C3.52942 23.9054 3.42273 23.6478 3.23282 23.4579C3.04292 23.268 2.78535 23.1613 2.51679 23.1613H1.03753C0.768967 23.1613 0.5114 23.268 0.321495 23.4579C0.13159 23.6478 0.0249023 23.9054 0.0249023 24.174C0.0249023 24.4425 0.13159 24.7001 0.321495 24.89C0.5114 25.0799 0.768967 25.1866 1.03753 25.1866H2.51841C2.78669 25.1862 3.04384 25.0793 3.2334 24.8894C3.42295 24.6996 3.52942 24.4423 3.52942 24.174ZM47.011 23.1613H45.5301C45.2616 23.1613 45.004 23.268 44.8141 23.4579C44.6242 23.6478 44.5175 23.9054 44.5175 24.174C44.5175 24.4425 44.6242 24.7001 44.8141 24.89C45.004 25.0799 45.2616 25.1866 45.5301 25.1866H47.011C47.2796 25.1866 47.5371 25.0799 47.727 24.89C47.9169 24.7001 48.0236 24.4425 48.0236 24.174C48.0236 23.9054 47.9169 23.6478 47.727 23.4579C47.5371 23.268 47.2796 23.1613 47.011 23.1613ZM34.2429 6.46669C34.4755 6.60097 34.7519 6.63736 35.0113 6.56785C35.2707 6.49835 35.4919 6.32864 35.6262 6.09607L36.3666 4.81489C36.4342 4.69968 36.4782 4.57225 36.4963 4.43993C36.5144 4.30762 36.5062 4.17303 36.472 4.04392C36.4379 3.91481 36.3786 3.79373 36.2974 3.68765C36.2163 3.58156 36.115 3.49257 35.9994 3.4258C35.8837 3.35902 35.756 3.31578 35.6236 3.29857C35.4911 3.28136 35.3566 3.29051 35.2277 3.3255C35.0988 3.36049 34.9782 3.42063 34.8726 3.50245C34.7671 3.58427 34.6788 3.68616 34.6127 3.80226L33.8723 5.08506C33.7385 5.31749 33.7024 5.59349 33.7719 5.85251C33.8414 6.11153 34.0108 6.33241 34.2429 6.46669ZM41.3467 15.1911C41.5243 15.191 41.6986 15.1441 41.8522 15.055L44.4179 13.5737C44.5339 13.5077 44.6358 13.4194 44.7177 13.3139C44.7995 13.2083 44.8596 13.0876 44.8946 12.9588C44.9296 12.8299 44.9388 12.6954 44.9215 12.5629C44.9043 12.4305 44.8611 12.3028 44.7943 12.1871C44.7275 12.0715 44.6385 11.9702 44.5325 11.889C44.4264 11.8079 44.3053 11.7486 44.1762 11.7145C44.0471 11.6803 43.9125 11.6721 43.7802 11.6901C43.6479 11.7082 43.5204 11.7523 43.4052 11.8199L40.8396 13.3011C40.6463 13.4125 40.4952 13.5847 40.4098 13.7908C40.3244 13.9969 40.3094 14.2254 40.3672 14.4409C40.4251 14.6564 40.5524 14.8468 40.7295 14.9824C40.9067 15.1181 41.1236 15.1914 41.3467 15.1911ZM12.876 18.295C13.136 18.2277 13.3585 18.0598 13.4947 17.8283C13.6309 17.5969 13.6696 17.3208 13.6023 17.0608C12.526 12.9046 14.717 9.92787 17.4369 9.13518C19.3832 8.5681 22.0274 9.06024 23.0813 12.3092C23.1473 12.5127 23.2761 12.69 23.4491 12.8158C23.6222 12.9416 23.8306 13.0093 24.0445 13.0093C24.2584 13.0093 24.4669 12.9416 24.6399 12.8158C24.813 12.69 24.9417 12.5127 25.0077 12.3092C26.0609 9.06024 28.7067 8.56891 30.6517 9.13518C33.3721 9.92787 35.5626 12.9046 34.4868 17.0608C34.4514 17.1902 34.4422 17.3253 34.4595 17.4583C34.4768 17.5913 34.5203 17.7195 34.5876 17.8355C34.6549 17.9516 34.7445 18.0531 34.8513 18.1341C34.9582 18.2152 35.08 18.2743 35.2099 18.3079C35.3397 18.3415 35.4749 18.349 35.6076 18.3299C35.7404 18.3109 35.868 18.2656 35.9831 18.1968C36.0983 18.128 36.1986 18.037 36.2782 17.9291C36.3579 17.8213 36.4153 17.6986 36.4472 17.5684C37.8467 12.1634 34.876 8.25621 31.2184 7.19093C29.9144 6.77863 28.5123 6.79767 27.22 7.24524C25.9277 7.69281 24.8142 8.54505 24.0445 9.67552C23.2749 8.54498 22.1614 7.69265 20.8691 7.24501C19.5768 6.79737 18.1746 6.77826 16.8706 7.19052C13.213 8.25581 10.2424 12.1629 11.6418 17.568C11.6751 17.6968 11.7334 17.8177 11.8134 17.924C11.8935 18.0302 11.9937 18.1197 12.1083 18.1872C12.2229 18.2547 12.3497 18.299 12.4814 18.3175C12.6131 18.336 12.7472 18.3284 12.876 18.295Z" fill="url(#paint0_linear_299_942)"/>
<defs>
<linearGradient id="paint0_linear_299_942" x1="24.0243" y1="0.237793" x2="24.0243" y2="48.196" gradientUnits="userSpaceOnUse">
<stop stop-color="#7123C2"/>
<stop offset="1" stop-color="#9C12C0"/>
</linearGradient>
</defs>
</svg>
