<svg width="123" height="102" viewBox="0 0 123 102" fill="none" xmlns="http://www.w3.org/2000/svg">
<rect x="25.554" y="0.0209961" width="97.3853" height="97.3853" rx="6.68556" fill="#F8F4FC"/>
<path fill-rule="evenodd" clip-rule="evenodd" d="M62.3111 89.2186V85.3874C62.3111 84.984 61.9797 84.6526 61.5763 84.6526H41.7811C41.7412 84.6526 41.7029 84.6685 41.6746 84.6968C41.6464 84.725 41.6305 84.7633 41.6305 84.8032V89.2186C41.6305 89.2854 41.6721 89.3421 41.7361 89.3621C44.6309 90.2727 45.5868 93.9762 43.3969 96.1659C40.8221 98.7407 36.4035 96.9064 36.4035 93.2691C36.4035 91.457 37.5877 89.8916 39.2646 89.3621C39.2953 89.3528 39.3222 89.3337 39.3411 89.3078C39.3601 89.282 39.3702 89.2506 39.3699 89.2186V84.8032C39.3699 84.7633 39.354 84.725 39.3257 84.6968C39.2975 84.6685 39.2592 84.6526 39.2193 84.6526H19.4239C19.0205 84.6526 18.6891 84.9842 18.6891 85.3874V89.2186C18.6891 89.2854 18.7308 89.3421 18.7947 89.3621C21.6896 90.2727 22.6453 93.9762 20.4556 96.1659C17.8807 98.741 13.462 96.9063 13.462 93.2691C13.462 91.457 14.6463 89.8918 16.3232 89.3621C16.3538 89.3528 16.3807 89.3337 16.3997 89.3078C16.4186 89.282 16.4287 89.2506 16.4284 89.2186V85.3874C16.4284 83.7361 17.7726 82.3919 19.4237 82.3919H39.219C39.302 82.3919 39.3696 82.3243 39.3696 82.2413V78.5713C39.3695 78.5314 39.3536 78.4931 39.3254 78.4649C39.2972 78.4367 39.259 78.4208 39.2191 78.4206L38.4518 78.4202L38.4517 78.4208H29.6864C28.9045 78.4208 28.2643 77.7804 28.2643 76.9987V65.0811C28.2632 63.7053 28.5724 62.3471 29.1688 61.1073C29.1828 61.0775 29.2063 61.0531 29.2356 61.0381C29.2649 61.023 29.2984 61.0181 29.3308 61.0241C30.3712 61.2073 31.2683 61.544 31.9192 62.0768C32.5517 62.5946 32.9598 63.3343 33.0378 64.3495C33.0381 64.3534 33.0383 64.3572 33.0383 64.3611V72.0948C33.0383 72.744 33.5561 73.2499 34.2645 73.2207L34.2708 73.2206H40.2652C42.3173 73.2206 43.8952 73.8422 43.7274 76.0747C43.7255 76.0954 43.7281 76.1162 43.735 76.1359C43.7418 76.1555 43.7528 76.1734 43.7671 76.1885C43.781 76.2039 43.7981 76.2162 43.8171 76.2245C43.8362 76.2328 43.8568 76.237 43.8775 76.2367H50.4627C50.4942 76.237 50.525 76.2273 50.5506 76.209C50.5762 76.1907 50.5954 76.1647 50.6053 76.1348L55.1929 62.7319C55.201 62.7093 55.2034 62.685 55.2 62.6612C55.1965 62.6375 55.1872 62.6149 55.1729 62.5956C55.1592 62.5758 55.1408 62.5597 55.1194 62.5488C55.0981 62.5378 55.0743 62.5322 55.0503 62.5326H44.8492C44.8175 62.5323 44.7866 62.542 44.761 62.5605C44.7353 62.5789 44.7162 62.6051 44.7064 62.6352L41.9353 70.8663C41.9255 70.8963 41.9063 70.9225 41.8807 70.9409C41.855 70.9594 41.8241 70.9692 41.7925 70.9688H35.4495C35.4095 70.9688 35.3712 70.9529 35.343 70.9247C35.3147 70.8964 35.2989 70.8581 35.2988 70.8182V64.3523H35.2963C35.2963 64.3303 35.2958 64.3082 35.2943 64.2861C35.1216 61.432 33.3105 59.7743 30.8063 59.054C30.7545 59.0391 30.7172 59.0014 30.7027 58.9495C30.6883 58.8975 30.7008 58.8461 30.7374 58.8067C32.4364 56.9759 34.8519 55.8401 37.5049 55.8401H43.7277C46.997 55.8401 49.9512 57.5604 51.6141 60.2765C51.6273 60.2988 51.6461 60.3171 51.6687 60.3298C51.6913 60.3424 51.7168 60.3489 51.7426 60.3485C53.6061 60.3485 55.398 60.3486 56.8244 60.3491C57.5839 60.3493 58.1406 61.0693 57.8973 61.7818L52.4748 77.6239L52.4729 77.6298C52.3377 78.0864 51.9022 78.4206 51.3862 78.4206H41.7811C41.7412 78.4207 41.7029 78.4366 41.6746 78.4648C41.6464 78.493 41.6305 78.5313 41.6305 78.5713V82.2411C41.6305 82.3241 41.6981 82.3917 41.7811 82.3917H61.5763C63.2276 82.3917 64.5716 83.7359 64.5716 85.3872V89.2184C64.5716 89.2852 64.6133 89.3419 64.6772 89.362C67.5722 90.2727 68.5279 93.976 66.3381 96.1657C63.7631 98.7407 59.3444 96.9063 59.3444 93.269C59.3444 91.4568 60.5286 89.8916 62.2056 89.362C62.2363 89.3527 62.2632 89.3337 62.2823 89.3079C62.3013 89.282 62.3114 89.2507 62.3111 89.2186ZM36.9047 44.6181C34.8548 46.6681 34.8548 49.9921 36.9047 52.042C38.9547 54.092 42.2787 54.0919 44.3286 52.042C46.3786 49.9921 46.3786 46.6682 44.3286 44.6183C42.2787 42.5683 38.9545 42.5683 36.9047 44.6181ZM16.9754 36.3997L19.6122 41.5751C19.6748 41.698 19.7057 41.8346 19.7021 41.9726C19.6985 42.1105 19.6604 42.2453 19.5914 42.3648C19.5891 42.3687 19.587 42.3727 19.5851 42.3768L18.5565 44.6037L18.554 44.6091C18.2228 45.4082 17.9643 46.1721 17.6826 46.9771C17.6407 47.0974 17.5716 47.2065 17.4805 47.2957C17.3895 47.3848 17.279 47.4517 17.1578 47.491L17.1581 47.492L11.6376 49.2857C11.6072 49.2952 11.5807 49.3143 11.5619 49.3401C11.5432 49.3659 11.5332 49.397 11.5335 49.4289V57.9572C11.5335 58.0235 11.5745 58.0799 11.6376 58.1004L17.1586 59.8943C17.2857 59.9356 17.4009 60.007 17.4943 60.1026C17.5878 60.1981 17.6567 60.3149 17.6951 60.4429L17.696 60.4459C18.2885 62.268 18.8045 63.3811 19.6186 65.0793C19.6734 65.1936 19.7011 65.3189 19.6995 65.4456C19.698 65.5723 19.6672 65.6969 19.6096 65.8098L19.6122 65.8111L16.9754 70.9863C16.9606 71.0146 16.9553 71.0469 16.9603 71.0784C16.9653 71.1099 16.9803 71.139 17.0031 71.1613L23.0319 77.19C23.0542 77.2128 23.0833 77.2278 23.1148 77.2328C23.1463 77.2378 23.1786 77.2325 23.2069 77.2178L25.9315 75.8295C25.9582 75.8163 25.9802 75.7954 25.9948 75.7695C26.0094 75.7436 26.0159 75.7139 26.0134 75.6843C26.007 75.5958 26.0038 75.5064 26.0038 75.4164V65.3148C26.0042 65.2806 25.9927 65.2474 25.9711 65.221C24.7656 63.7028 23.8058 62.0049 23.1266 60.1892C20.5577 53.3233 22.2896 45.6745 27.3856 40.5784C34.6286 33.3354 46.3716 33.3354 53.6146 40.5784C58.0776 45.0415 60.0419 51.5481 58.5645 57.9043C58.5233 58.0817 58.4794 58.3091 58.4332 58.565C58.4219 58.628 58.4493 58.6883 58.5041 58.7211C59.7871 59.4887 60.4154 61.0688 59.9263 62.5475L55.4639 76.0417C55.448 76.0896 55.4557 76.138 55.4858 76.1787C55.516 76.2194 55.5599 76.2409 55.6104 76.2396L55.824 76.2346C55.849 76.2337 55.8738 76.2394 55.8959 76.251L57.7929 77.2175C57.8211 77.2322 57.8534 77.2375 57.8849 77.2325C57.9164 77.2275 57.9455 77.2125 57.9679 77.1897L63.9968 71.1608C64.0196 71.1385 64.0345 71.1094 64.0395 71.0779C64.0445 71.0464 64.0393 71.0141 64.0245 70.9858L61.3878 65.8109C61.3252 65.688 61.2943 65.5513 61.2979 65.4134C61.3016 65.2755 61.3396 65.1406 61.4087 65.0212C61.4111 65.017 61.4128 65.0135 61.4149 65.0092L62.4439 62.7823L62.4463 62.7768C62.7776 61.9779 63.036 61.2134 63.3178 60.4084C63.3596 60.288 63.4288 60.179 63.5198 60.0898C63.6109 60.0007 63.7214 59.9338 63.8426 59.8945L63.8423 59.8935L69.3624 58.1C69.3928 58.0904 69.4194 58.0713 69.4381 58.0455C69.4569 58.0197 69.4669 57.9886 69.4666 57.9567V49.4285C69.4669 49.3966 69.4569 49.3654 69.4381 49.3396C69.4194 49.3138 69.3928 49.2948 69.3624 49.2852L63.8416 47.4915C63.7145 47.4503 63.5993 47.3788 63.5059 47.2833C63.4124 47.1878 63.3435 47.0711 63.3051 46.9431L63.3042 46.94C62.7122 45.1199 62.1944 44.0031 61.3811 42.3065C61.3263 42.1922 61.2987 42.0669 61.3002 41.9402C61.3018 41.8135 61.3325 41.6889 61.3901 41.576L61.3875 41.5747L64.0243 36.3995C64.0391 36.3712 64.0444 36.3389 64.0394 36.3074C64.0344 36.2759 64.0194 36.2468 63.9966 36.2245L57.9679 30.1959C57.9455 30.1731 57.9164 30.1581 57.8849 30.1531C57.8534 30.1481 57.8211 30.1534 57.7929 30.1682L52.6179 32.8048C52.495 32.8675 52.3584 32.8984 52.2204 32.8947C52.0825 32.8911 51.9477 32.853 51.8282 32.784C51.8243 32.7818 51.8203 32.7797 51.8162 32.7778L49.5885 31.7484L49.5831 31.746C48.7843 31.415 48.0203 31.1565 47.2156 30.8749C47.0952 30.8331 46.9862 30.7639 46.897 30.6728C46.8078 30.5818 46.741 30.4713 46.7017 30.3501L46.7007 30.3504L44.907 24.8301C44.8974 24.7997 44.8784 24.7731 44.8526 24.7544C44.8268 24.7356 44.7956 24.7257 44.7637 24.726H36.2355C36.2036 24.7257 36.1725 24.7356 36.1467 24.7544C36.1209 24.7731 36.1018 24.7997 36.0922 24.8301L34.2987 30.3501C34.2575 30.4772 34.186 30.5924 34.0905 30.6858C33.995 30.7793 33.8783 30.8482 33.7503 30.8866L33.7472 30.8876C31.9219 31.4815 30.8141 31.9956 29.1132 32.8113C28.9989 32.866 28.8736 32.8937 28.7469 32.8921C28.6202 32.8906 28.4956 32.8598 28.3827 32.8023L28.3815 32.8048L23.2067 30.1682C23.1784 30.1534 23.1461 30.1481 23.1146 30.1531C23.0831 30.1581 23.054 30.1731 23.0317 30.1959L17.0028 36.2245C16.9801 36.2469 16.9652 36.2761 16.9603 36.3076C16.9554 36.3391 16.9606 36.3714 16.9754 36.3997Z" fill="url(#paint0_linear_14_1080)"/>
<defs>
<linearGradient id="paint0_linear_14_1080" x1="40.5" y1="24.726" x2="40.5" y2="97.3688" gradientUnits="userSpaceOnUse">
<stop stop-color="#9C12C0"/>
<stop offset="1" stop-color="#7123C2"/>
</linearGradient>
</defs>
</svg>
