<svg width="106" height="98" viewBox="0 0 106 98" fill="none" xmlns="http://www.w3.org/2000/svg">
<rect x="8.55396" y="0.0209961" width="97.3853" height="97.3853" rx="6.68556" fill="#F8F4FC"/>
<path d="M2.31299 46.0734H68.9058M24.5948 57.3181L21.6691 69.5612M31.3329 68.4554L35.4726 63.8083C35.6549 63.6054 35.6549 63.2741 35.4726 63.0712L31.3329 58.4241M14.9313 68.4554L10.7916 63.8083C10.6092 63.6054 10.6092 63.2741 10.7916 63.0712L14.9313 58.4241M41.3404 80.806H43.0354C43.3902 82.3562 44.0053 83.8351 44.8544 85.1797L43.657 86.3725C42.9483 87.0849 42.9483 88.2487 43.657 88.957L45.5465 90.8456C46.2552 91.558 47.4195 91.558 48.1323 90.8456L49.3257 89.6527C50.656 90.4853 52.1353 91.1107 53.7101 91.4669V93.169C53.7101 94.1756 54.5346 94.9998 55.5376 94.9998H58.2105C59.2132 94.9998 60.0378 94.1756 60.0378 93.169V91.471C61.5942 91.1173 63.0794 90.5025 64.4305 89.6527L65.628 90.8456C66.3366 91.558 67.501 91.558 68.2139 90.8456L70.0993 88.957C70.812 88.2487 70.812 87.0849 70.0993 86.3725L68.9058 85.1797C69.752 83.834 70.3656 82.3554 70.7209 80.806H72.4074C73.4145 80.806 74.239 79.9817 74.239 78.9796V76.3081C74.239 75.3058 73.4145 74.4816 72.4074 74.4816H70.7292C70.3748 72.9227 69.7583 71.4354 68.9058 70.083L70.0993 68.8861C70.812 68.1778 70.812 67.014 70.0993 66.3016L68.2139 64.4171C67.501 63.7047 66.3366 63.7047 65.628 64.4171L64.4305 65.6098C63.0836 64.765 61.5876 64.1355 59.9881 63.7792V62.1185C59.9881 61.112 59.1635 60.2877 58.1565 60.2877H55.4878C54.4808 60.2877 53.6604 61.112 53.6604 62.1185V63.8041C52.1092 64.1662 50.6299 64.7865 49.2843 65.6389L48.0951 64.4543C47.3865 63.7419 46.2221 63.7419 45.5092 64.4543L43.6238 66.3389C42.9111 67.0513 42.9111 68.2151 43.6238 68.9234L44.8255 70.1286C43.9885 71.4692 43.382 72.9405 43.0313 74.4816H41.3404C40.3336 74.4816 39.5129 75.3058 39.5129 76.3081V78.9796C39.5129 79.9817 40.3336 80.806 41.3404 80.806ZM41.3404 80.806L29.4765 80.8061M16.4106 80.8061H7.75802C4.76637 80.8061 2.31299 77.8781 2.31299 74.3037V33.085C2.31299 29.5066 4.76198 26.5825 7.75802 26.5825H63.4608C66.4568 26.5825 68.9058 29.5107 68.9058 33.085V65.109M22.9581 80.8061H22.987M14.521 39.8524C16.4355 39.8524 17.9977 38.2952 17.9977 36.3817C17.9977 34.4682 16.4355 32.911 14.521 32.911C12.6107 32.911 11.0483 34.4682 11.0483 36.3817C11.0483 38.2952 12.6107 39.8524 14.521 39.8524ZM44.7011 32.911H57.7793C59.6896 32.911 61.252 34.4724 61.252 36.3817C61.252 38.2911 59.6896 39.8524 57.7793 39.8524H44.7011C42.7908 39.8524 41.2285 38.2911 41.2285 36.3817C41.2285 34.4724 42.7908 32.911 44.7011 32.911ZM27.3422 39.8524C29.2567 39.8524 30.8189 38.2952 30.8189 36.3817C30.8189 34.4682 29.2567 32.911 27.3422 32.911C25.4319 32.911 23.8696 34.4682 23.8696 36.3817C23.8696 38.2952 25.4319 39.8524 27.3422 39.8524ZM56.8759 70.1121C61.0363 70.1121 64.4096 73.4835 64.4096 77.6459C64.4096 81.8043 61.0363 85.1756 56.8759 85.1756C52.7114 85.1756 49.338 81.8043 49.338 77.6459C49.338 73.4835 52.7114 70.1121 56.8759 70.1121Z" stroke="url(#paint0_linear_14_1072)" stroke-width="4.01134" stroke-miterlimit="10" stroke-linecap="round" stroke-linejoin="round"/>
<defs>
<linearGradient id="paint0_linear_14_1072" x1="38.276" y1="26.5825" x2="38.276" y2="94.9998" gradientUnits="userSpaceOnUse">
<stop stop-color="#9C12C0"/>
<stop offset="1" stop-color="#7123C2"/>
</linearGradient>
</defs>
</svg>
