<svg width="122" height="100" viewBox="0 0 122 100" fill="none" xmlns="http://www.w3.org/2000/svg">
<rect x="24.554" y="0.0209961" width="97.3853" height="97.3853" rx="6.68556" fill="#F8F4FC"/>
<path d="M51.9851 67.3282H51.0718C50.8636 66.6699 50.5981 66.0312 50.2784 65.4193L50.9222 64.7754C51.6558 64.0418 51.6558 62.859 50.9222 62.133L48.6614 59.8722C47.9577 59.1685 46.7301 59.1685 46.0264 59.8722L45.3752 60.516C44.7688 60.1941 44.125 59.932 43.4662 59.7224V58.8167C43.4662 57.7837 42.6277 56.9452 41.6023 56.9452H38.4058C37.3728 56.9452 36.5343 57.7837 36.5343 58.8167V59.7224C35.876 59.9306 35.2372 60.1962 34.6253 60.516L33.9815 59.8722C33.2553 59.1462 32.0725 59.1462 31.3389 59.8722L29.0857 62.133C28.3521 62.859 28.3521 64.0418 29.0783 64.7754L29.7295 65.4193C29.4076 66.0332 29.1381 66.6694 28.936 67.3282H28.0227C26.9897 67.3282 26.1588 68.1667 26.1588 69.1997V72.3888C26.1588 73.4218 26.9897 74.2603 28.0227 74.2603H28.936C29.1381 74.9191 29.4077 75.5553 29.7295 76.1692L29.0783 76.8129C28.9042 76.9867 28.7663 77.1933 28.6725 77.4207C28.5787 77.6482 28.5309 77.8919 28.5318 78.1379C28.5318 78.632 28.7264 79.1037 29.0783 79.4555L31.3389 81.7163C32.0725 82.4423 33.2553 82.4423 33.9815 81.7163L34.6253 81.0725C35.2372 81.3923 35.876 81.6578 36.5343 81.8659V82.7718C36.5343 83.8048 37.3728 84.6433 38.4058 84.6433H41.6023C42.6278 84.6433 43.4662 83.8048 43.4662 82.7718V81.8585C44.125 81.6565 44.7688 81.3945 45.3752 81.0725L46.0264 81.7163C46.7301 82.42 47.9577 82.42 48.6614 81.7163L50.9222 79.4555C51.6483 78.7294 51.6483 77.5467 50.9222 76.8129L50.2784 76.1692C50.5982 75.5574 50.8637 74.9186 51.0718 74.2603H51.9851C53.0107 74.2603 53.8491 73.4218 53.8491 72.3888V69.1997C53.8491 68.1667 53.0107 67.3282 51.9851 67.3282ZM40.0001 75.0539C37.6569 75.0539 35.7481 73.1375 35.7481 70.7943C35.7481 68.4437 37.6571 66.5348 40.0001 66.5348C42.3507 66.5348 44.2596 68.4437 44.2596 70.7943C44.2596 73.1373 42.3507 75.0539 40.0001 75.0539Z" fill="url(#paint0_linear_14_1078)"/>
<path d="M74.1885 63.1887C72.1748 63.1887 70.4755 64.5661 69.9814 66.4302H58.9697V59.1912H66.9722C68.8437 59.1912 70.3633 57.6716 70.3633 55.7925V53.6964C71.9879 53.06 73.1481 51.4807 73.1481 49.6389C73.1481 47.2285 71.1869 45.2747 68.7838 45.2747C66.3734 45.2747 64.4196 47.2285 64.4196 49.6389C64.4196 51.8174 66.029 53.6289 68.1176 53.9434V55.7925C68.1176 56.4288 67.6086 56.9454 66.9724 56.9454H58.9695V44.8255C58.9771 41.7788 57.3751 38.8817 54.7848 37.2721L44.1173 30.6321V28.3191C44.1173 26.0509 42.2757 24.2094 40 24.2094C37.7318 24.2094 35.8826 26.0509 35.8826 28.3191V30.6322L25.2226 37.2723C22.6325 38.8817 21.023 41.7788 21.0304 44.8181V56.9454H13.0282C12.3993 56.9454 11.8828 56.4288 11.8828 55.7925V53.9435C13.9788 53.629 15.5883 51.8175 15.5883 49.6391C15.5883 47.2287 13.6344 45.2748 11.224 45.2748C8.82095 45.2748 6.85969 47.2287 6.85969 49.6391C6.85969 51.4807 8.01254 53.0602 9.63692 53.6966V55.7925C9.63692 57.6716 11.1641 59.1912 13.0281 59.1912H21.0306V66.4226H10.0264C9.52479 64.5661 7.833 63.1887 5.81173 63.1887C3.40871 63.1887 1.44745 65.1425 1.44745 67.5531C1.44745 69.9561 3.40871 71.9174 5.81173 71.9174C7.833 71.9174 9.53219 70.54 10.0264 68.6685H21.0307V75.9073H13.0282C11.1643 75.9073 9.63708 77.4345 9.63708 79.306V81.4021C8.0127 82.0384 6.85985 83.6179 6.85985 85.467C6.85985 87.8774 8.82111 89.8314 11.2241 89.8314C13.6346 89.8314 15.5884 87.8776 15.5884 85.467C15.5884 83.2887 13.9788 81.4771 11.8829 81.1552V79.3062C11.8829 78.6699 12.3995 78.1533 13.0284 78.1533H21.0309V91.1415C21.0309 94.2705 23.5761 96.8158 26.6978 96.8158H53.3029C56.432 96.8158 58.9698 94.2705 58.9698 91.1415V88.3417C58.9698 87.7278 58.4682 87.2188 57.8469 87.2188C57.2256 87.2188 56.724 87.7278 56.724 88.3417V91.1415C56.724 93.0353 55.1894 94.5699 53.3029 94.5699H26.6977C24.8112 94.5699 23.2766 93.0353 23.2766 91.1415V44.8181C23.269 42.5425 24.4743 40.3864 26.4132 39.1813L35.8829 33.2824C35.8905 36.3591 35.8829 39.9448 35.8905 40.3191C35.0297 41.2923 34.4907 42.5574 34.4907 43.9574C34.4832 47.0266 36.9685 49.4745 39.9855 49.4745H40.0154C43.0623 49.4745 45.5176 47.0041 45.51 43.9574C45.51 42.565 44.9785 41.2998 44.1102 40.3267C44.1252 39.93 44.1178 37.7816 44.1178 33.2825L53.5951 39.1814C55.534 40.3867 56.7317 42.5426 56.7241 44.8182V82.5849C56.7241 83.2062 57.2257 83.7078 57.8471 83.7078C58.4684 83.7078 58.97 83.2062 58.97 82.5849V78.1532H66.9725C67.6088 78.1532 68.1178 78.6698 68.1178 79.306V81.155C66.0293 81.4769 64.4197 83.2886 64.4197 85.4668C64.4197 87.8773 66.3736 89.8313 68.784 89.8313C71.187 89.8313 73.1483 87.8774 73.1483 85.4668C73.1483 83.6179 71.988 82.0384 70.3635 81.402V79.3059C70.3635 77.4344 68.8438 75.9072 66.9724 75.9072H58.9695V68.6759H69.9813C70.4753 70.5398 72.1747 71.9173 74.1884 71.9173C76.5988 71.9173 78.5527 69.956 78.5527 67.553C78.5528 65.1425 76.599 63.1887 74.1885 63.1887ZM66.6651 49.6391C66.6651 48.4713 67.6159 47.5207 68.7837 47.5207C69.9515 47.5207 70.9023 48.4714 70.9023 49.6391C70.9023 50.8069 69.9515 51.7575 68.7837 51.7575C67.6159 51.7575 66.6651 50.8069 66.6651 49.6391ZM9.10569 49.6391C9.10569 48.4713 10.0563 47.5207 11.2241 47.5207C12.3919 47.5207 13.3427 48.4714 13.3427 49.6391C13.3427 50.8069 12.3919 51.7575 11.2241 51.7575C10.0563 51.7575 9.10569 50.8069 9.10569 49.6391ZM7.93033 67.553C7.93033 68.7208 6.97954 69.6714 5.81173 69.6714C4.64392 69.6714 3.69314 68.7206 3.69314 67.553C3.69314 66.3852 4.64392 65.4344 5.81173 65.4344C6.97954 65.4344 7.93033 66.3776 7.93033 67.5454V67.553ZM13.3427 85.4668C13.3427 86.6347 12.3919 87.5854 11.2241 87.5854C10.0563 87.5854 9.10569 86.6347 9.10569 85.4668C9.10569 84.299 10.0563 83.3484 11.2241 83.3484C12.3919 83.3484 13.3427 84.299 13.3427 85.4668ZM40.0077 47.2287H39.9927C38.1886 47.2287 36.7364 45.7689 36.7364 43.9648C36.7364 43.598 36.8188 43.2536 36.9311 42.9316C37.6872 43.7777 38.78 44.3166 40.0003 44.3166C41.2279 44.3166 42.3283 43.7701 43.0845 42.9168C43.2043 43.2463 43.2642 43.5981 43.2642 43.9649C43.2714 45.7613 41.8192 47.2287 40.0077 47.2287ZM70.9021 85.4668C70.9021 86.6347 69.9513 87.5854 68.7835 87.5854C67.6157 87.5854 66.6649 86.6347 66.6649 85.4668C66.6649 84.299 67.6157 83.3484 68.7835 83.3484C69.9513 83.3484 70.9021 84.299 70.9021 85.4668ZM74.1885 69.6716C73.0207 69.6716 72.0701 68.7208 72.0701 67.5531C72.0701 66.3853 73.0207 65.4345 74.1885 65.4345C75.3563 65.4345 76.3071 66.3853 76.3071 67.5531C76.307 68.7208 75.3563 69.6716 74.1885 69.6716Z" fill="url(#paint1_linear_14_1078)"/>
<defs>
<linearGradient id="paint0_linear_14_1078" x1="40.0039" y1="56.9452" x2="40.0039" y2="84.6433" gradientUnits="userSpaceOnUse">
<stop stop-color="#9C12C0"/>
<stop offset="1" stop-color="#7123C2"/>
</linearGradient>
<linearGradient id="paint1_linear_14_1078" x1="40.0001" y1="24.2094" x2="40.0001" y2="96.8158" gradientUnits="userSpaceOnUse">
<stop stop-color="#9C12C0"/>
<stop offset="1" stop-color="#7123C2"/>
</linearGradient>
</defs>
</svg>
