<svg width="120" height="103" viewBox="0 0 120 103" fill="none" xmlns="http://www.w3.org/2000/svg">
<rect x="22.554" y="0.0209961" width="97.3853" height="97.3853" rx="6.68556" fill="#F8F4FC"/>
<path d="M56.2489 46.5249L42.6523 60.108L35.1195 52.5888C34.6146 52.0868 33.9315 51.8051 33.2195 51.8051C32.5075 51.8051 31.8245 52.0868 31.3195 52.5888L19.1917 64.7166C18.9096 64.9582 18.6804 65.2555 18.5187 65.5899C18.3569 65.9242 18.266 66.2884 18.2517 66.6596C18.2373 67.0308 18.2999 67.4009 18.4354 67.7467C18.5708 68.0926 18.7764 68.4067 19.039 68.6693C19.3017 68.932 19.6158 69.1375 19.9616 69.273C20.3075 69.4085 20.6776 69.471 21.0487 69.4567C21.4199 69.4423 21.7841 69.3514 22.1185 69.1897C22.4528 69.0279 22.7501 68.7988 22.9917 68.5166L33.2195 58.3023L40.7522 65.8216C41.2572 66.3235 41.9403 66.6053 42.6523 66.6053C43.3643 66.6053 44.0473 66.3235 44.5523 65.8216L60.0489 50.3249C60.4905 49.8094 60.7212 49.1462 60.695 48.4679C60.6688 47.7896 60.3876 47.1462 59.9076 46.6662C59.4276 46.1862 58.7842 45.905 58.1059 45.8788C57.4276 45.8526 56.7645 46.0834 56.2489 46.5249Z" fill="url(#paint0_linear_14_1076)"/>
<path d="M76.3407 24.843H13.0066C11.2294 24.8462 9.50279 25.4348 8.09373 26.5178C6.68467 27.6008 5.67171 29.118 5.2115 30.8345C4.7513 32.5511 4.86949 34.3715 5.5478 36.0141C6.22611 37.6568 7.42674 39.0302 8.96402 39.9219V77.3969C8.96402 79.5412 9.81585 81.5977 11.3321 83.114C12.8484 84.6302 14.9049 85.4821 17.0492 85.4821H45.6304C45.4409 86.4088 45.3461 87.3525 45.3474 88.2984C45.3474 88.6757 45.5091 97.6099 60.1703 97.6099C74.8315 97.6099 74.9932 88.6757 74.9932 88.2984C74.9897 87.0564 74.8267 85.8201 74.5081 84.6196C75.8606 83.9569 77.0012 82.9296 77.8012 81.6534C78.6012 80.3773 79.0288 78.903 79.0358 77.3969V40.5418C80.8275 39.9015 82.336 38.6498 83.2958 37.007C84.2557 35.3641 84.6054 33.4354 84.2835 31.5602C83.9616 29.6849 82.9886 27.9833 81.5358 26.7547C80.083 25.526 78.2434 24.8491 76.3407 24.843ZM60.1703 92.2197C51.1553 92.2197 50.7376 88.3658 50.7376 88.2984C50.7215 85.7967 51.6999 83.391 53.4575 81.6107C55.2151 79.8303 57.608 78.8211 60.1097 78.805C62.6114 78.7889 65.017 79.7673 66.7974 81.5249C68.5777 83.2825 69.587 85.6754 69.6031 88.1771C69.6031 88.6083 68.9023 92.2197 60.1703 92.2197ZM60.1703 73.3542C59.3708 73.3542 58.5892 73.1172 57.9244 72.6729C57.2596 72.2287 56.7414 71.5974 56.4354 70.8587C56.1295 70.12 56.0494 69.3072 56.2054 68.523C56.3614 67.7388 56.7464 67.0185 57.3118 66.4531C57.8771 65.8877 58.5975 65.5027 59.3816 65.3467C60.1658 65.1907 60.9787 65.2708 61.7174 65.5768C62.456 65.8827 63.0874 66.4009 63.5316 67.0657C63.9758 67.7305 64.2129 68.5121 64.2129 69.3116C64.2129 70.3838 63.787 71.4121 63.0289 72.1702C62.2707 72.9283 61.2425 73.3542 60.1703 73.3542ZM67.3931 75.3621C68.5482 73.9869 69.2868 72.3105 69.5219 70.5299C69.757 68.7494 69.4789 66.9388 68.7203 65.3109C67.9617 63.683 66.7541 62.3055 65.2395 61.3403C63.725 60.3751 61.9663 59.8624 60.1703 59.8624C58.3743 59.8624 56.6157 60.3751 55.1011 61.3403C53.5865 62.3055 52.3789 63.683 51.6203 65.3109C50.8617 66.9388 50.5836 68.7494 50.8187 70.5299C51.0539 72.3105 51.7924 73.9869 52.9475 75.3621C50.8966 76.5147 49.1467 78.1353 47.8404 80.0919H17.0492C16.3344 80.0919 15.6489 79.808 15.1435 79.3026C14.6381 78.7971 14.3542 78.1116 14.3542 77.3969V41.0134H73.6457V77.3969C73.6523 77.8763 73.531 78.3489 73.2941 78.7658C73.0572 79.1827 72.7134 79.5288 72.2981 79.7685C71.0119 77.9525 69.3361 76.447 67.3931 75.3621ZM76.3407 35.6233H13.0066C12.2918 35.6233 11.6063 35.3393 11.1009 34.8339C10.5955 34.3285 10.3116 33.643 10.3116 32.9282C10.3116 32.2134 10.5955 31.5279 11.1009 31.0225C11.6063 30.5171 12.2918 30.2332 13.0066 30.2332H76.3407C77.0555 30.2332 77.741 30.5171 78.2464 31.0225C78.7519 31.5279 79.0358 32.2134 79.0358 32.9282C79.0358 33.643 78.7519 34.3285 78.2464 34.8339C77.741 35.3393 77.0555 35.6233 76.3407 35.6233Z" fill="url(#paint1_linear_14_1076)"/>
<defs>
<linearGradient id="paint0_linear_14_1076" x1="39.4733" y1="45.8768" x2="39.4733" y2="69.4587" gradientUnits="userSpaceOnUse">
<stop stop-color="#9C12C0"/>
<stop offset="1" stop-color="#7123C2"/>
</linearGradient>
<linearGradient id="paint1_linear_14_1076" x1="44.6679" y1="24.843" x2="44.6679" y2="97.6099" gradientUnits="userSpaceOnUse">
<stop stop-color="#9C12C0"/>
<stop offset="1" stop-color="#7123C2"/>
</linearGradient>
</defs>
</svg>
