<svg width="120" height="103" viewBox="0 0 120 103" fill="none" xmlns="http://www.w3.org/2000/svg">
<rect x="22.554" y="0.0209961" width="97.3853" height="97.3853" rx="6.68556" fill="#F8F4FC"/>
<path d="M25.2833 51.1122C24.8001 50.6225 24.1448 50.3474 23.4614 50.3474C22.7781 50.3474 22.1228 50.6225 21.6395 51.1122L13.9087 58.9489C13.4256 59.4388 13.1542 60.1031 13.1542 60.7958C13.1542 61.4884 13.4256 62.1527 13.9087 62.6426L21.6395 70.4793C21.8783 70.7228 22.1622 70.9159 22.4749 71.0477C22.7875 71.1796 23.1228 71.2474 23.4614 71.2474C23.8001 71.2474 24.1354 71.1796 24.448 71.0477C24.7607 70.9159 25.0446 70.7228 25.2833 70.4793C25.7664 69.9895 26.0378 69.3251 26.0378 68.6325C26.0378 67.9398 25.7664 67.2755 25.2833 66.7856L19.3744 60.7958L25.2833 54.8059C25.7664 54.316 26.0378 53.6517 26.0378 52.959C26.0378 52.2664 25.7664 51.6021 25.2833 51.1122ZM35.5911 51.1122C35.3534 50.8627 35.069 50.6637 34.7546 50.5268C34.4402 50.3899 34.1021 50.3178 33.7599 50.3148C33.4178 50.3118 33.0784 50.3779 32.7617 50.5092C32.445 50.6406 32.1573 50.8345 31.9154 51.0798C31.6734 51.3251 31.4821 51.6167 31.3525 51.9378C31.2229 52.2588 31.1577 52.6028 31.1607 52.9496C31.1637 53.2965 31.2348 53.6393 31.3698 53.958C31.5049 54.2767 31.7012 54.5649 31.9473 54.8059L37.8562 60.7958L31.9473 66.7856C31.7012 67.0266 31.5049 67.3148 31.3698 67.6335C31.2348 67.9522 31.1637 68.295 31.1607 68.6419C31.1577 68.9887 31.2229 69.3327 31.3525 69.6537C31.4821 69.9748 31.6734 70.2664 31.9154 70.5117C32.1573 70.757 32.445 70.9509 32.7617 71.0823C33.0784 71.2136 33.4178 71.2797 33.7599 71.2767C34.1021 71.2737 34.4402 71.2016 34.7546 71.0647C35.069 70.9278 35.3534 70.7288 35.5911 70.4793L43.3219 62.6426C43.805 62.1527 44.0764 61.4884 44.0764 60.7958C44.0764 60.1031 43.805 59.4388 43.3219 58.9489L35.5911 51.1122Z" fill="url(#paint0_linear_14_1074)"/>
<path d="M76.2655 65.7511L72.6346 63.6744C72.7763 62.7027 72.8459 61.7414 72.8459 60.7957C72.8459 59.8501 72.7763 58.8888 72.6346 57.917L76.2681 55.8403C76.5668 55.6697 76.8289 55.4403 77.0391 55.1657C77.2493 54.8911 77.4033 54.5767 77.4921 54.241C77.5809 53.9052 77.6027 53.5549 77.5562 53.2105C77.5098 52.8662 77.396 52.5346 77.2215 52.2354L71.9414 43.1892C71.5982 42.6009 71.0411 42.1723 70.3898 41.9956C69.7384 41.8188 69.0447 41.9078 68.4574 42.2436L64.762 44.3595C63.2031 43.144 61.485 42.1541 59.6571 41.4181V37.2856C59.6571 36.5928 59.3856 35.9283 58.9024 35.4384C58.4191 34.9485 57.7636 34.6733 57.0802 34.6733H51.8078V32.0611C51.8078 27.7404 48.3392 24.2244 44.0769 24.2244H13.1537C8.89141 24.2244 5.42285 27.7404 5.42285 32.0611V89.5304C5.42285 93.851 8.89141 97.3671 13.1537 97.3671H44.0769C48.3392 97.3671 51.8078 93.851 51.8078 89.5304V86.9181H57.0828C57.7662 86.9181 58.4217 86.6429 58.9049 86.153C59.3882 85.6631 59.6597 84.9987 59.6597 84.3059V80.1785C61.4871 79.4415 63.205 78.4517 64.7646 77.2372L68.4599 79.3505C69.0473 79.6862 69.741 79.7753 70.3924 79.5985C71.0437 79.4217 71.6007 78.9932 71.944 78.4048L77.219 69.356C77.3934 69.0568 77.5072 68.7253 77.5537 68.3809C77.6001 68.0365 77.5783 67.6862 77.4895 67.3505C77.4007 67.0148 77.2467 66.7004 77.0365 66.4257C76.8264 66.1511 76.5642 65.9218 76.2655 65.7511ZM51.8078 55.5712C54.6501 55.5712 56.9616 57.9144 56.9616 60.7957C56.9616 63.677 54.6501 66.0202 51.8078 66.0202V55.5712ZM46.6539 89.5304C46.6539 90.9697 45.4994 92.1426 44.0769 92.1426H13.1537C11.7338 92.1426 10.5767 90.9697 10.5767 89.5304V32.0611C10.5767 30.6217 11.7338 29.4488 13.1537 29.4488H23.4614C23.4614 32.3301 25.7729 34.6733 28.6153 34.6733C31.4577 34.6733 33.7692 32.3301 33.7692 29.4488H44.0769C45.4994 29.4488 46.6539 30.6217 46.6539 32.0611V89.5304ZM67.2488 57.1804C67.5426 58.4134 67.692 59.6307 67.692 60.7957C67.692 61.9608 67.5426 63.1781 67.2488 64.4111C67.1168 64.9635 67.1662 65.5445 67.3894 66.0658C67.6126 66.5872 67.9975 67.0206 68.4857 67.3002L71.444 68.9929L68.7898 73.5408L65.7413 71.7959C65.2658 71.5251 64.718 71.4139 64.1764 71.4782C63.6348 71.5425 63.1271 71.779 62.7262 72.1537C60.9103 73.8522 58.732 75.1028 56.3612 75.8083C55.8259 75.9665 55.3557 76.2965 55.0212 76.7487C54.6867 77.2008 54.5058 77.7508 54.5058 78.316V81.6936H51.8078V71.2447C57.4925 71.2447 62.1155 66.5583 62.1155 60.7957C62.1155 55.0331 57.4925 50.3468 51.8078 50.3468V39.8978H54.5058V43.278C54.5058 43.8433 54.6867 44.3932 55.0212 44.8454C55.3557 45.2976 55.8259 45.6275 56.3612 45.7858C58.7323 46.4893 60.9107 47.7392 62.7262 49.4377C63.1267 49.8132 63.6344 50.0501 64.1763 50.1144C64.7181 50.1787 65.266 50.0671 65.7413 49.7956L68.7924 48.0506L71.4466 52.5985L68.4883 54.2912C68.0001 54.5708 67.6152 55.0042 67.392 55.5256C67.1688 56.047 67.1168 56.628 67.2488 57.1804Z" fill="url(#paint1_linear_14_1074)"/>
<defs>
<linearGradient id="paint0_linear_14_1074" x1="28.6153" y1="50.3147" x2="28.6153" y2="71.2768" gradientUnits="userSpaceOnUse">
<stop stop-color="#9C12C0"/>
<stop offset="1" stop-color="#7123C2"/>
</linearGradient>
<linearGradient id="paint1_linear_14_1074" x1="41.5014" y1="24.2244" x2="41.5014" y2="97.3671" gradientUnits="userSpaceOnUse">
<stop stop-color="#9C12C0"/>
<stop offset="1" stop-color="#7123C2"/>
</linearGradient>
</defs>
</svg>
