<svg width="113" height="98" viewBox="0 0 113 98" fill="none" xmlns="http://www.w3.org/2000/svg">
<rect x="15.554" y="0.0209961" width="97.3853" height="97.3853" rx="6.68556" fill="#F8F4FC"/>
<g clip-path="url(#clip0_14_1075)">
<path d="M66.0508 71.9443C62.4191 71.9443 59.3509 74.3931 58.4045 77.7256H50.7305V69.2626H58.5659C67.0764 69.2626 74 62.3389 74 53.8285C74 47.005 69.4744 41.0108 63.0497 39.0584C61.1077 31.2821 54.0881 25.7047 45.9583 25.7047C42.8068 25.7047 39.7879 26.5174 37.1236 28.0701C34.3019 25.4897 30.602 24.04 26.7146 24.04C18.3761 24.04 11.5609 30.6872 11.2889 38.9604C4.68946 40.8051 0 46.8475 0 53.8285C0 62.3389 6.92363 69.2626 15.4341 69.2626H23.2695V77.7256H15.5955C14.6493 74.3931 11.5809 71.9443 7.94922 71.9443C3.56602 71.9443 0 75.5104 0 79.8936C0 84.2768 3.56602 87.8428 7.94922 87.8428C11.5809 87.8428 14.6491 85.394 15.5955 82.0615H25.4375C26.6348 82.0615 27.6055 81.0909 27.6055 79.8936V69.2626H34.832V82.3645C31.4996 83.3107 29.0508 86.3791 29.0508 90.0107C29.0508 94.3939 32.6168 97.96 37 97.96C41.3832 97.96 44.9492 94.3939 44.9492 90.0107C44.9492 86.3791 42.5004 83.3109 39.168 82.3645V69.2626H46.3945V79.8936C46.3945 81.0909 47.3652 82.0615 48.5625 82.0615H58.4045C59.3507 85.394 62.4191 87.8428 66.0508 87.8428C70.434 87.8428 74 84.2768 74 79.8936C74 75.5104 70.434 71.9443 66.0508 71.9443ZM7.94922 83.5068C5.95686 83.5068 4.33594 81.8859 4.33594 79.8936C4.33594 77.9012 5.95686 76.2803 7.94922 76.2803C9.94158 76.2803 11.5625 77.9012 11.5625 79.8936C11.5625 81.8859 9.94158 83.5068 7.94922 83.5068ZM40.6133 90.0107C40.6133 92.0031 38.9924 93.624 37 93.624C35.0076 93.624 33.3867 92.0031 33.3867 90.0107C33.3867 88.0184 35.0076 86.3975 37 86.3975C38.9924 86.3975 40.6133 88.0184 40.6133 90.0107ZM15.4341 64.9266C9.31461 64.9266 4.33594 59.9481 4.33594 53.8285C4.33594 48.359 8.41273 43.6382 13.8186 42.8476C14.9594 42.6808 15.7699 41.6503 15.6636 40.5024C15.6321 40.1605 15.6163 39.8173 15.6163 39.474C15.6163 33.3546 20.595 28.3761 26.7144 28.3761C29.9794 28.3761 33.0583 29.7954 35.1616 32.2701C35.9 33.1389 37.185 33.2871 38.1021 32.6096C40.3758 30.929 43.0924 30.0407 45.9582 30.0407C52.5529 30.0407 58.0371 34.8794 59.0623 41.1739C59.1331 41.6086 59.3346 42.0114 59.64 42.3288C59.9454 42.6461 60.3403 42.8628 60.7719 42.9502C65.9243 43.9933 69.6639 48.5681 69.6639 53.8285C69.6639 59.9481 64.6852 64.9266 58.5658 64.9266H15.4341ZM66.0508 83.5068C64.0584 83.5068 62.4375 81.8859 62.4375 79.8936C62.4375 77.9012 64.0584 76.2803 66.0508 76.2803C68.0431 76.2803 69.6641 77.9012 69.6641 79.8936C69.6641 81.8859 68.0431 83.5068 66.0508 83.5068Z" fill="url(#paint0_linear_14_1075)"/>
</g>
<defs>
<linearGradient id="paint0_linear_14_1075" x1="37" y1="24.04" x2="37" y2="97.96" gradientUnits="userSpaceOnUse">
<stop stop-color="#9C12C0"/>
<stop offset="1" stop-color="#7123C2"/>
</linearGradient>
<clipPath id="clip0_14_1075">
<rect width="74" height="74" fill="white" transform="translate(0 24)"/>
</clipPath>
</defs>
</svg>
