<svg width="109" height="98" viewBox="0 0 109 98" fill="none" xmlns="http://www.w3.org/2000/svg">
<rect x="11.554" y="0.0209961" width="97.3853" height="97.3853" rx="6.68556" fill="#F8F4FC"/>
<g clip-path="url(#clip0_14_1073)">
<path d="M43.0099 23.791H32.6161C31.3905 23.7871 30.2005 24.1978 29.2446 24.9547C28.2886 25.7116 27.6245 26.7689 27.363 27.9504L26.0442 33.7255C23.8708 34.6386 21.8198 35.813 19.938 37.222L14.2442 35.4491C11.8005 34.706 9.14424 35.7266 7.91924 37.8787L2.73799 46.7217C2.13434 47.7717 1.9054 48.9912 2.08785 50.1848C2.2703 51.3784 2.85359 52.4771 3.74424 53.3046L8.15674 57.3068C7.89085 59.6221 7.8898 61.9596 8.15361 64.2752L3.76299 68.2588C2.86877 69.0808 2.28014 70.1752 2.09145 71.3666C1.90276 72.558 2.12493 73.7774 2.72236 74.8294L7.93486 83.7248C9.14736 85.8523 11.8005 86.8822 14.238 86.1329L19.938 84.36C21.8203 85.7683 23.8711 86.9427 26.0442 87.8565L27.363 93.6347C27.6252 94.8155 28.2895 95.8721 29.2454 96.6284C30.2012 97.3847 31.3909 97.795 32.6161 97.791H43.0099C45.5474 97.791 47.7067 96.0797 48.263 93.6316L49.5817 87.8565C51.7552 86.9433 53.8061 85.7689 55.688 84.36L61.3817 86.1329C63.8192 86.8852 66.4786 85.8554 67.7067 83.7032L72.888 74.8602C74.1286 72.6711 73.7099 69.9732 71.8817 68.2773L67.4692 64.2752C67.7342 61.9597 67.7342 59.6222 67.4692 57.3068L71.863 53.3231L71.8817 53.3046C73.7099 51.6088 74.1317 48.914 72.9036 46.7526L67.6911 37.8571C66.4755 35.7296 63.8224 34.6998 61.388 35.4491L55.6849 37.2251C53.8026 35.8167 51.7517 34.6424 49.5786 33.7286L48.2599 27.9504C47.9995 26.7689 47.3361 25.7113 46.3806 24.9543C45.4251 24.1973 44.2353 23.7867 43.0099 23.791ZM20.4192 42.1091C20.9567 42.1091 21.4849 41.9271 21.913 41.5818C24.0536 39.8397 26.3974 38.4985 28.8755 37.5951C29.2421 37.461 29.5689 37.2388 29.8265 36.9486C30.084 36.6584 30.2641 36.3094 30.3505 35.9331L31.9411 28.9648C31.9755 28.8111 32.0615 28.6732 32.1851 28.5737C32.3087 28.4741 32.4628 28.4185 32.6224 28.416H43.0161C43.1751 28.4189 43.3285 28.4742 43.452 28.5731C43.5754 28.672 43.6618 28.8088 43.6974 28.9617L45.288 35.9301C45.3738 36.3065 45.5537 36.6558 45.8114 36.946C46.069 37.2363 46.3961 37.4584 46.763 37.592C49.2938 38.5266 51.6474 39.8743 53.7255 41.5787C54.0265 41.8251 54.3854 41.9929 54.7693 42.0667C55.1531 42.1405 55.5496 42.1179 55.9224 42.0011L62.8005 39.8582C63.1255 39.7596 63.4755 39.8706 63.6286 40.145L68.8411 49.0373C68.9174 49.182 68.9437 49.3474 68.916 49.5082C68.8884 49.669 68.8083 49.8166 68.688 49.9284L63.413 54.7137C63.1303 54.9695 62.9159 55.2902 62.7889 55.6474C62.6619 56.0045 62.6261 56.387 62.6849 56.7611C62.8911 58.1177 62.9974 59.4744 62.9974 60.791C62.9974 62.1076 62.8942 63.4611 62.6849 64.8209C62.6272 65.1949 62.6635 65.5771 62.7905 65.9341C62.9174 66.291 63.1312 66.6118 63.413 66.8682L68.7005 71.6659C68.8199 71.7822 68.8969 71.9342 68.9195 72.0981C68.9421 72.2621 68.909 72.4289 68.8255 72.5724L63.6442 81.4123C63.4755 81.7052 63.138 81.8193 62.7942 81.7207L55.9255 79.5808C55.5527 79.464 55.1562 79.4415 54.7724 79.5153C54.3885 79.5891 54.0296 79.7569 53.7286 80.0032C51.6513 81.7087 49.2975 83.0565 46.7661 83.99C46.3995 84.1241 46.0727 84.3463 45.8151 84.6365C45.5576 84.9267 45.3775 85.2757 45.2911 85.6519L43.7005 92.6202C43.6616 92.7732 43.573 92.9093 43.4483 93.0079C43.3236 93.1064 43.1696 93.162 43.0099 93.166H32.6161C32.4571 93.1631 32.3037 93.1078 32.1802 93.0089C32.0568 92.91 31.9704 92.7732 31.9349 92.6202L30.3442 85.6488C30.2587 85.2727 30.0793 84.9237 29.8222 84.6334C29.5651 84.3432 29.2386 84.1209 28.8724 83.9869C26.341 83.0534 23.9872 81.7056 21.9099 80.0002C21.6084 79.7546 21.2495 79.5873 20.8658 79.5135C20.4821 79.4397 20.0858 79.4618 19.713 79.5777L12.8349 81.7207C12.5099 81.8193 12.1599 81.7052 12.0067 81.4339L6.79424 72.5447C6.71719 72.3986 6.69105 72.2316 6.71986 72.0694C6.74866 71.9072 6.83082 71.7589 6.95361 71.6474L12.2255 66.8682C12.5082 66.6124 12.7226 66.2917 12.8496 65.9346C12.9766 65.5775 13.0123 65.1949 12.9536 64.8209C12.7474 63.4642 12.6411 62.1076 12.6411 60.791C12.6411 59.4744 12.7442 58.1208 12.9536 56.7611C13.0112 56.3871 12.975 56.0049 12.848 55.6479C12.7211 55.291 12.5073 54.9702 12.2255 54.7137L6.93799 49.9161C6.8186 49.7998 6.7416 49.6478 6.71898 49.4838C6.69637 49.3198 6.72942 49.1531 6.81299 49.0096L11.9942 40.1696C12.0764 40.0277 12.2067 39.9189 12.3622 39.8625C12.5177 39.8061 12.6884 39.8057 12.8442 39.8613L19.713 42.0011C19.9412 42.0735 20.1795 42.1099 20.4192 42.1091Z" fill="url(#paint0_linear_14_1073)"/>
<path d="M35.4724 48.4575C35.1197 48.457 34.7714 48.5351 34.4536 48.6859C34.1357 48.8366 33.8564 49.0562 33.6366 49.3283C33.4167 49.6004 33.2619 49.9179 33.1837 50.2572C33.1055 50.5965 33.1059 50.9489 33.1849 51.288L37.8724 71.3297C38.0286 71.9093 38.4069 72.4063 38.9275 72.7159C39.4482 73.0255 40.0703 73.1234 40.6627 72.989C41.2551 72.8546 41.7714 72.4984 42.1026 71.9955C42.4338 71.4926 42.5541 70.8824 42.438 70.2937L37.7505 50.252C37.6324 49.7428 37.3429 49.2881 36.9291 48.9622C36.5154 48.6362 36.0018 48.4583 35.4724 48.4575ZM47.9692 51.5409C47.494 51.5387 47.0293 51.6793 46.637 51.944C46.2447 52.2087 45.9434 52.585 45.7731 53.0228C45.6028 53.4606 45.5716 53.9391 45.6837 54.3948C45.7958 54.8505 46.0458 55.2618 46.4005 55.5739L52.2786 60.7909L46.4005 66.0079C46.1715 66.2111 45.9853 66.4569 45.8526 66.7312C45.7199 67.0054 45.6432 67.3028 45.627 67.6063C45.5941 68.2192 45.8094 68.8199 46.2255 69.2762C46.4315 69.5021 46.6806 69.6858 46.9586 69.8168C47.2365 69.9477 47.5379 70.0234 47.8455 70.0394C48.4667 70.0718 49.0755 69.8594 49.538 69.4489L57.3505 62.5114C57.5939 62.2937 57.7885 62.0282 57.9216 61.7319C58.0548 61.4356 58.1236 61.115 58.1236 60.7909C58.1236 60.4667 58.0548 60.1462 57.9216 59.8499C57.7885 59.5535 57.5939 59.288 57.3505 59.0704L49.538 52.1329C49.1073 51.7508 48.5484 51.5399 47.9692 51.5409ZM27.6567 51.5409C27.0776 51.5399 26.5187 51.7508 26.088 52.1329L18.2755 59.0704C18.0321 59.288 17.8375 59.5535 17.7043 59.8499C17.5712 60.1462 17.5024 60.4667 17.5024 60.7909C17.5024 61.115 17.5712 61.4356 17.7043 61.7319C17.8375 62.0282 18.0321 62.2937 18.2755 62.5114L26.088 69.4489C26.554 69.8354 27.154 70.0282 27.7613 69.9865C28.3687 69.9447 28.9358 69.6718 29.343 69.2252C29.7502 68.7786 29.9656 68.1934 29.9436 67.5931C29.9217 66.9928 29.6642 66.4244 29.2255 66.0079L23.3474 60.7909L29.2255 55.5739C29.5785 55.261 29.827 54.8499 29.9381 54.3947C30.0492 53.9396 30.0176 53.4619 29.8476 53.0248C29.6776 52.5877 29.3771 52.2118 28.9859 51.9469C28.5947 51.6819 28.1312 51.5403 27.6567 51.5409Z" fill="url(#paint1_linear_14_1073)"/>
</g>
<defs>
<linearGradient id="paint0_linear_14_1073" x1="37.8142" y1="23.7909" x2="37.8142" y2="97.791" gradientUnits="userSpaceOnUse">
<stop stop-color="#9C12C0"/>
<stop offset="1" stop-color="#7123C2"/>
</linearGradient>
<linearGradient id="paint1_linear_14_1073" x1="37.813" y1="48.4575" x2="37.813" y2="73.0479" gradientUnits="userSpaceOnUse">
<stop stop-color="#9C12C0"/>
<stop offset="1" stop-color="#7123C2"/>
</linearGradient>
<clipPath id="clip0_14_1073">
<rect width="75" height="74" fill="white" transform="matrix(1 0 0 -1 0.312988 97.791)"/>
</clipPath>
</defs>
</svg>
