<svg width="109" height="98" viewBox="0 0 109 98" fill="none" xmlns="http://www.w3.org/2000/svg">
<rect x="11.554" y="0.0209961" width="97.3853" height="97.3853" rx="6.68556" fill="#F8F4FC"/>
<g clip-path="url(#clip0_14_1081)">
<path d="M35.64 70.9263L32.8028 66.0123C32.6282 65.7099 32.3483 65.4826 32.0166 65.3737C31.6849 65.2648 31.3247 65.2821 31.005 65.4221L28.6857 66.4383C27.9961 65.9262 27.25 65.4948 26.4622 65.1525L26.1827 62.6381C26.1442 62.2912 25.9791 61.9706 25.719 61.7378C25.4589 61.5049 25.122 61.3762 24.7729 61.3762H19.0987C18.7496 61.3761 18.4127 61.5049 18.1526 61.7377C17.8925 61.9705 17.7274 62.2912 17.6889 62.6381L17.4094 65.1525C16.6216 65.4947 15.8757 65.9262 15.1861 66.4383L12.8667 65.4221C12.5469 65.2821 12.1867 65.2648 11.855 65.3737C11.5233 65.4826 11.2434 65.7099 11.0689 66.0123L8.2317 70.9263C8.05714 71.2286 8.00019 71.5847 8.07175 71.9264C8.14331 72.2681 8.33834 72.5714 8.61954 72.7783L10.6593 74.2788C10.5629 75.1317 10.563 75.9928 10.6595 76.8457L8.61954 78.3464C8.33834 78.5533 8.14331 78.8566 8.07175 79.1983C8.00019 79.54 8.05714 79.896 8.2317 80.1984L11.0689 85.1124C11.2434 85.4147 11.5233 85.6421 11.855 85.751C12.1867 85.8598 12.5469 85.8426 12.8667 85.7025L15.1858 84.6864C15.8755 85.1985 16.6216 85.63 17.4094 85.9723L17.6889 88.4865C17.7274 88.8335 17.8926 89.154 18.1527 89.3869C18.4128 89.6197 18.7496 89.7485 19.0987 89.7485H24.7729C25.1221 89.7485 25.4589 89.6198 25.719 89.3869C25.9792 89.1541 26.1443 88.8335 26.1827 88.4865L26.4622 85.9722C27.25 85.6299 27.996 85.1984 28.6856 84.6864L31.005 85.7025C31.3247 85.8427 31.685 85.86 32.0167 85.7512C32.3484 85.6423 32.6283 85.4148 32.8028 85.1124L35.64 80.1984C35.8145 79.896 35.8715 79.54 35.7999 79.1983C35.7283 78.8566 35.5333 78.5533 35.2521 78.3464L33.2123 76.8458C33.3086 75.9929 33.3086 75.1318 33.2123 74.2788L35.2521 72.7783C35.5333 72.5714 35.7283 72.2681 35.7999 71.9264C35.8715 71.5847 35.8145 71.2286 35.64 70.9263ZM30.2883 73.9171C30.5001 75.0036 30.5001 76.1209 30.2883 77.2074C30.2366 77.4713 30.261 77.7445 30.3587 77.9951C30.4563 78.2457 30.6232 78.4634 30.8399 78.6227L32.548 79.8793L30.9804 82.5942L29.0364 81.7425C28.7898 81.6345 28.5176 81.5989 28.2515 81.6398C27.9854 81.6807 27.7364 81.7965 27.5337 81.9736C26.694 82.7073 25.7369 83.261 24.6885 83.619C24.4338 83.7061 24.2092 83.8638 24.0407 84.0737C23.8723 84.2837 23.7671 84.5372 23.7374 84.8047L23.5033 86.9112H20.3683L20.1343 84.8048C20.1046 84.5373 19.9993 84.2838 19.8309 84.0738C19.6625 83.8639 19.4378 83.7062 19.1831 83.6192C18.1363 83.262 17.1697 82.703 16.338 81.9739C16.1352 81.7967 15.8863 81.6808 15.6202 81.6399C15.354 81.5989 15.0818 81.6345 14.8351 81.7425L12.8911 82.5942L11.3237 79.8793L13.0319 78.6226C13.2485 78.4632 13.4153 78.2456 13.513 77.9951C13.6107 77.7446 13.6352 77.4714 13.5836 77.2075C13.3715 76.121 13.3714 75.0037 13.5833 73.9171C13.635 73.6532 13.6106 73.38 13.513 73.1294C13.4153 72.8788 13.2484 72.6611 13.0318 72.5018L11.3237 71.2452L12.8911 68.5303L14.8353 69.382C15.0818 69.4901 15.3541 69.5258 15.6202 69.4848C15.8863 69.4439 16.1353 69.3281 16.338 69.1509C17.1697 68.4218 18.1362 67.8628 19.183 67.5055C19.4377 67.4185 19.6624 67.2608 19.8309 67.0509C19.9993 66.8409 20.1046 66.5874 20.1343 66.3198L20.3683 64.2134H23.5033L23.7374 66.3198C23.7671 66.5874 23.8723 66.8409 24.0408 67.0509C24.2092 67.2608 24.4339 67.4185 24.6887 67.5055C25.7354 67.8627 26.7019 68.4216 27.5335 69.1508C27.7363 69.328 27.9852 69.4438 28.2514 69.4847C28.5175 69.5257 28.7898 69.4901 29.0364 69.382L30.9804 68.5303L32.548 71.2452L30.8399 72.5018C30.6232 72.6611 30.4563 72.8788 30.3587 73.1294C30.261 73.38 30.2366 73.6532 30.2883 73.9171Z" fill="url(#paint0_linear_14_1081)"/>
<path d="M21.9358 70.5973C19.198 70.5973 16.9707 72.8246 16.9707 75.5624C17.2203 82.1401 26.6522 82.1384 26.9007 75.5624C26.9007 72.8246 24.6735 70.5973 21.9358 70.5973ZM21.9358 77.6903C20.7624 77.6903 19.8079 76.7357 19.8079 75.5624C19.9148 72.7433 23.957 72.744 24.0635 75.5624C24.0635 76.7357 23.1091 77.6903 21.9358 77.6903ZM66.3037 31.1945C58.1664 22.7136 43.5247 22.714 35.3874 31.1945C33.5532 33.0288 32.0516 35.1999 30.9692 37.5598L30.9624 37.5444C30.6455 36.828 29.8077 36.5039 29.0913 36.821C28.3746 37.1379 28.0508 37.9757 28.3677 38.6922L29.8023 41.9356C29.9546 42.2796 30.2372 42.549 30.5882 42.6847C30.9391 42.8204 31.3295 42.8111 31.6736 42.659L34.9168 41.2243C35.6333 40.9074 35.9572 40.0695 35.6402 39.3531C35.5649 39.1828 35.4567 39.0289 35.3219 38.9003C35.187 38.7718 35.0282 38.671 34.8545 38.6038C34.6807 38.5367 34.4954 38.5044 34.3091 38.5088C34.1229 38.5132 33.9393 38.5543 33.769 38.6297L33.5562 38.7239C34.4976 36.6764 35.8017 34.7928 37.3936 33.2008C44.4748 25.8206 57.2164 25.8209 64.2973 33.2008C71.6775 40.282 71.6772 53.0236 64.2973 60.1045C57.2152 67.4846 44.4753 67.4846 37.3936 60.1044C34.0616 56.7725 29.8441 54.6429 25.1971 53.9455C20.644 53.2625 16.0794 54.0027 11.9976 56.0865C11.2998 56.4427 11.0229 57.2972 11.3793 57.9951C11.7355 58.6929 12.5901 58.9696 13.2877 58.6136C20.6536 54.8532 29.5352 56.2583 35.3873 62.1108C43.5252 70.5912 58.1661 70.5916 66.3035 62.1105C74.7841 53.9738 74.7847 39.331 66.3037 31.1945Z" fill="url(#paint1_linear_14_1081)"/>
<path d="M37.1417 51.2881L39.9789 56.2022C40.1534 56.5046 40.4334 56.732 40.7651 56.8409C41.0968 56.9498 41.457 56.9325 41.7768 56.7924L44.0958 55.7762C44.7855 56.2884 45.5316 56.7199 46.3194 57.0622L46.5989 59.5764C46.6375 59.9233 46.8026 60.2439 47.0627 60.4767C47.3228 60.7096 47.6596 60.8383 48.0087 60.8384H53.6829C54.0321 60.8384 54.3689 60.7097 54.629 60.4768C54.8892 60.244 55.0543 59.9234 55.0928 59.5764L55.3722 57.0621C56.16 56.7197 56.906 56.2883 57.5956 55.7762L59.915 56.7924C60.2348 56.9325 60.5949 56.9497 60.9266 56.8408C61.2583 56.732 61.5382 56.5046 61.7128 56.2022L64.55 51.2881C64.7245 50.9858 64.7815 50.6297 64.7099 50.288C64.6383 49.9463 64.4433 49.643 64.1621 49.4361L62.1223 47.9355C62.2186 47.0826 62.2186 46.2215 62.1223 45.3686L64.1621 43.868C64.4433 43.6611 64.6383 43.3578 64.7099 43.0161C64.7815 42.6744 64.7245 42.3183 64.55 42.016L61.7128 37.102C61.5382 36.7997 61.2583 36.5723 60.9266 36.4634C60.5949 36.3545 60.2348 36.3718 59.915 36.5119L57.5957 37.528C56.9061 37.0159 56.16 36.5845 55.3722 36.2422L55.0928 33.7279C55.0542 33.3809 54.8891 33.0603 54.629 32.8275C54.3689 32.5947 54.032 32.4659 53.6829 32.4659H48.0087C47.6596 32.4658 47.3227 32.5946 47.0626 32.8274C46.8025 33.0603 46.6374 33.3809 46.5989 33.7279L46.3194 36.2422C45.5317 36.5846 44.7857 37.016 44.0961 37.528L41.7767 36.5119C41.4569 36.3718 41.0967 36.3545 40.765 36.4634C40.4333 36.5723 40.1534 36.7997 39.9789 37.102L37.1417 42.016C36.9671 42.3183 36.9102 42.6744 36.9818 43.0161C37.0533 43.3578 37.2483 43.6611 37.5295 43.868L39.5693 45.3686C39.4729 46.2215 39.473 47.0825 39.5695 47.9354L37.5295 49.4361C37.2483 49.643 37.0533 49.9463 36.9818 50.288C36.9102 50.6297 36.9671 50.9858 37.1417 51.2881ZM42.4935 48.2974C42.2814 47.2109 42.2813 46.0936 42.4932 45.007C42.5449 44.743 42.5205 44.4699 42.4228 44.2193C42.3252 43.9687 42.1583 43.751 41.9417 43.5916L40.2335 42.335L41.8009 39.6201L43.7451 40.4719C43.9917 40.5799 44.264 40.6156 44.5301 40.5747C44.7962 40.5338 45.0451 40.418 45.2478 40.2408C46.0876 39.5069 47.0448 38.9534 48.0928 38.5955C48.3476 38.5085 48.5723 38.3508 48.7407 38.1408C48.9092 37.9308 49.0144 37.6772 49.0441 37.4097L49.2782 35.3032H52.4132L52.6472 37.4097C52.6769 37.6772 52.7822 37.9308 52.9506 38.1407C53.1191 38.3507 53.3438 38.5084 53.5985 38.5953C54.6453 38.9525 55.6118 39.5115 56.4434 40.2406C56.6461 40.4178 56.8951 40.5337 57.1612 40.5746C57.4274 40.6156 57.6996 40.5799 57.9463 40.4719L59.8903 39.6201L61.4578 42.335L59.7497 43.5916C59.5331 43.751 59.3662 43.9687 59.2685 44.2193C59.1709 44.4699 59.1465 44.743 59.1982 45.007C59.41 46.0935 59.41 47.2107 59.1982 48.2973C59.1465 48.5612 59.1709 48.8344 59.2685 49.085C59.3662 49.3356 59.5331 49.5532 59.7497 49.7126L61.4578 50.9692L59.8904 53.6841L57.9463 52.8324C57.6996 52.7244 57.4274 52.6888 57.1613 52.7298C56.8953 52.7707 56.6463 52.8864 56.4435 53.0635C55.6039 53.7972 54.6467 54.3508 53.5984 54.7089C53.3437 54.7959 53.119 54.9536 52.9506 55.1636C52.7822 55.3735 52.677 55.627 52.6472 55.8946L52.4132 58.001H49.2782L49.0441 55.8947C49.0144 55.6272 48.9092 55.3736 48.7407 55.1637C48.5723 54.9537 48.3476 54.796 48.0928 54.709C47.046 54.3519 46.0795 53.7929 45.2478 53.0637C45.0451 52.8865 44.7961 52.7707 44.53 52.7297C44.2638 52.6887 43.9915 52.7243 43.7448 52.8324L41.8009 53.6841L40.2335 50.9692L41.9418 49.7125C42.1584 49.5531 42.3253 49.3355 42.423 49.085C42.5207 48.8344 42.5451 48.5613 42.4935 48.2974Z" fill="url(#paint2_linear_14_1081)"/>
<path d="M50.8456 51.6174C53.5834 51.6174 55.8107 49.39 55.8107 46.6523C55.561 40.0745 46.1292 40.0762 45.8807 46.6523C45.8807 49.39 48.1079 51.6174 50.8456 51.6174ZM50.8456 44.5244C52.0189 44.5244 52.9735 45.479 52.9735 46.6523C52.8665 49.4713 48.8244 49.4706 48.7178 46.6523C48.7178 45.479 49.6724 44.5244 50.8456 44.5244ZM42.9789 80.2792C42.8266 79.9352 42.544 79.6658 42.1931 79.5301C41.8422 79.3944 41.4518 79.4036 41.1077 79.5557L37.8645 80.9905C36.1731 81.8099 37.2695 84.2856 39.0124 83.5851L39.226 83.4906C38.2848 85.5384 36.9808 87.421 35.3877 89.0141C28.3067 96.3943 15.5651 96.3941 8.48421 89.0141C2.63137 83.1617 1.22611 74.2801 4.98709 66.9136C5.34344 66.2158 5.06653 65.3614 4.36872 65.0051C3.6712 64.6489 2.8165 64.9256 2.46029 65.6234C-1.84884 73.8238 -0.17674 84.5404 6.47789 91.0203C17.0513 101.788 35.6536 98.4266 41.8124 84.6556L41.8189 84.6704C41.8943 84.8407 42.0024 84.9946 42.1372 85.1232C42.272 85.2518 42.4309 85.3525 42.6046 85.4197C42.7784 85.4869 42.9637 85.5192 43.1499 85.5147C43.3362 85.5103 43.5197 85.4692 43.6901 85.3938C44.4066 85.0769 44.7306 84.2391 44.4137 83.5226L42.9789 80.2792ZM7.48183 62.5254C7.80215 62.5254 8.12445 62.4174 8.38959 62.1964C8.9915 61.6948 9.07279 60.8004 8.57131 60.1984C8.06941 59.5965 7.17485 59.5155 6.57336 60.0169L6.57251 60.0176C5.9706 60.5192 5.88974 61.4133 6.39122 62.0152C6.52434 62.1752 6.69109 62.3038 6.8796 62.392C7.0681 62.4802 7.27373 62.5257 7.48183 62.5254Z" fill="url(#paint3_linear_14_1081)"/>
</g>
<defs>
<linearGradient id="paint0_linear_14_1081" x1="21.9358" y1="61.3762" x2="21.9358" y2="89.7485" gradientUnits="userSpaceOnUse">
<stop stop-color="#9C12C0"/>
<stop offset="1" stop-color="#7123C2"/>
</linearGradient>
<linearGradient id="paint1_linear_14_1081" x1="41.944" y1="24.834" x2="41.944" y2="80.495" gradientUnits="userSpaceOnUse">
<stop stop-color="#9C12C0"/>
<stop offset="1" stop-color="#7123C2"/>
</linearGradient>
<linearGradient id="paint2_linear_14_1081" x1="50.8458" y1="32.4659" x2="50.8458" y2="60.8384" gradientUnits="userSpaceOnUse">
<stop stop-color="#9C12C0"/>
<stop offset="1" stop-color="#7123C2"/>
</linearGradient>
<linearGradient id="paint3_linear_14_1081" x1="27.9468" y1="41.7196" x2="27.9468" y2="97.3977" gradientUnits="userSpaceOnUse">
<stop stop-color="#9C12C0"/>
<stop offset="1" stop-color="#7123C2"/>
</linearGradient>
<clipPath id="clip0_14_1081">
<rect width="72.5813" height="72.5813" fill="white" transform="translate(0.0825195 24.825)"/>
</clipPath>
</defs>
</svg>
