<svg width="121" height="100" viewBox="0 0 121 100" fill="none" xmlns="http://www.w3.org/2000/svg">
<rect x="23.554" y="0.0209961" width="97.3853" height="97.3853" rx="6.68556" fill="#F8F4FC"/>
<path d="M4.29859 36.8809C3.63097 36.8809 3.08475 36.3346 3.08475 35.667V25.9563C3.08475 25.2887 3.63097 24.7424 4.29859 24.7424H14.0093C14.677 24.7424 15.2232 25.2887 15.2232 25.9563V29.5978H63.777V25.9563C63.777 25.2887 64.3232 24.7424 64.9908 24.7424H74.7016C75.3692 24.7424 75.9154 25.2887 75.9154 25.9563V35.667C75.9154 36.3346 75.3692 36.8809 74.7016 36.8809H71.06V85.4346H74.7016C75.3692 85.4346 75.9154 85.9809 75.9154 86.6485V96.3592C75.9154 97.0269 75.3692 97.5731 74.7016 97.5731H64.9908C64.3232 97.5731 63.777 97.0269 63.777 96.3592V92.7177H15.2232V96.3592C15.2232 97.0269 14.677 97.5731 14.0093 97.5731H4.29859C3.63097 97.5731 3.08475 97.0269 3.08475 96.3592V86.6485C3.08475 85.9809 3.63097 85.4346 4.29859 85.4346H7.94012V36.8809H4.29859ZM15.2232 86.6485V90.29H63.777V86.6485C63.777 85.9809 64.3232 85.4346 64.9908 85.4346H68.6323V36.8809H64.9908C64.3232 36.8809 63.777 36.3346 63.777 35.667V32.0255H15.2232V35.667C15.2232 36.3346 14.677 36.8809 14.0093 36.8809H10.3678V85.4346H14.0093C14.677 85.4346 15.2232 85.9809 15.2232 86.6485Z" fill="url(#paint0_linear_14_1083)"/>
<path d="M57.3437 45.8996C57.0159 45.8996 56.6882 45.7661 56.4575 45.5112C56.2026 45.232 55.9356 44.9528 55.6564 44.6858C55.4278 44.4604 55.2981 44.1535 55.2959 43.8326C55.2936 43.5116 55.4189 43.2028 55.6443 42.9743C55.7559 42.8611 55.8886 42.771 56.035 42.7091C56.1814 42.6473 56.3386 42.6149 56.4975 42.6137C56.8185 42.6115 57.1272 42.7368 57.3558 42.9621C57.6593 43.2535 57.9506 43.5569 58.2419 43.8725C58.351 43.9889 58.4358 44.1259 58.4912 44.2755C58.5467 44.4251 58.5718 44.5842 58.565 44.7436C58.5582 44.903 58.5197 45.0594 58.4517 45.2037C58.3837 45.348 58.2876 45.4773 58.1691 45.584C57.9384 45.8025 57.635 45.9118 57.3437 45.9118V45.8996ZM62.2961 64.6414C62.3568 64.2651 62.4054 63.8888 62.4418 63.5004C62.5025 62.8328 63.0973 62.3594 63.7649 62.4079C64.0851 62.4387 64.3801 62.5953 64.585 62.8434C64.7898 63.0915 64.8878 63.4107 64.8573 63.731C64.8088 64.1559 64.7602 64.5807 64.6995 64.9934C64.6024 65.6003 64.0926 66.0252 63.4978 66.0252C63.4372 66.0252 63.3765 66.0252 63.3158 66.013C62.6482 65.9159 62.199 65.2969 62.2961 64.6293V64.6414ZM63.6921 58.7907C63.6921 58.7907 63.5707 58.8028 63.51 58.8028C63.2193 58.8032 62.9382 58.6993 62.7177 58.5099C62.4971 58.3206 62.3519 58.0584 62.3083 57.771C62.2476 57.3947 62.1869 57.0063 62.1141 56.6422C61.9805 55.9867 62.4054 55.3434 63.073 55.2098C63.2294 55.1775 63.3906 55.1767 63.5473 55.2077C63.704 55.2386 63.8529 55.3006 63.9852 55.3899C64.1176 55.4793 64.2307 55.5943 64.3179 55.728C64.4052 55.8618 64.4648 56.0116 64.4932 56.1688C64.5782 56.5815 64.651 56.9942 64.7117 57.419C64.8088 58.0866 64.3475 58.6936 63.6921 58.8028V58.7907ZM44.9746 38.7137C44.8896 38.7137 44.7925 38.7137 44.6954 38.6773C44.3191 38.5923 43.9428 38.5195 43.5665 38.4466C42.911 38.3253 42.4619 37.6941 42.5833 37.0386C42.7047 36.3831 43.3359 35.9461 43.9914 36.0554C44.4041 36.1282 44.8289 36.2132 45.2295 36.3103C45.385 36.346 45.5318 36.4121 45.6618 36.5047C45.7917 36.5973 45.9021 36.7146 45.9866 36.8499C46.0712 36.9851 46.1282 37.1358 46.1545 37.2931C46.1808 37.4505 46.1758 37.6115 46.1399 37.7669C46.0063 38.3253 45.5087 38.7137 44.9624 38.7137H44.9746ZM24.3028 43.8118C24.0722 44.0182 23.7809 44.1153 23.5017 44.1153C23.1618 44.1153 22.8341 43.9818 22.5913 43.7026C22.4858 43.5832 22.4049 43.4441 22.3532 43.2934C22.3016 43.1426 22.2803 42.9832 22.2904 42.8241C22.3006 42.6651 22.342 42.5097 22.4124 42.3667C22.4828 42.2237 22.5807 42.0961 22.7005 41.9911C23.0161 41.7119 23.3439 41.4327 23.6716 41.1778C24.1936 40.7651 24.9583 40.85 25.3831 41.372C25.5816 41.6235 25.6726 41.9434 25.6362 42.2617C25.5998 42.5801 25.439 42.8711 25.1889 43.0714C24.8855 43.3142 24.5941 43.5569 24.3028 43.8118ZM17.1654 55.3798C17.0845 55.6918 16.8832 55.9591 16.6056 56.1229C16.328 56.2867 15.9968 56.3338 15.6845 56.2537C15.0412 56.0838 14.6527 55.4283 14.8105 54.7728C14.9198 54.3601 15.029 53.9596 15.1626 53.559C15.3689 52.9157 16.0365 52.5636 16.6799 52.7579C17.3232 52.9521 17.6752 53.644 17.481 54.2752C17.3718 54.6393 17.2625 55.0156 17.1654 55.3798ZM37.8493 38.1553C37.4609 38.1796 37.0846 38.216 36.7083 38.2646H36.5626C35.9557 38.2646 35.4338 37.8154 35.3609 37.1964C35.3401 37.0383 35.351 36.8777 35.3931 36.7239C35.4351 36.5701 35.5074 36.4262 35.6058 36.3007C35.7041 36.1753 35.8265 36.0707 35.9658 35.9931C36.1051 35.9155 36.2585 35.8665 36.417 35.849C36.8297 35.8005 37.2545 35.7519 37.6794 35.7276C38.3713 35.6791 38.9296 36.1889 38.9782 36.8565C39.0267 37.5241 38.5169 38.1068 37.8493 38.1553ZM31.1489 39.6605C30.7969 39.8061 30.4327 39.9518 30.0807 40.1096C29.9358 40.176 29.7792 40.2129 29.6199 40.2183C29.4606 40.2236 29.3018 40.1973 29.1528 40.1409C29.0037 40.0844 28.8674 39.9989 28.7516 39.8894C28.6359 39.7798 28.543 39.6484 28.4784 39.5027C28.1992 38.8958 28.4784 38.1675 29.0854 37.9004C29.4738 37.7305 29.8622 37.5605 30.2628 37.4149C30.411 37.3568 30.5692 37.3286 30.7283 37.332C30.8874 37.3354 31.0443 37.3702 31.1899 37.4345C31.3355 37.4989 31.4669 37.5914 31.5765 37.7068C31.6861 37.8221 31.7718 37.9581 31.8286 38.1068C32.0714 38.7258 31.768 39.4299 31.1368 39.6726L31.1489 39.6605ZM51.6993 41.372C51.4929 41.372 51.2866 41.3234 51.0924 41.2021C50.7646 41.0078 50.4247 40.8258 50.0849 40.6437C49.4901 40.3402 49.2594 39.5998 49.5629 39.005C49.8664 38.4102 50.6068 38.1796 51.2016 38.4831C51.5779 38.6773 51.9542 38.8836 52.3183 39.09C52.901 39.4299 53.0952 40.1703 52.7553 40.7529C52.5247 41.1414 52.1241 41.3599 51.6993 41.3599V41.372ZM17.7966 47.7811C18.0151 47.4169 18.2579 47.0649 18.4885 46.7129C18.5791 46.5819 18.6947 46.47 18.8286 46.3838C18.9626 46.2975 19.1122 46.2386 19.269 46.2104C19.4258 46.1822 19.5866 46.1853 19.7422 46.2195C19.8979 46.2536 20.0452 46.3182 20.1757 46.4095C20.722 46.7857 20.8676 47.5505 20.4792 48.0967C20.2607 48.4123 20.0544 48.7279 19.848 49.0556C19.6174 49.4319 19.2168 49.6261 18.8162 49.6261C18.5977 49.6261 18.3792 49.5655 18.1729 49.4441C17.6024 49.0921 17.4325 48.3395 17.7845 47.769L17.7966 47.7811ZM60.7424 70.1523C61.0095 69.5332 61.7256 69.254 62.3326 69.5089C62.9516 69.776 63.2429 70.48 62.9759 71.099C62.806 71.4875 62.636 71.8759 62.4539 72.2522C62.2476 72.6892 61.8106 72.932 61.3615 72.932C61.1552 72.9324 60.9522 72.8802 60.7717 72.7804C60.5911 72.6806 60.439 72.5364 60.3297 72.3614C60.2204 72.1865 60.1574 71.9866 60.1468 71.7806C60.1362 71.5746 60.1783 71.3693 60.269 71.184C60.439 70.8441 60.5968 70.4921 60.7424 70.1401V70.1523ZM25.1161 79.1833C25.4195 79.426 25.723 79.6567 26.0265 79.8751C26.2342 80.026 26.3892 80.2385 26.4693 80.4825C26.5493 80.7264 26.5505 80.9894 26.4725 81.2341C26.3945 81.4787 26.2414 81.6925 26.035 81.8452C25.8285 81.9978 25.5792 82.0815 25.3224 82.0843C25.0797 82.0843 24.8248 82.0115 24.6184 81.8537C24.2785 81.6109 23.9387 81.3439 23.6109 81.089C23.089 80.6641 23.004 79.9116 23.4167 79.3775C23.8415 78.8555 24.5941 78.7705 25.1282 79.1833H25.1161ZM15.2233 59.8953C15.8909 59.8953 16.4371 60.4901 16.4371 61.1577C16.4371 61.5461 16.4371 61.9224 16.4614 62.3108C16.4978 62.9784 15.9758 63.5489 15.3082 63.5854H15.2475C14.6042 63.5854 14.0701 63.0755 14.0337 62.4322C14.0094 62.0074 13.9973 61.5825 13.9973 61.1577V61.0606C13.9973 60.3929 14.5435 59.8953 15.2111 59.8953H15.2233ZM31.0518 82.6306C31.4038 82.7762 31.768 82.8976 32.1321 83.019C32.7633 83.2375 33.1032 83.9172 32.8968 84.5606C32.7269 85.0704 32.2535 85.386 31.7437 85.386C31.6102 85.386 31.4888 85.3617 31.3552 85.3253C30.9547 85.1918 30.5541 85.0461 30.1657 84.8883C29.5466 84.6455 29.231 83.9415 29.4738 83.3103C29.7166 82.6791 30.4206 82.3878 31.0518 82.6184V82.6306ZM15.9394 67.1541C16.0916 67.1066 16.2517 67.0897 16.4105 67.1043C16.5693 67.119 16.7236 67.1648 16.8646 67.2393C17.0056 67.3137 17.1305 67.4153 17.2321 67.5381C17.3337 67.661 17.4101 67.8027 17.4567 67.9552C17.566 68.3193 17.6995 68.6835 17.8209 69.0477C17.8877 69.2309 17.9093 69.4276 17.8839 69.621C17.8584 69.8144 17.7866 69.9988 17.6746 70.1585C17.5625 70.3182 17.4136 70.4485 17.2404 70.5382C17.0672 70.628 16.8749 70.6747 16.6799 70.6742C16.1822 70.6742 15.7209 70.3707 15.5389 69.8731C15.3932 69.4725 15.2597 69.0719 15.1383 68.6714C15.0908 68.5191 15.0739 68.359 15.0886 68.2003C15.1032 68.0415 15.149 67.8872 15.2235 67.7462C15.2979 67.6052 15.3995 67.4803 15.5224 67.3787C15.6452 67.2771 15.787 67.2007 15.9394 67.1541ZM20.4428 74.1458C20.6613 74.4614 20.8798 74.777 21.1104 75.0805C21.511 75.6146 21.4139 76.3793 20.8798 76.7798C20.6613 76.9498 20.4064 77.0226 20.1515 77.0226C19.7873 77.0226 19.4232 76.8527 19.1804 76.5371C18.9255 76.1972 18.6706 75.8573 18.4399 75.5053C18.0637 74.9469 18.1972 74.1944 18.7555 73.8181C19.3139 73.4418 20.0665 73.5874 20.4428 74.1337V74.1458ZM51.0074 81.1497C51.3351 80.9555 51.6629 80.7612 51.9906 80.5549C52.549 80.1907 53.3016 80.3485 53.6657 80.919C54.0299 81.4896 53.8721 82.23 53.3016 82.5942C52.9495 82.8248 52.5854 83.0433 52.2212 83.2496C52.027 83.3589 51.8207 83.4074 51.6143 83.4074C51.3466 83.4073 51.0864 83.3188 50.8741 83.1557C50.6617 82.9926 50.5092 82.764 50.44 82.5053C50.3709 82.2467 50.389 81.9724 50.4916 81.7251C50.5941 81.4778 50.7755 81.2713 51.0074 81.1375V81.1497ZM60.269 48.5337C60.8517 48.2181 61.5921 48.4366 61.9198 49.0192C62.1262 49.3955 62.3204 49.7718 62.5025 50.1481C62.5723 50.2913 62.6129 50.447 62.6219 50.6061C62.6309 50.7652 62.6083 50.9245 62.5552 51.0747C62.5021 51.225 62.4196 51.3631 62.3127 51.4812C62.2057 51.5993 62.0763 51.6949 61.932 51.7625C61.762 51.8475 61.58 51.8839 61.41 51.8839C60.9609 51.8839 60.5239 51.629 60.3176 51.192C60.1476 50.84 59.9777 50.5001 59.7956 50.1602C59.48 49.5655 59.6985 48.8371 60.2812 48.5094L60.269 48.5337ZM57.1494 76.003C57.2523 75.881 57.3781 75.7805 57.5197 75.7072C57.6614 75.6339 57.8161 75.5892 57.975 75.5757C58.134 75.5622 58.294 75.5801 58.446 75.6284C58.598 75.6767 58.739 75.7545 58.861 75.8573C58.9829 75.9601 59.0834 76.086 59.1567 76.2276C59.23 76.3693 59.2747 76.524 59.2883 76.6829C59.3156 77.0039 59.2143 77.3226 59.0066 77.5688C58.7396 77.8966 58.4482 78.2122 58.1691 78.5156C57.9263 78.7705 57.6107 78.9041 57.283 78.9041C56.9916 78.9041 56.6882 78.7948 56.4575 78.5763C55.972 78.1151 55.9356 77.3503 56.3969 76.8648C56.6518 76.5856 56.9067 76.2943 57.1616 76.003H57.1494ZM44.6104 83.6502C44.9867 83.5652 45.3509 83.4681 45.7272 83.371C46.0362 83.2841 46.3671 83.3235 46.6471 83.4806C46.9271 83.6376 47.1333 83.8995 47.2202 84.2086C47.3071 84.5176 47.2677 84.8485 47.1106 85.1285C46.9536 85.4085 46.6917 85.6147 46.3826 85.7016C45.9699 85.8108 45.5694 85.9201 45.1445 86.0172C45.0595 86.0415 44.9624 86.0415 44.8775 86.0415C44.3191 86.0415 43.8214 85.653 43.7 85.0947C43.5544 84.4392 43.9671 83.7959 44.6226 83.6381L44.6104 83.6502ZM37.7522 84.16C38.1285 84.1843 38.5169 84.2086 38.9054 84.2207C39.573 84.2328 40.1071 84.7912 40.0828 85.471C40.0706 86.1264 39.5244 86.6484 38.8689 86.6484H38.8325C38.4077 86.6484 37.9828 86.612 37.5701 86.5877C36.9025 86.5392 36.4048 85.9565 36.4534 85.2889C36.5019 84.6213 37.0603 84.1236 37.7522 84.1722V84.16ZM39.5001 42.95C49.5386 42.95 57.7078 51.1192 57.7078 61.1577C57.7078 71.1962 49.5386 79.3653 39.5001 79.3653C29.4616 79.3653 21.2925 71.1962 21.2925 61.1577C21.2925 51.1192 29.4616 42.95 39.5001 42.95ZM23.7809 59.9438H32.2414C32.387 54.5665 33.4552 49.1649 35.3852 45.9361C29.0489 47.6476 24.3028 53.207 23.7809 59.9438ZM39.5001 45.3777C37.6065 45.3777 34.8997 51.0221 34.669 59.9438H44.3312C44.1006 51.0221 41.3937 45.3777 39.5001 45.3777ZM43.6151 45.9361C45.5451 49.1649 46.6254 54.5665 46.7589 59.9438H55.2194C54.6975 53.207 49.9513 47.6597 43.6151 45.9361ZM55.2194 62.3715H46.7589C46.6133 67.7488 45.5451 73.1504 43.6151 76.3793C49.9513 74.6678 54.6975 69.1083 55.2194 62.3715ZM39.5001 76.9376C41.3937 76.9376 44.1006 71.2933 44.3312 62.3715H34.669C34.8997 71.2933 37.6065 76.9376 39.5001 76.9376ZM35.3852 76.3793C33.4552 73.1504 32.3749 67.7488 32.2414 62.3715H23.7809C24.3028 69.1083 29.0489 74.6556 35.3852 76.3793Z" fill="url(#paint1_linear_14_1083)"/>
<defs>
<linearGradient id="paint0_linear_14_1083" x1="39.5001" y1="24.7424" x2="39.5001" y2="97.5731" gradientUnits="userSpaceOnUse">
<stop stop-color="#9C12C0"/>
<stop offset="1" stop-color="#7123C2"/>
</linearGradient>
<linearGradient id="paint1_linear_14_1083" x1="39.43" y1="35.7244" x2="39.43" y2="86.6484" gradientUnits="userSpaceOnUse">
<stop stop-color="#9C12C0"/>
<stop offset="1" stop-color="#7123C2"/>
</linearGradient>
</defs>
</svg>
