<svg width="118" height="100" viewBox="0 0 118 100" fill="none" xmlns="http://www.w3.org/2000/svg">
<rect x="20.554" y="0.0209961" width="97.3853" height="97.3853" rx="6.68556" fill="#F8F4FC"/>
<path d="M61.3369 47.834C61.3369 47.1905 61.0812 46.5734 60.6262 46.1183C60.1712 45.6633 59.554 45.4077 58.9105 45.4077H51.6316C50.9881 45.4077 50.3709 45.6633 49.9159 46.1183C49.4609 46.5734 49.2052 47.1905 49.2052 47.834V64.8183H45.5658V38.1287C45.5658 37.4852 45.3101 36.8681 44.8551 36.413C44.4001 35.958 43.7829 35.7024 43.1394 35.7024H35.8605C35.217 35.7024 34.5998 35.958 34.1448 36.413C33.6898 36.8681 33.4341 37.4852 33.4341 38.1287V64.8183H29.7947V47.834C29.7947 47.1905 29.539 46.5734 29.084 46.1183C28.629 45.6633 28.0118 45.4077 27.3683 45.4077H20.0894C19.4459 45.4077 18.8287 45.6633 18.3737 46.1183C17.9187 46.5734 17.663 47.1905 17.663 47.834V64.8183H12.8104V69.6709H66.1895V64.8183H61.3369V47.834ZM54.0579 50.2603H56.4842V64.8183H54.0579V50.2603ZM38.2868 40.555H40.7131V64.8183H38.2868V40.555ZM22.5157 50.2603H24.942V64.8183H22.5157V50.2603Z" fill="url(#paint0_linear_14_1079)"/>
<path d="M68.6159 24.7839H10.3841C8.45363 24.7839 6.6022 25.5508 5.23712 26.9159C3.87205 28.281 3.10516 30.1324 3.10516 32.0629V73.3104C3.10516 75.2409 3.87205 77.0923 5.23712 78.4574C6.6022 79.8225 8.45363 80.5894 10.3841 80.5894H22.0305L13.9266 92.721H7.95781V97.5736H15.2368C15.6364 97.5716 16.0293 97.4708 16.3807 97.2803C16.732 97.0899 17.0308 96.8155 17.2506 96.4818L27.8537 80.5894H37.0737V92.721H32.221V97.5736H46.779V92.721H41.9263V80.5894H51.1464L61.7494 96.4818C61.9692 96.8155 62.268 97.0899 62.6193 97.2803C62.9707 97.4708 63.3636 97.5716 63.7632 97.5736H71.0422V92.721H65.0735L56.9695 80.5894H68.6159C70.5464 80.5894 72.3978 79.8225 73.7629 78.4574C75.128 77.0923 75.8949 75.2409 75.8949 73.3104V32.0629C75.8949 30.1324 75.128 28.281 73.7629 26.9159C72.3978 25.5508 70.5464 24.7839 68.6159 24.7839ZM71.0422 73.3104C71.0422 73.9539 70.7866 74.571 70.3316 75.0261C69.8765 75.4811 69.2594 75.7367 68.6159 75.7367H10.3841C9.74063 75.7367 9.12349 75.4811 8.66846 75.0261C8.21344 74.571 7.95781 73.9539 7.95781 73.3104V32.0629C7.95781 31.4194 8.21344 30.8023 8.66846 30.3472C9.12349 29.8922 9.74063 29.6366 10.3841 29.6366H68.6159C69.2594 29.6366 69.8765 29.8922 70.3316 30.3472C70.7866 30.8023 71.0422 31.4194 71.0422 32.0629V73.3104Z" fill="url(#paint1_linear_14_1079)"/>
<defs>
<linearGradient id="paint0_linear_14_1079" x1="39.4999" y1="35.7024" x2="39.4999" y2="69.6709" gradientUnits="userSpaceOnUse">
<stop stop-color="#9C12C0"/>
<stop offset="1" stop-color="#7123C2"/>
</linearGradient>
<linearGradient id="paint1_linear_14_1079" x1="39.5" y1="24.7839" x2="39.5" y2="97.5736" gradientUnits="userSpaceOnUse">
<stop stop-color="#9C12C0"/>
<stop offset="1" stop-color="#7123C2"/>
</linearGradient>
</defs>
</svg>
