<svg width="126" height="100" viewBox="0 0 126 100" fill="none" xmlns="http://www.w3.org/2000/svg">
<rect x="28.554" y="0.0209961" width="97.3853" height="97.3853" rx="6.68556" fill="#F8F4FC"/>
<path d="M53.5763 63.609C54.7633 63.1849 55.5604 62.0514 55.5604 60.7912C55.5604 59.5311 54.7633 58.3976 53.5811 57.9735L48.1455 56.0137C45.501 55.065 43.0993 53.5428 41.1127 51.5562C39.1261 49.5695 37.6038 47.1678 36.6551 44.5234L34.6954 39.0877C34.4857 38.5095 34.1034 38.0095 33.6004 37.6555C33.0973 37.3015 32.4976 37.1106 31.8825 37.1085C30.6247 37.1085 29.4913 37.9031 29.0623 39.0877L27.105 44.5234C26.1565 47.1683 24.634 49.5704 22.6469 51.5571C20.6598 53.5438 18.2574 55.0658 15.6122 56.0137L10.1814 57.9735C8.99437 58.4001 8.19731 59.5311 8.19731 60.7912C8.19731 62.0514 8.99437 63.1824 10.1766 63.609L15.6122 65.5687C18.2568 66.5171 20.6587 68.0393 22.6453 70.026C24.632 72.0126 26.1542 74.4145 27.1026 77.0591L29.0623 82.4972C29.4889 83.6794 30.6223 84.474 31.8801 84.474C33.1378 84.474 34.2712 83.6769 34.6954 82.4947L36.6551 77.0591C37.6038 74.4146 39.1261 72.0129 41.1127 70.0263C43.0993 68.0397 45.501 66.5174 48.1455 65.5687L53.5763 63.609ZM46.4929 60.9814C43.1727 62.172 40.1574 64.0829 37.6633 66.577C35.1693 69.071 33.2583 72.0864 32.0677 75.4065L31.8776 75.933L31.6875 75.4065C30.4962 72.0868 28.585 69.0718 26.091 66.5779C23.597 64.0839 20.5821 62.1727 17.2624 60.9814L16.7383 60.7912L17.2648 60.6011C20.5849 59.4105 23.6003 57.4996 26.0943 55.0055C28.5884 52.5115 30.4993 49.4961 31.6899 46.176L31.8801 45.6495L32.0702 46.176C33.2607 49.4958 35.1713 52.5109 37.6649 55.0049C40.1585 57.499 43.1733 59.4101 46.4929 60.6011L47.0194 60.7912L46.4929 60.9814ZM45.2108 39.9823L47.9627 40.9744C49.1351 41.395 50.1999 42.07 51.0807 42.9508C51.9615 43.8315 52.6364 44.8963 53.0571 46.0687L54.0467 48.8182C54.4343 49.8956 55.4629 50.6196 56.6061 50.6196C57.7493 50.6196 58.7803 49.8956 59.1654 48.8207L60.1575 46.0687C60.5777 44.8961 61.2525 43.831 62.1333 42.9502C63.0142 42.0694 64.0792 41.3946 65.2519 40.9744L68.0062 39.9823C69.0763 39.5947 69.8002 38.5686 69.8027 37.4302C69.8051 36.2919 69.0885 35.2609 68.0062 34.866L65.2519 33.8739C64.0796 33.453 63.015 32.7779 62.1342 31.8972C61.2535 31.0164 60.5785 29.9518 60.1575 28.7796L59.1654 26.0276C58.9742 25.5028 58.6262 25.0495 58.1686 24.7292C57.7109 24.4089 57.1659 24.2371 56.6073 24.2371C56.0487 24.2371 55.5036 24.4089 55.046 24.7292C54.5884 25.0495 54.2404 25.5028 54.0491 26.0276L53.0571 28.7796C52.6364 29.952 51.9615 31.0168 51.0807 31.8976C50.1999 32.7783 49.1351 33.4533 47.9627 33.8739L45.2034 34.8684C44.1309 35.2584 43.4094 36.2895 43.4119 37.4302C43.4143 38.571 44.1382 39.5972 45.2108 39.9823ZM56.6085 32.6503C57.7608 34.6264 59.405 36.2706 61.3811 37.4229C59.405 38.5752 57.7608 40.2194 56.6085 42.1956C55.4556 40.2199 53.8115 38.5759 51.8359 37.4229C53.811 36.2693 55.4549 34.6254 56.6085 32.6503ZM68.0038 81.6002L65.2519 80.6081C64.0796 80.1871 63.015 79.5121 62.1342 78.6314C61.2535 77.7506 60.5785 76.686 60.1575 75.5137L59.1654 72.7618C58.9736 72.2372 58.6252 71.7843 58.1674 71.4642C57.7097 71.1442 57.1646 70.9726 56.6061 70.9726C56.0475 70.9726 55.5024 71.1442 55.0447 71.4642C54.5869 71.7843 54.2385 72.2372 54.0467 72.7618L53.0546 75.5137C52.6344 76.6864 51.9596 77.7514 51.0788 78.6323C50.198 79.5131 49.1329 80.1879 47.9602 80.6081L45.2108 81.5977C44.1358 81.9829 43.4119 83.0115 43.4094 84.1522C43.407 85.293 44.1261 86.3241 45.2083 86.7165L47.9602 87.7086C49.1331 88.1285 50.1983 88.8031 51.0792 89.684C51.96 90.5649 52.6347 91.6301 53.0546 92.8029L54.0443 95.5524C54.2349 96.0787 54.5829 96.5336 55.0411 96.8551C55.4993 97.1767 56.0454 97.3493 56.6052 97.3496C57.165 97.3498 57.7112 97.1777 58.1697 96.8566C58.6283 96.5355 58.9768 96.081 59.1679 95.5549L60.1599 92.8029C60.5809 91.6307 61.2559 90.566 62.1367 89.6853C63.0174 88.8046 64.0821 88.1295 65.2543 87.7086L68.0184 86.7141C69.0885 86.3216 69.8076 85.293 69.8051 84.1522C69.8027 83.0115 69.0763 81.9877 68.0038 81.6002ZM56.6085 88.9322C55.4562 86.9561 53.812 85.3119 51.8359 84.1596C53.8115 83.0066 55.4556 81.3626 56.6085 79.3869C57.7614 81.3626 59.4055 83.0066 61.3811 84.1596C59.4055 85.3125 57.7614 86.9565 56.6085 88.9322Z" fill="url(#paint0_linear_14_1082)"/>
<defs>
<linearGradient id="paint0_linear_14_1082" x1="39.0012" y1="24.2371" x2="39.0012" y2="97.3496" gradientUnits="userSpaceOnUse">
<stop stop-color="#9C12C0"/>
<stop offset="1" stop-color="#7123C2"/>
</linearGradient>
</defs>
</svg>
