<svg width="121" height="98" viewBox="0 0 121 98" fill="none" xmlns="http://www.w3.org/2000/svg">
<rect x="23.554" y="0.0209961" width="97.3853" height="97.3853" rx="6.68556" fill="#F8F4FC"/>
<g clip-path="url(#clip0_14_1077)">
<path d="M49.2058 63.1743L56.6332 64.6314C56.7102 68.2322 59.7261 71.0896 63.3692 71.0135C67.0123 70.9375 69.9034 67.9567 69.8264 64.3559C69.7495 60.7551 66.7336 57.8977 63.0905 57.9737C61.8371 57.9999 60.6173 58.3784 59.5738 59.065C58.5302 59.7515 57.7062 60.7177 57.1981 61.8504L49.578 60.3555C49.57 57.5994 48.4848 54.953 46.549 52.9692L56.4119 39.1983C60.572 41.1534 65.5478 39.405 67.5259 35.2933C69.5039 31.1816 67.735 26.2637 63.5749 24.3086C59.4149 22.3535 54.439 24.1019 52.4609 28.2136C50.951 31.3524 51.5948 35.0898 54.0708 37.5578L44.3031 51.1955C39.8111 48.529 34.0318 49.4252 30.5815 53.3229L17.7583 43.4801C19.4415 40.2778 18.1797 36.3331 14.9398 34.6695C11.6998 33.0059 7.70873 34.2531 6.02554 37.4553C4.34236 40.6575 5.60421 44.6022 8.84412 46.2659C9.95923 46.8385 11.2164 47.0851 12.4682 46.9768C13.72 46.8686 14.9147 46.4099 15.9123 45.6546L28.9828 55.6872C26.811 60.0726 27.9179 65.3549 31.6733 68.527L23.73 79.6271C19.5247 77.1048 14.0467 78.4294 11.4946 82.586C8.9426 86.7423 10.2828 92.1567 14.4883 94.6791C18.6936 97.2014 24.1716 95.8768 26.7237 91.7202C28.7069 88.49 28.3835 84.3691 25.9197 81.4799L34.0774 70.0771C35.4572 70.7256 36.9602 71.0783 38.4877 71.1122C40.0153 71.1461 41.5327 70.8603 42.9407 70.2737L52.6199 84.4059C49.7731 87.3807 49.9053 92.0732 52.9151 94.8868C55.9249 97.7005 60.6726 97.5698 63.5193 94.595C66.3661 91.6203 66.2339 86.9278 63.2241 84.1141C62.1392 83.0999 60.7727 82.4288 59.2995 82.1868C57.8264 81.9448 56.3137 82.1429 54.9552 82.7558L45.4156 68.8271C47.263 67.3964 48.5926 65.4134 49.2058 63.1743Z" fill="url(#paint0_linear_14_1077)"/>
</g>
<defs>
<linearGradient id="paint0_linear_14_1077" x1="37.5538" y1="23.5079" x2="37.5538" y2="96.9145" gradientUnits="userSpaceOnUse">
<stop stop-color="#9C12C0"/>
<stop offset="1" stop-color="#7123C2"/>
</linearGradient>
<clipPath id="clip0_14_1077">
<rect width="74.2699" height="73.4062" fill="white" transform="translate(0.418945 23.5081)"/>
</clipPath>
</defs>
</svg>
